<svg xmlns="http://www.w3.org/2000/svg" viewBox="0 0 306.56 384"><defs><style>.cls-1{fill:#fff;}</style></defs><title>89Asset 1connect</title><g id="Layer_2" data-name="Layer 2"><g id="Layer_1-2" data-name="Layer 1"><path class="cls-1" d="M96,384H0V0H96C82.12,4.37,77.45,14.14,77.48,28.25q.39,164.31.15,328.62c0,2.12,0,4.26.17,6.37.73,8.41,5.06,14.44,12.42,18.36A60.21,60.21,0,0,0,96,384Z"/><path d="M96,384a60.21,60.21,0,0,1-5.79-2.4c-7.36-3.92-11.69-10-12.42-18.36-.18-2.11-.17-4.25-.17-6.37q0-164.31-.15-328.62C77.45,14.14,82.12,4.37,96,0H288c1.13.46,2.26.93,3.39,1.38,8.67,3.44,13.92,9.71,14.71,19a178.18,178.18,0,0,1,.21,18.35c-.07,3.61-2.39,5.81-5.55,5.82s-5.44-2.19-5.56-5.8c-.17-5,0-10-.09-15-.13-8.06-4.62-12.52-12.61-12.54-9.35,0-18.71,0-28.62,0,0,3.34,0,6.41,0,9.48-.14,10.41-5.95,16.15-16.39,16.15q-45.57,0-91.12,0c-10.21,0-16.07-5.77-16.24-15.93,0-3.09,0-6.19,0-9.56-10.84,0-21.32-.29-31.77.12-5,.2-8.71,4.71-9.31,9.81a41.64,41.64,0,0,0-.17,4.87V346.5h4.62c9.37,0,18.75,0,28.12,0,4.38,0,6.89,2.13,6.87,5.64s-2.52,5.58-6.92,5.59c-10.73,0-21.46,0-32.12,0-1.84,8.64,3.12,15,11.62,15q90.93,0,181.87,0c8.32,0,12.82-5.55,11.89-15h-143c-5.75,0-8.46-1.78-8.52-5.56s2.72-5.69,8.39-5.69H295.14v-5.27q0-135.93,0-271.84a34.18,34.18,0,0,1,.18-4.86,5.49,5.49,0,0,1,10.85-.13,33.88,33.88,0,0,1,.22,5.24c0,95.23-.13,190.47.16,285.71,0,14.2-4.42,24.22-18.54,28.65ZM141.39,11.45c0,2.92,0,5.64,0,8.36,0,5.15.71,5.82,5.88,5.82h89.25c.75,0,1.71.28,2.22-.08,1.37-.95,3.45-2,3.63-3.31.5-3.5.17-7.12.17-10.8Z"/><path d="M160.19,176.69a131.48,131.48,0,0,0,46.43,46.41c2.1-2.91,4-5.55,5.89-8.14,4.41-5.86,10.68-7.12,16.81-3.13q14.13,9.21,28.05,18.72c5.5,3.75,6.89,10,3.61,15.84-2.38,4.24-4.84,8.47-7.53,12.51-6.66,10-17,10.5-27.4,10a61.78,61.78,0,0,1-27.38-8.34c-33-18.81-59.14-44.58-77-78.22-6.49-12.24-9.48-25.48-6.26-39.5a20.36,20.36,0,0,1,9.49-13.34c3.83-2.36,7.66-4.71,11.55-7,6.13-3.55,12.44-2.21,16.42,3.65q9.26,13.63,18.29,27.43c4.27,6.52,3.1,12.73-3.11,17.37C165.57,172.79,163,174.6,160.19,176.69ZM162.61,161l-19.55-29.28c-4,2.41-7.61,4.68-11.31,6.74-3.47,1.93-5.12,4.86-5.78,8.66-1.86,10.6.68,20.51,5.53,29.67,16.74,31.62,41.21,55.91,72.17,73.58,9.86,5.63,20.65,9.13,32.29,6.83,2.74-.54,5.9-2,7.6-4.06,3.12-3.79,5.31-8.36,8.07-12.89l-29.31-19.53c-2.17,3-4.08,5.73-6.15,8.37-4.06,5.18-9.59,6.61-15.28,3.39a130.62,130.62,0,0,1-50-49.91c-3.34-5.84-1.88-11.44,3.47-15.56C156.93,165,159.59,163.16,162.61,161Z"/><path d="M270.48,193.07c-.86,2-1.24,4.5-2.72,5.74-1.31,1.11-4.37,1.66-5.69.86a8,8,0,0,1-3.29-5.59c-.65-15.43-5.08-29.49-14.58-41.72-13.51-17.38-31.43-26.49-53.39-27.68-.62,0-1.25,0-1.87-.06-3.87-.23-6.08-2.35-6-5.71s2.43-5.54,6.27-5.48a81.63,81.63,0,0,1,27.12,4.93C247.67,129.82,269.18,159.7,270.48,193.07Z"/><path d="M191.11,147.5A47.34,47.34,0,0,1,235.81,193q.23,6.32-4.34,7.25c-3.33.68-6.1-1.27-6.69-4.86-.48-3-.54-6-1.21-8.88a35.71,35.71,0,0,0-32.41-27.67l-.74,0c-5.41-.43-7.79-2.45-7.46-6.3C183.27,148.8,185.92,147.19,191.11,147.5Z"/></g></g></svg>