<svg xmlns="http://www.w3.org/2000/svg" viewBox="0 0 384 384"><defs><style>.cls-1{fill:#fff;}</style></defs><title>89Asset 1tr</title><g id="Layer_2" data-name="Layer 2"><g id="Layer_1-2" data-name="Layer 1"><path class="cls-1" d="M0,384V0H384V384Zm86.81-86.85a9.59,9.59,0,0,1,.18,1.16c0,16.37,0,32.75.05,49.13.1,19.07,14.41,33.5,33.46,33.53q71.64.12,143.28-.05a35.55,35.55,0,0,0,11-1.83c13.94-4.71,22.27-17.06,22.27-32.6q0-94.51,0-189v-4.32h18c0,4.77.08,9.36,0,14-.1,4.23,1.67,7.27,5.48,9s7.29.86,10.26-2.11q23.47-23.47,46.93-47c4.62-4.64,4.61-9.48,0-14.13Q354.45,89.48,331,66.2c-3-3-6.51-4.24-10.55-2.42-3.83,1.72-5.47,4.89-5.43,9,.06,4.59,0,9.19,0,13.91h-18V82.45q0-22.32,0-44.63C297,17,283,3,262.28,3q-70.33,0-140.65,0a38.41,38.41,0,0,0-6,.32C98.43,6,87,19.34,87,36.88q0,94.7,0,189.4v4.45H69c0-4.73-.05-9.21,0-13.7.06-4.29-1.57-7.57-5.6-9.3s-7.51-.39-10.52,2.62Q29.74,233.59,6.52,256.78c-4.8,4.82-4.8,9.58,0,14.39q23.16,23.25,46.38,46.44c3,3.05,6.41,4.31,10.5,2.56S69.15,315.31,69,311c-.12-4.58,0-9.16,0-13.8Z"/><path d="M86.81,297.15H69c0,4.64-.09,9.22,0,13.8.11,4.36-1.64,7.51-5.66,9.22s-7.46.49-10.5-2.56Q29.74,294.35,6.5,271.17c-4.78-4.81-4.78-9.57,0-14.39q23.16-23.25,46.39-46.43c3-3,6.42-4.37,10.52-2.62s5.66,5,5.6,9.3c-.07,4.49,0,9,0,13.7H87v-4.45q0-94.69,0-189.4C87,19.34,98.43,6,115.65,3.28a38.41,38.41,0,0,1,6-.32q70.32,0,140.65,0C283,3,297,17,297.07,37.82q0,22.32,0,44.63v4.28h18c0-4.72,0-9.32,0-13.91,0-4.15,1.6-7.32,5.43-9,4-1.82,7.54-.6,10.55,2.42q23.34,23.34,46.67,46.69c4.62,4.65,4.63,9.49,0,14.13q-23.4,23.55-46.93,47c-3,3-6.4,3.84-10.26,2.11s-5.58-4.75-5.48-9c.11-4.59,0-9.18,0-14h-18v4.32q0,94.5,0,189c0,15.54-8.33,27.89-22.27,32.6a35.55,35.55,0,0,1-11,1.83q-71.64.18-143.28.05c-19,0-33.36-14.46-33.46-33.53-.09-16.38,0-32.76-.05-49.13A9.59,9.59,0,0,0,86.81,297.15ZM105.19,231c9.18,0,17.93-.09,26.67,0a9,9,0,1,1,0,17.92q-35.82.12-71.63,0c-5.2,0-8.58-3.34-9.21-8.51-.08-.64-.17-1.28-.18-1.39L26.19,263.63l24.75,24.76c.54-5.76,3.55-9.33,9.12-9.35q36-.14,72,0a9,9,0,0,1,0,17.9c-7.62.15-15.25,0-22.88.05h-4v17.79H278.82V153H274.5c-7.38,0-14.75.08-22.13,0-5.35-.08-9.2-3.86-9.29-8.82s3.85-8.94,9.37-9.13c1,0,2,0,3,0,21.63,0,43.25-.08,64.88.09,3.1,0,6.76.43,9.12,2.12s3.17,5.14,4.18,6.95l24.55-24.2-24.9-24.85c-1.06,7.58-3.73,9.88-12,9.88q-21.94,0-43.88,0c-8.38,0-16.75.11-25.13,0-6.68-.13-10.92-6.31-8.51-12.2,1.66-4.06,4.88-5.78,9.18-5.76,8.59,0,17.18,0,25.91,0V69.22H105.19Zm-.12-180.31h174V38.07C279.05,26.87,273.16,21,262,21H166c-15.26,0-30.51-.05-45.76,0-8.14,0-14.64,5.9-15.08,13.73C104.83,39.93,105.07,45.18,105.07,50.68Zm0,282.5V346c0,11,6,17,16.84,17q28.13,0,56.25,0,42.57,0,85.14,0c7.74,0,14-4.18,15.11-11.33.91-6,.18-12.31.18-18.47Z"/><path d="M201.05,249c0,5,0,9.44,0,13.92-.06,6.09-3.83,10.2-9.17,10.09s-8.76-4.13-8.82-10.07c0-4.48,0-9,0-13.93-3.44,0-6.65.09-9.85,0-14.38-.45-26.4-12.74-26.15-26.66A8.93,8.93,0,0,1,152,214c3-1.59,6.36-1.74,8.79.53a14.07,14.07,0,0,1,4.13,7.09c1.22,6.38,4,9.29,10.48,9.32,9.38,0,18.75.06,28.13,0,8.89-.06,15.49-6.43,15.56-14.86.06-8.59-6.61-15-15.68-15.13-9.49-.13-19.11.61-28.44-.67-17.39-2.39-29-17.56-27.81-34.78,1.16-17,15.17-30.07,32.63-30.54,1,0,1.95,0,3.3,0,0-4.79,0-9.25,0-13.72,0-6.18,3.63-10.26,9-10.27s9,4.08,9,10.25c0,4.37,0,8.74,0,13.75,3.4,0,6.72-.09,10,0,14.18.48,26.06,12.61,26,26.45,0,5.27-3.7,9.29-8.65,9.48-4.79.19-8.66-3.31-9.3-8.42-.85-6.78-3.84-9.52-10.54-9.54-9.25,0-18.5,0-27.75,0s-15.77,6.45-15.75,15,6.69,14.83,15.85,15c9.62.15,19.34-.51,28.81.76C226.6,186,238.28,201.6,237,218.59a33.13,33.13,0,0,1-31.68,30.35C204.05,249,202.81,249,201.05,249Z"/></g></g></svg>