<svg xmlns="http://www.w3.org/2000/svg" viewBox="0 0 384 384"><defs><style>.cls-1{fill:#fff;}</style></defs><title>89Asset 2connect</title><g id="Layer_2" data-name="Layer 2"><g id="Layer_1-2" data-name="Layer 1"><path class="cls-1" d="M0,384V0H384V384ZM331,201.16c3.38,3.43,7.28,7.44,11.22,11.4,4.58,4.6,7.16,4.62,11.68.13q7.19-7.14,14.32-14.31c5.29-5.29,5.3-7.53.09-12.74q-43.23-43.21-86.49-86.4c-1-1-2.59-1.53-4.58-2.67L351.79,22l-8.72-9a20,20,0,0,1-2.3,3.7q-36,36.12-72.11,72.15c-5.8,5.8-5.9,6.63-1.45,13.41-7.11,7.12-14.17,14.36-21.47,21.35a9,9,0,0,1-5.46,2.23c-12,.42-24,.43-36,.88-4.45.17-9.1,2.36-13.26,1.55-14-2.7-28.13-2.59-42.22-2.18-6,.17-10.27-1.42-14.26-5.94-5.6-6.32-11.89-12-17.83-17.94,4.54-6,4.41-7.66-.69-12.76Q79.72,53.14,43.38,16.82c-1-1-2-1.88-3.05-2.91l-8.6,8.64,73.54,73.5c-1,1-1.8,1.94-2.67,2.81q-43.74,43.76-87.5,87.51c-4.23,4.23-4.23,6.94-.06,11.13,4.84,4.88,9.72,9.73,14.58,14.59,5.26,5.26,7.48,5.27,12.74,0L54,200.45c4,4,7.62,7.64,11.21,11.29A22.77,22.77,0,0,1,72,227.92a34.74,34.74,0,0,0,10.69,25.17,51.86,51.86,0,0,0,5.25,4.06c-5.6,7.83-7,15.38-2,22.27,5.23,7.19,11,14.48,20.44,15.62,4.21,12.49,12.14,20.6,24.15,24.4,1.2,2.88,1.83,6.18,3.7,8.46a104.94,104.94,0,0,0,11.85,11.91,14.41,14.41,0,0,0,6.46,2.74c1.94.4,2.35,1.23,3,3a37.94,37.94,0,0,0,4.84,9.11c1.9,2.59,4.47,4.7,6.82,6.95,6.5,6.23,15.07,7.22,22.66,2.39,1.83-1.16,2.93-1,4.6.13,4.52,3,9.75,4.09,14.67,2,9.39-4,16.32-10.74,19.74-20.7a5,5,0,0,1,2.65-2.65c10.4-3.93,17.56-11,21.36-21.47a4.61,4.61,0,0,1,2.39-2.5,34,34,0,0,0,21.63-21.62,4,4,0,0,1,2.12-2.35c9.75-2.48,15.62-9.62,20.38-17.6,3-5.09,2.23-10.86-.67-16.13-.59-1.07-1.23-2.1-1.85-3.14a13.13,13.13,0,0,1,1.09-1.3c9.3-8.2,14.27-18.23,14.46-30.88a19.5,19.5,0,0,1,4.36-11.25C320.75,209.67,325.93,205.79,331,201.16Z"/><path d="M331,201.16c-5.05,4.63-10.23,8.51-14.23,13.36a19.5,19.5,0,0,0-4.36,11.25c-.19,12.65-5.16,22.68-14.46,30.88a13.13,13.13,0,0,0-1.09,1.3c.62,1,1.26,2.07,1.85,3.14,2.9,5.27,3.71,11,.67,16.13-4.76,8-10.63,15.12-20.38,17.6a4,4,0,0,0-2.12,2.35,34,34,0,0,1-21.63,21.62,4.61,4.61,0,0,0-2.39,2.5c-3.8,10.49-11,17.54-21.36,21.47a5,5,0,0,0-2.65,2.65c-3.42,10-10.35,16.69-19.74,20.7-4.92,2.09-10.15,1-14.67-2-1.67-1.12-2.77-1.29-4.6-.13-7.59,4.83-16.16,3.84-22.66-2.39-2.35-2.25-4.92-4.36-6.82-6.95a37.94,37.94,0,0,1-4.84-9.11c-.64-1.75-1.05-2.58-3-3a14.41,14.41,0,0,1-6.46-2.74A104.94,104.94,0,0,1,134.2,327.9c-1.87-2.28-2.5-5.58-3.7-8.46-12-3.8-19.94-11.91-24.15-24.4-9.48-1.14-15.21-8.43-20.44-15.62-5-6.89-3.57-14.44,2-22.27a51.86,51.86,0,0,1-5.25-4.06A34.74,34.74,0,0,1,72,227.92a22.77,22.77,0,0,0-6.75-16.18C61.66,208.09,58,204.47,54,200.45L42.36,212.11c-5.26,5.25-7.48,5.24-12.74,0-4.86-4.86-9.74-9.71-14.58-14.59-4.17-4.19-4.17-6.9.06-11.13q43.74-43.77,87.5-87.51c.87-.87,1.7-1.79,2.67-2.81L31.73,22.55l8.6-8.64c1.09,1,2.09,1.95,3.05,2.91q36.34,36.32,72.67,72.65c5.1,5.1,5.23,6.77.69,12.76,5.94,5.91,12.23,11.62,17.83,17.94,4,4.52,8.26,6.11,14.26,5.94,14.09-.41,28.19-.52,42.22,2.18,4.16.81,8.81-1.38,13.26-1.55,12-.45,24-.46,36-.88a9,9,0,0,0,5.46-2.23c7.3-7,14.36-14.23,21.47-21.35-4.45-6.78-4.35-7.61,1.45-13.41q36.07-36.06,72.11-72.15a20,20,0,0,0,2.3-3.7l8.72,9L277.22,96.57c2,1.14,3.55,1.64,4.58,2.67q43.29,43.15,86.49,86.4c5.21,5.21,5.2,7.45-.09,12.74q-7.15,7.16-14.32,14.31c-4.52,4.49-7.1,4.47-11.68-.13C338.26,208.6,334.36,204.59,331,201.16ZM180.14,275.82a18.32,18.32,0,0,1,1.63.91c7.46,5.48,15.06,10.85,17.12,20.8.12.59.77,1.49,1.24,1.54,8.07.79,12.38,7,17.49,12A16.7,16.7,0,0,1,222.89,325c-.21,2.34,0,4.71,2.42,5.12a11.34,11.34,0,0,0,6.85-1c2.21-1.2,3.82-3.53,5.67-5.39,4.34-4.39,4.37-7.07,0-11.41q-20.53-20.56-41.09-41.11c-.95-.94-1.85-1.93-2.8-2.93l8.34-8.4c1.05,1,2.05,1.92,3,2.88L244.57,302c6.83,6.83,8.16,6.83,14.87.13l2.38-2.39c4.36-4.41,4.4-7.08.07-11.41q-20.53-20.56-41.09-41.11c-1-.94-1.85-1.94-2.24-2.34,2.77-3.1,5.31-5.93,8.4-9.37a27.05,27.05,0,0,0,2.38,3.21q20.37,20.46,40.82,40.85c4.68,4.67,7.19,4.64,11.95-.1l3.44-3.45c4.74-4.76,4.78-7.28.11-11.95q-45.47-45.48-91-90.94c-.85-.85-1.77-1.62-2.83-2.58-6.5,6.53-12.7,12.88-19,19.09-9.74,9.57-24.12,9.69-33.22.38a22.56,22.56,0,0,1,1.18-33.08c6.91-6.24,14.83-11.35,22.3-17,.71-.53,1.44-1,2.84-2-9.38,0-17.87.2-26.34-.14a12.3,12.3,0,0,1-6.87-2.87c-2.32-1.94-3.93-4.73-5.32-6.47L63,192.89c3.32,3.19,7.07,6.67,10.67,10.3,6.43,6.48,10.16,14.34,10.19,23.46,0,9.83,4.84,16.68,12.45,22.7,5.67-5.72,11.19-11.48,16.91-17,6.9-6.7,17.2-7.36,24.15-1.19,4.8,4.27,9,9.26,13.9,14.45,6.91-1.93,13.65.25,19.21,6.34,1.1,1.19,2.24,2.35,3.45,3.44C180.05,260.88,182.33,267.58,180.14,275.82Zm77.35-147c-1.49,1.57-3.31,3.26-4.86,5.17-2.6,3.2-5.82,4.18-9.89,4.08-9.24-.23-18.5-.22-27.74,0q-38,.8-65.52,27.07c-5.42,5.18-5.87,11.85-1.24,16.55s11.24,4.34,16.59-1c6.92-6.87,13.79-13.78,20.68-20.67,5.47-5.46,7.59-5.48,13-.07l86.42,86.39c1,1,2.08,2,3.09,2.95,6.72-5.68,12-11.76,12-20.7a35.78,35.78,0,0,1,11.63-26.67c3.32-3.16,6.65-6.31,9.72-9.21C299.85,171.14,278.86,150.16,257.49,128.78Zm-222,71.75,80.78-80.74c-2.59-2.69-5.5-5.72-8.13-8.44l-81,81Zm321.37-8.38L276,111.36l-8.24,8.44,80.58,80.53Zm-187.5,78.17c-.64-1.57-.86-3.06-1.7-4a79.25,79.25,0,0,0-7.94-7.93c-2.65-2.22-5.65-1.9-8.11.54q-15.42,15.3-30.72,30.75c-2.62,2.65-2.51,5.91,0,8.69,2,2.2,4.17,4.3,6.35,6.36,3.2,3,6.34,3.06,9.52-.09q15-14.89,29.92-30C167.9,273.52,168.5,271.82,169.38,270.32Zm-61.2,13c1.47-.77,3-1.18,4-2.15,8.45-8.32,16.86-16.67,25.14-25.15,2.42-2.47,2.35-5.5.05-8.1a98.29,98.29,0,0,0-7.12-7.17c-2.62-2.41-5.86-2.51-8.39,0q-12.69,12.47-25.14,25.16c-2.42,2.48-2.36,5.49,0,8.09a89.09,89.09,0,0,0,7.42,7.38C105.13,282.3,106.68,282.65,108.18,283.35Zm79.16,17c-.57-1.57-.68-2.85-1.37-3.6a87.2,87.2,0,0,0-8.75-8.66c-2.38-1.92-5.26-1.43-7.48.77-8.33,8.26-16.65,16.53-24.87,24.9-2.59,2.64-2.44,5.91.14,8.69,2,2.19,4.17,4.3,6.35,6.35,3.2,3,6.3,3,9.51-.17q12-11.83,23.8-23.85C185.89,303.52,186.54,301.71,187.34,300.33Zm-7.28,55.05c1.56-.81,3.23-1.26,4.3-2.31q12.55-12.31,24.88-24.87c2.5-2.54,2.42-5.77,0-8.4-2.18-2.4-4.48-4.7-6.86-6.9-2.76-2.55-6-2.64-8.69,0q-12.54,12.35-24.87,24.89c-2.49,2.54-2.43,5.78,0,8.4a100.2,100.2,0,0,0,7.17,7.11C177,354.22,178.54,354.63,180.06,355.38Zm21.15-1c7.3,2.24,9.49-4.46,13.51-7.63a5.44,5.44,0,0,0,1.61-7.28Z"/></g></g></svg>