<svg xmlns="http://www.w3.org/2000/svg" viewBox="0 0 500 331.99"><defs><style>.cls-1{fill:#ebebeb;}.cls-2{fill:#e0e0e0;}.cls-10,.cls-15,.cls-16,.cls-20,.cls-25,.cls-28,.cls-3,.cls-33,.cls-6{fill:#fff;}.cls-4{fill:#f5f5f5;}.cls-5{fill:#407bff;}.cls-18,.cls-19,.cls-6{opacity:0.4;}.cls-7{fill:#7f3e3b;}.cls-8{fill:#263238;}.cls-15,.cls-9{opacity:0.3;}.cls-10,.cls-14{opacity:0.6;}.cls-11,.cls-33{opacity:0.1;}.cls-12{fill:#630f0f;}.cls-13{fill:#2e353a;}.cls-16{opacity:0.7;}.cls-17,.cls-21,.cls-25,.cls-31,.cls-34{opacity:0.2;}.cls-20{opacity:0.8;}.cls-22{fill:#ce7a63;}.cls-23{opacity:0.5;}.cls-24{fill:#ba4d3c;}.cls-26,.cls-28{opacity:0.9;}.cls-27{fill:#ff8b7b;}.cls-29{fill:#ff5652;}.cls-30{fill:#ffb573;}.cls-31,.cls-34{isolation:isolate;}.cls-32{fill:#ed893e;}</style></defs><title>89Asset 1logo 4</title><g id="Layer_2" data-name="Layer 2"><g id="Background_Complete" data-name="Background Complete"><rect class="cls-1" x="416.78" y="306.77" width="33.12" height="0.25"/><rect class="cls-1" x="322.53" y="309.48" width="8.69" height="0.25"/><rect class="cls-1" x="396.59" y="297.48" width="19.19" height="0.25"/><rect class="cls-1" x="131.47" y="303.38" width="93.68" height="0.25"/><rect class="cls-1" y="290.67" width="500" height="0.25"/><path class="cls-2" d="M406.78,73.08H367.24a6.8,6.8,0,0,0-6.8,6.81v25.46a6.8,6.8,0,0,0,6.8,6.81h11.37l5.08,6.64a4.18,4.18,0,0,0,6.64,0l5.08-6.64h11.37a6.8,6.8,0,0,0,6.8-6.81V79.89A6.8,6.8,0,0,0,406.78,73.08Z"/><path class="cls-3" d="M378.51,95.34a8.49,8.49,0,0,1-2.83-6,5.11,5.11,0,0,1,5.44-5.4c3.06,0,4.1,1.41,5.89,3.46,1.79-2,2.83-3.46,5.89-3.46a5.11,5.11,0,0,1,5.44,5.4,8.49,8.49,0,0,1-2.83,6L387,103.8Z"/><path class="cls-2" d="M100.86,273.29a10,10,0,0,1-3.34-7,6,6,0,0,1,6.41-6.36c3.6,0,4.83,1.67,6.94,4.08,2.11-2.41,3.34-4.08,6.94-4.08a6,6,0,0,1,6.41,6.36,10,10,0,0,1-3.34,7l-10,10Z"/><path class="cls-1" d="M123.47,284.54a6.13,6.13,0,0,1-2-4.3,3.69,3.69,0,0,1,3.92-3.89c2.2,0,3,1,4.24,2.5,1.29-1.48,2-2.5,4.24-2.5a3.69,3.69,0,0,1,3.92,3.89,6.13,6.13,0,0,1-2,4.3l-6.12,6.09Z"/><path class="cls-4" d="M380.22.55H334.86a7.81,7.81,0,0,0-7.81,7.81V37.58a7.81,7.81,0,0,0,7.81,7.81h13.05L353.73,53a4.8,4.8,0,0,0,7.62,0l5.83-7.62h13A7.81,7.81,0,0,0,388,37.58V8.36A7.81,7.81,0,0,0,380.22.55Z"/><polygon class="cls-2" points="343.3 34.72 348.44 34.72 348.44 16.45 342.44 16.45 343.3 34.72"/><path class="cls-2" d="M372.27,19.3c-.26-.81-1.08-2.5-1.86-2.85-2.25-1-7.18-.69-11.54-.11.18-.35.33-.66.42-.89a13.2,13.2,0,0,0,.91-4.12c-.07-1-.52-3.12-1.33-3.63-.44-.28-1.71-.38-2.06,0-.87.9-.27,3.76-.61,5a18.21,18.21,0,0,1-3,4.58c-1.53.28-2.5.49-2.5.49V33.86s13.17,3.59,17.41,2.43c1.63-.45,2.4-3.27,3-4.86C372.2,28.59,373.2,22.19,372.27,19.3Z"/><path class="cls-1" d="M265.5,25.93a11.43,11.43,0,0,0-11.39-10.51h-8.22A11.43,11.43,0,0,0,234.5,25.93l-.69,7h32.38Z"/><circle class="cls-1" cx="250" cy="7.71" r="7.71"/></g><g id="Shadow"><ellipse id="_Path_" data-name="&lt;Path&gt;" class="cls-4" cx="250" cy="320.66" rx="193.89" ry="11.32"/></g><g id="Character_4" data-name="Character 4"><path class="cls-5" d="M346.86,180.36h75.69a10.52,10.52,0,0,1,10.52,10.52v57.53a10.52,10.52,0,0,1-10.52,10.52H365.4A18.6,18.6,0,0,1,347,275.26c-.42,0-.83,0-1.25-.06,3-3.89,5.37-9.54,6.95-16.27h-5.79a10.52,10.52,0,0,1-10.52-10.52V190.88A10.52,10.52,0,0,1,346.86,180.36Z"/><path class="cls-6" d="M346.86,180.36h75.69a10.52,10.52,0,0,1,10.52,10.52v57.53a10.52,10.52,0,0,1-10.52,10.52H365.4A18.6,18.6,0,0,1,347,275.26c-.42,0-.83,0-1.25-.06,3-3.89,5.37-9.54,6.95-16.27h-5.79a10.52,10.52,0,0,1-10.52-10.52V190.88A10.52,10.52,0,0,1,346.86,180.36Z"/><path class="cls-7" d="M343.28,202.73l-3.74-6.33,2.34-4a2,2,0,0,0,.14-1.74l-.18-.45a2,2,0,0,0-1.83-1.3l-3.67-.1a2,2,0,0,0-1.83,1.05l-.74,1.36a2.39,2.39,0,0,0-.07,2.15l1.58,3.41,2.93,7.85Z"/><path class="cls-5" d="M373.07,201.62,351.7,217.17l-10-18.77-5.7,2.46s8.79,28.46,13.9,27.32,19.53-8.28,24.22-13.18c2.37-2.47,4.17-7,1.83-12.6A1.89,1.89,0,0,0,373.07,201.62Z"/><path class="cls-8" d="M381.05,164.6s-7.54,2-4.05,11.08c0,0,3.76-1,4.37-3.42s1.19-5.84,1.19-5.84Z"/><path class="cls-9" d="M381.05,164.6s-7.54,2-4.05,11.08c0,0,3.76-1,4.37-3.42s1.19-5.84,1.19-5.84Z"/><polygon class="cls-7" points="398.88 200.72 385.1 200.27 379.4 201.09 378.62 211.48 389.73 215.18 401.58 212.82 402.2 202.8 401.35 200.8 398.88 200.72"/><path class="cls-5" d="M380.12,258.93h19.5c.19-6.87,1.21-42.53,1-42.32s2.06-7.6,2.06-7.6v-3.17l-2.06-3.4s-4.42,6.75-11.7,6.41c-6.9-.32-8.09-7.2-8.09-7.2L380,212.18l-.87,25.49,1.11,10.8Z"/><path class="cls-10" d="M380.12,258.93h19.5c.19-6.87,1.21-42.53,1-42.32s2.06-7.6,2.06-7.6v-3.17l-2.06-3.4s-4.42,6.75-11.7,6.41c-6.9-.32-8.09-7.2-8.09-7.2L380,212.18l-.87,25.49,1.11,10.8Z"/><path class="cls-8" d="M372.36,258.93h10.56C385,245.17,385.28,220,385.28,220a130.11,130.11,0,0,1-2.95-14.63c-.64-5.76,7.6-5,14.8-4s-5.6,19.16-5.6,19.16-.91,24.61,1.2,38.44h26c-1.3-3.66-5.14-14.94-6-22.92-1.11-9.66,5.54-23.75,4.59-30.63s-23.74-5.47-23.74-5.47-14.59-.1-17.84.05c-3.8.17-5.32,10.18-7.12,18.09s1.51,15.74,3.32,25.69A51,51,0,0,1,372.36,258.93Z"/><path class="cls-5" d="M384,199.88c4.74,0,9.63,0,9.63,0s2.91-.18,6.69-.09c1.51,1,3.5,3.41,1.92,8.48l-3.3,1.26.6,3.25s-3.8,6-8,8.31c0-.41,0-.63,0-.63s12.81-18.21,5.6-19.16-15.44-1.71-14.8,4A130.11,130.11,0,0,0,385.28,220s0,.1,0,.27c-2-1.81-3.75-5-5-8.82l1.35-3.74-3-1.64A8,8,0,0,1,384,199.88Z"/><path class="cls-7" d="M383.8,205.34a3.45,3.45,0,0,1,.3-3.3c5.42-1.84,4.92-5.91,3.67-9.68l8.73-8.91c-.51,4.75-.7,15.65,2.4,19.45v.87a11.86,11.86,0,0,1-11.65,4.34A4.56,4.56,0,0,1,383.8,205.34Z"/><path class="cls-11" d="M387.77,192.36l6.94-7.08,1.6.58c-.05.85-.08,1.78-.09,2.76-.88,1.8-3,4.33-7.92,5.6A18.53,18.53,0,0,0,387.77,192.36Z"/><path class="cls-7" d="M401,175.59c-2.11,8.07-2.83,11.53-7.78,14.91-7.44,5.09-16.89.74-17.24-7.8-.31-7.69,3.18-19.59,11.82-21.27A11.38,11.38,0,0,1,401,175.59Z"/><path class="cls-12" d="M381.77,177.68a18.38,18.38,0,0,1-3.2,3.78,2.9,2.9,0,0,0,2.27.92Z"/><path class="cls-8" d="M390.38,174.7a.33.33,0,0,0,.16,0,.32.32,0,0,0,.11-.45h0a3.85,3.85,0,0,0-3-1.94.34.34,0,0,0-.34.32.32.32,0,0,0,.31.34,3.24,3.24,0,0,1,2.46,1.62A.34.34,0,0,0,390.38,174.7Z"/><path class="cls-8" d="M377,172.26a.3.3,0,0,0,.16,0,3.23,3.23,0,0,1,2.93-.19.33.33,0,0,0,.45-.14h0a.34.34,0,0,0-.15-.45,3.9,3.9,0,0,0-3.56.2.34.34,0,0,0-.14.45.35.35,0,0,0,.31.18Z"/><path class="cls-8" d="M384.22,184.59a6.38,6.38,0,0,1-1.15-.1.2.2,0,0,1-.17-.23h0a.2.2,0,0,1,.23-.16,5.51,5.51,0,0,0,4.77-1.34.21.21,0,0,1,.3.28A5.7,5.7,0,0,1,384.22,184.59Z"/><path class="cls-8" d="M398.23,181.9a10.23,10.23,0,0,1-2.45-8.2s-3.25-3.32-3.09-6.89c0,0-1,2.84,0,4.87,0,0-8.43-.62-8.23-4.87,0,0-.56,2.14.71,3.25,0,0-7.49.32-6.47-3.56s6.88-5.78,6.88-5.78,5.59-4.75,13.32,3.64c0,0,9.1,5.68,2.65,15.16Z"/><path class="cls-7" d="M401.61,182.43a6.09,6.09,0,0,1-3.58,3c-2,.61-3.11-1.21-2.58-3.16.48-1.76,2.12-4.2,4.2-4a2.75,2.75,0,0,1,2.32,3.12A2.65,2.65,0,0,1,401.61,182.43Z"/><path class="cls-13" d="M387.84,176.52c-.08.7-.51,1.22-1,1.18s-.76-.65-.68-1.35.5-1.22.95-1.18S387.91,175.82,387.84,176.52Z"/><path class="cls-13" d="M380,175.7c-.07.69-.5,1.22-.95,1.17s-.77-.64-.7-1.35.5-1.22,1-1.17S380,175,380,175.7Z"/><path class="cls-13" d="M379.45,174.41l-1.62-.66S378.55,175.15,379.45,174.41Z"/><path class="cls-13" d="M387.34,175.23l-1.63-.65S386.44,176,387.34,175.23Z"/><path class="cls-5" d="M397.53,189.19a2.7,2.7,0,0,0,2-4.53l-.35.32a2.29,2.29,0,1,1-.73-.52l.19-.44a2.74,2.74,0,0,0-1.1-.23,2.7,2.7,0,1,0,0,5.4Z"/><g class="cls-14"><path class="cls-3" d="M397.53,189.19a2.7,2.7,0,0,0,2-4.53l-.35.32a2.29,2.29,0,1,1-.73-.52l.19-.44a2.74,2.74,0,0,0-1.1-.23,2.7,2.7,0,1,0,0,5.4Z"/></g><path class="cls-7" d="M395.67,230l-7.34.32-2.46-4a2,2,0,0,0-1.47-.94l-.48-.07a2,2,0,0,0-2,1l-1.82,3.19a2,2,0,0,0,.07,2.11L381,233a2.37,2.37,0,0,0,1.86,1.07l3.75.21,8.3,1.12Z"/><path class="cls-5" d="M408.72,203.23l3.65,26.17H391.08l-.51,6.19s29.25,5.66,30.64.62,1.9-21.13-.2-27.58c-1.07-3.25-4.21-7-10.25-7.55A1.89,1.89,0,0,0,408.72,203.23Z"/></g><g id="Device"><path class="cls-8" d="M315.69,52.29H292.32L268.76,321.67h23.37a21.84,21.84,0,0,0,21.33-19.61L333.59,71.91A17.68,17.68,0,0,0,315.69,52.29Z"/><path class="cls-5" d="M330.17,79.31a2.09,2.09,0,0,1,2-1.88,1.7,1.7,0,0,1,1.72,1.88l-1.58,18a2.1,2.1,0,0,1-2.05,1.88,1.7,1.7,0,0,1-1.71-1.88Z"/><path class="cls-15" d="M330.17,79.31a2.09,2.09,0,0,1,2-1.88,1.7,1.7,0,0,1,1.72,1.88l-1.58,18a2.1,2.1,0,0,1-2.05,1.88,1.7,1.7,0,0,1-1.71-1.88Z"/><path class="cls-5" d="M287.34,321.67H191.05a17.69,17.69,0,0,1-17.9-19.61L193.29,71.91a21.82,21.82,0,0,1,21.33-19.62h96.29a17.69,17.69,0,0,1,17.9,19.62L308.67,302.06A21.84,21.84,0,0,1,287.34,321.67Z"/><path class="cls-5" d="M310.52,56.79h-25A3.63,3.63,0,0,0,282,59.64l-.17.78a8.89,8.89,0,0,1-8.5,7H249.55a7.14,7.14,0,0,1-7.28-7l0-.78a2.92,2.92,0,0,0-3-2.85h-25a16.83,16.83,0,0,0-16.43,15.12L177.65,302.06a13.63,13.63,0,0,0,13.79,15.11h96.3a16.83,16.83,0,0,0,16.43-15.11L324.31,71.91A13.63,13.63,0,0,0,310.52,56.79Z"/><path class="cls-16" d="M310.52,56.79h-25A3.63,3.63,0,0,0,282,59.64l-.17.78a8.89,8.89,0,0,1-8.5,7H249.55a7.14,7.14,0,0,1-7.28-7l0-.78a2.92,2.92,0,0,0-3-2.85h-25a16.83,16.83,0,0,0-16.43,15.12L177.65,302.06a13.63,13.63,0,0,0,13.79,15.11h96.3a16.83,16.83,0,0,0,16.43-15.11L324.31,71.91A13.63,13.63,0,0,0,310.52,56.79Z"/><g class="cls-17"><ellipse cx="254.41" cy="59.34" rx="2" ry="1.83" transform="translate(29.59 192.39) rotate(-43.75)"/><path d="M270.05,57.43h-6.56a2.13,2.13,0,0,0-2.08,1.91,1.72,1.72,0,0,0,1.75,1.91h6.56a2.13,2.13,0,0,0,2.08-1.91A1.72,1.72,0,0,0,270.05,57.43Z"/></g><polygon class="cls-5" points="208.67 67.33 210.69 67.33 210.87 65.3 208.84 65.3 208.67 67.33"/><polygon class="cls-5" points="212.9 65.3 212.72 67.33 214.74 67.33 214.92 65.3 215.1 63.28 213.07 63.28 212.9 65.3"/><polygon class="cls-5" points="217.3 61.25 217.12 63.28 216.94 65.3 216.77 67.33 218.79 67.33 218.97 65.3 219.15 63.28 219.32 61.25 217.3 61.25"/><path class="cls-5" d="M304.37,61.39l-.13,1.48h-1l-.26,3h1l-.13,1.49h8.91l.52-5.94Zm3.57,4.45h-3l.26-3h3Z"/><g class="cls-18"><path class="cls-3" d="M249.62,67.37,183.15,314.53a14,14,0,0,0,8.29,2.64h5.2l67.18-249.8Z"/><path class="cls-3" d="M310.52,56.79h-25A3.63,3.63,0,0,0,282,59.64l-.17.78a8.88,8.88,0,0,1-8.19,6.93L206.46,317.17h51.25l66.6-247.65A13.56,13.56,0,0,0,310.52,56.79Z"/></g></g><g id="Character_3" data-name="Character 3"><path class="cls-5" d="M209.91,123.88l-3-.66a1.35,1.35,0,0,1-1-1.81l4.19-10.94,4.79,1-3.41,11.43A1.36,1.36,0,0,1,209.91,123.88Z"/><path class="cls-5" d="M221.53,109.87h0a1.53,1.53,0,0,1-1.17-1.83l.4-1.87A1.55,1.55,0,0,1,222.6,105h0a1.54,1.54,0,0,1,1.18,1.83l-.41,1.88A1.54,1.54,0,0,1,221.53,109.87Z"/><path class="cls-5" d="M218.57,100.56s-11.4-1.3-15.39-3.35c-9.38-4.82-18.35-16.32-20.25-16.73-3.1-.67-7.32,6.66-9.44,16.39s-1.32,18.15,1.78,18.83c1.91.41,14.83-6.33,25.37-6.81,4.48-.21,15.39,3.34,15.39,3.34Z"/><path class="cls-15" d="M218.57,100.56s-11.4-1.3-15.39-3.35c-9.38-4.82-18.35-16.32-20.25-16.73-3.1-.67-7.32,6.66-9.44,16.39s-1.32,18.15,1.78,18.83c1.91.41,14.83-6.33,25.37-6.81,4.48-.21,15.39,3.34,15.39,3.34Z"/><path class="cls-5" d="M184.71,99.31c-2.11,9.72-6.34,17.06-9.44,16.39s-3.89-9.11-1.78-18.83,6.34-17.06,9.44-16.39S186.83,89.58,184.71,99.31Z"/><path class="cls-19" d="M184.71,99.31c-2.11,9.72-6.34,17.06-9.44,16.39s-3.89-9.11-1.78-18.83,6.34-17.06,9.44-16.39S186.83,89.58,184.71,99.31Z"/><path class="cls-8" d="M216.72,99.23l-5.29-1.15a2.54,2.54,0,0,0-3.06,2.11c-.19,1.33-.43,2.7-.73,4.1s-.66,2.75-1,4a2.54,2.54,0,0,0,1.91,3.19l6.27,1.36c3.76.82,6.47-1.82,7.23-5.61A6.86,6.86,0,0,0,216.72,99.23Z"/><path class="cls-8" d="M179.27,97.33l-.33,1.52a1.87,1.87,0,0,0,1.11,2.13l3.84,1.6c.3-1.06.58-2.15.82-3.27s.45-2.23.62-3.31l-4.17-.15A1.87,1.87,0,0,0,179.27,97.33Z"/><path class="cls-20" d="M179.27,97.33l-.33,1.52a1.87,1.87,0,0,0,1.11,2.13l3.84,1.6c.3-1.06.58-2.15.82-3.27s.45-2.23.62-3.31l-4.17-.15A1.87,1.87,0,0,0,179.27,97.33Z"/><path class="cls-21" d="M182.17,98.76c-.21,1-.44,1.9-.69,2.81l2.41,1c.3-1.06.58-2.15.82-3.27s.45-2.23.62-3.31l-2.62-.09Q182.49,97.31,182.17,98.76Z"/><path class="cls-8" d="M274.56,99.36a6.49,6.49,0,0,0,5.85-.63c3.07-2,8.83.52,7.09,8.7-3,14.08-9.26,24.19-5.2,28.45,0,0-13.52.62-11.52-11.32,1.5-9,11.67-19.12,9.22-21.14-.82-.68-2-.33-5.85-.33Z"/><path class="cls-5" d="M274.15,103.09a18.18,18.18,0,0,1,5.49.66,13.77,13.77,0,0,0,.72-5.64,30.34,30.34,0,0,0-5.8,1.25Z"/><path class="cls-8" d="M261.42,89.09s-5.62-1.6-1.91-5.23c4.84-4.73,11.72,4.13,11.72,4.13s16.13,7.05,2.82,23.4c0,0-4.81,8.6-5.81,5.26s5.68-12.85,5.68-12.85l-.4-8.5L271.67,92l-5.81-3.31Z"/><path class="cls-22" d="M239.13,137a5.57,5.57,0,0,0-7.65-1.84l-.08.05c-1.75,1.07-3.61,2.27-5.45,3.36l-5.55,3.33c-2.6,1.54-5.22,3-7.84,4.45a51.34,51.34,0,0,1-.1-6c.07-2.34.24-4.72.42-7.12s.42-4.83.62-7.21v-.06a2.77,2.77,0,0,0-5.37-1.19c-.89,2.41-1.59,4.79-2.29,7.22s-1.23,4.91-1.7,7.45a45.78,45.78,0,0,0-.84,8,16.57,16.57,0,0,0,.65,5,7.94,7.94,0,0,0,2.4,3.75,6.86,6.86,0,0,0,3,1.47,7.47,7.47,0,0,0,2.92,0,3.5,3.5,0,0,0,.68-.2l.33-.14c2.13-.87,4.25-1.76,6.31-2.75s4.12-2,6.13-3.06,4-2.18,6-3.35,3.86-2.33,5.83-3.7A5.58,5.58,0,0,0,239.13,137Z"/><path class="cls-5" d="M244,129.68c3.37,6.79-1.48,12.69-10.37,22.12a26.66,26.66,0,0,1-9.21-14.8S234.7,128.51,244,129.68Z"/><path class="cls-21" d="M244.35,137.74c-3.29-2-7-2.9-9.57.37a40.25,40.25,0,0,1-6.92,7.08,28.35,28.35,0,0,0,5.8,6.61C239,146.17,242.82,141.8,244.35,137.74Z"/><path class="cls-22" d="M211,113.24l2.28,1.51a3.16,3.16,0,0,1,1.43,2.54l.18,4.81a6,6,0,0,1-2.32,4.93l-.95.73c-4-2.24-6.59-7.59-6.59-7.59l-.92-1.44a2.65,2.65,0,0,1,.73-3.7l2.82-1.85A3.07,3.07,0,0,1,211,113.24Z"/><path class="cls-8" d="M236.19,317.17c5.18-16,8.72-33.77,5.2-46.74,21.4-62.86,11.75-81.15,11.75-81.15L227.67,180s-3.64,56.62-4.74,84c-.61,15.32-3.22,35.22-6.23,53.2Z"/><path class="cls-23" d="M249.4,212.53l-5.17-8.33-3.16,6.5a199.76,199.76,0,0,0,2.32,53.69,281.66,281.66,0,0,0,9.74-37.83Z"/><path class="cls-8" d="M251.84,317.17h19.31c2-16.62,2-34.51-3.9-46.48,9-65.79-4-81.9-4-81.9l-26.78-4.24s7.27,56.26,11.44,83.34C250.06,281.9,251.28,300.09,251.84,317.17Z"/><path class="cls-5" d="M232.08,142.33a111,111,0,0,0-2.4,14.77c-.86,7.25-1.49,14.41-2.32,26.39l36.26,5.74c.89-10.33,3.92-21.78,14.07-43.73a8.57,8.57,0,0,0-5.5-12.14c-1.41-.37-2.91-.73-4.46-1.05a117.16,117.16,0,0,0-16.47-2.61c-1.81-.12-3.7-.19-5.51-.22C239.21,129.35,233.29,136,232.08,142.33Z"/><path class="cls-22" d="M269.5,113.59c-2.27,5.07-5.56,14.49-2.68,18.57,0,0-4.9-1.55-16.59,3.36-2.39-4.92.13-6,.13-6,6.23-.46,7.1-4.82,7-9Z"/><path class="cls-3" d="M252.68,134.54a4.68,4.68,0,0,1,2.76,2.73,3.52,3.52,0,0,0,5,1.63c3-1.69,6.78-4.1,8.67-6.23a35.49,35.49,0,0,1-2.77-2.45S255.05,132.84,252.68,134.54Z"/><path class="cls-3" d="M249.43,133.45a5.38,5.38,0,0,0-2.36,1.05,1.13,1.13,0,0,1-1.74-1.26c1.25-3.54,3.41-4,3.41-4a4.52,4.52,0,0,1,3.24.05A3.79,3.79,0,0,0,249.43,133.45Z"/><path class="cls-21" d="M264.56,116.41l-7.16,4.1a16.24,16.24,0,0,1-.18,3c2.34,0,6-1.92,6.8-4.22A8,8,0,0,0,264.56,116.41Z"/><path class="cls-22" d="M275.71,103.67c-3,8.3-4,11.86-9.57,15.19-8.31,5-17.88.15-17.47-8.72.38-8,5.16-20.22,14.42-21.64A11.28,11.28,0,0,1,275.71,103.67Z"/><path class="cls-8" d="M264.56,103.37c-.22.7-.76,1.19-1.22,1.08s-.65-.77-.44-1.47.77-1.2,1.23-1.09S264.78,102.66,264.56,103.37Z"/><path class="cls-8" d="M255.71,101c-.22.71-.77,1.19-1.23,1.09s-.65-.77-.43-1.48.77-1.19,1.23-1.09S255.93,100.29,255.71,101Z"/><path class="cls-8" d="M255.47,99.61l-1.54-.88S254.39,100.26,255.47,99.61Z"/><path class="cls-24" d="M258.28,102.46a21.86,21.86,0,0,1-3.9,3.93,3,3,0,0,0,2.36,1.06Z"/><path class="cls-8" d="M267.25,99.24a.37.37,0,0,1-.28-.17,3.16,3.16,0,0,0-2.6-1.5.4.4,0,0,1-.42-.41.47.47,0,0,1,.45-.44,3.92,3.92,0,0,1,3.31,1.85.46.46,0,0,1-.46.67Z"/><path class="cls-8" d="M253.81,95.07a.41.41,0,0,1-.22-.23.43.43,0,0,1,.27-.54,4.51,4.51,0,0,1,4,.25.38.38,0,0,1,.08.57.46.46,0,0,1-.61.11,3.66,3.66,0,0,0-3.18-.16A.44.44,0,0,1,253.81,95.07Z"/><path class="cls-8" d="M264.32,102l-1.53-.89S263.24,102.62,264.32,102Z"/><path class="cls-8" d="M231.34,169.58H222.7a1.94,1.94,0,0,1-1.8-1.47l-4-18.72a1.15,1.15,0,0,1,1.16-1.48h8.64a1.94,1.94,0,0,1,1.8,1.48l4,18.72A1.16,1.16,0,0,1,231.34,169.58Z"/><path class="cls-8" d="M230.34,169.58H221.7a1.94,1.94,0,0,1-1.8-1.47l-4-18.72a1.15,1.15,0,0,1,1.16-1.48h8.64a1.94,1.94,0,0,1,1.8,1.48l4,18.72A1.16,1.16,0,0,1,230.34,169.58Z"/><path class="cls-25" d="M230.34,169.58H221.7a1.94,1.94,0,0,1-1.8-1.47l-4-18.72a1.15,1.15,0,0,1,1.16-1.48h8.64a1.94,1.94,0,0,1,1.8,1.48l4,18.72A1.16,1.16,0,0,1,230.34,169.58Z"/><path class="cls-22" d="M227.24,158.56l2.68-.6a3.19,3.19,0,0,1,2.82.74l3.58,3.22a6,6,0,0,1,1.93,5.1l-.14,1.18c-4.37,1.29-10-.53-10-.53l-1.68-.34a2.65,2.65,0,0,1-2.15-3.1l.63-3.32A3,3,0,0,1,227.24,158.56Z"/><path class="cls-22" d="M273.33,139.08a5.56,5.56,0,0,0-6.06,5v.17c-.1,1-.23,2.22-.36,3.35s-.29,2.31-.46,3.46c-.34,2.3-.75,4.58-1.21,6.85s-1,4.47-1.65,6.64c-.53,1.75-1.14,3.42-1.79,5.06a11.8,11.8,0,0,1-2.41-.15,54.21,54.21,0,0,1-7.64-1.69c-2.35-.74-4.72-1.6-7.09-2.49s-4.76-1.87-7.09-2.81l-.06,0a2.77,2.77,0,0,0-2.69,4.8c2.2,1.62,4.42,3,6.71,4.45s4.66,2.67,7.13,3.85a56.11,56.11,0,0,0,8.8,3,20.59,20.59,0,0,0,5,.71,10.74,10.74,0,0,0,3.34-.48,8.4,8.4,0,0,0,3.92-2.58,5.19,5.19,0,0,0,.48-.71l.1-.18a57.52,57.52,0,0,0,3.36-7.4A72,72,0,0,0,276,160.4c.65-2.54,1.15-5.09,1.56-7.65.19-1.28.36-2.57.51-3.86s.26-2.54.33-4A5.57,5.57,0,0,0,273.33,139.08Z"/><path class="cls-5" d="M275,134.66c6.18,4.37,6.48,10.91,3.14,23.44-4.47,2.24-15.33-.6-15.33-.6S266.23,138.06,275,134.66Z"/><path class="cls-8" d="M252.76,109.84s3-.58,11.15-.33c-1,2.44-2.88,4.37-7.09,4.24a3.82,3.82,0,0,1-4.06-3.56C252.76,110.08,252.75,110,252.76,109.84Z"/><path class="cls-24" d="M258.82,111.84a7.72,7.72,0,0,0-4.62,1.07,4.61,4.61,0,0,0,2.61.82,7.69,7.69,0,0,0,4.61-1.07A4.41,4.41,0,0,0,258.82,111.84Z"/><path class="cls-3" d="M253.13,109.79a1.72,1.72,0,0,0,1.25,1.26,44.27,44.27,0,0,0,7.28-.42,2.36,2.36,0,0,0,1.88-1.16A67.05,67.05,0,0,0,253.13,109.79Z"/><path class="cls-8" d="M263.16,87.94a11.25,11.25,0,0,0-1.55.35v.48a12.36,12.36,0,0,1,3.88.57c6.92,2.11,8,6,5.68,11.75-1.11,2.74-1.71,8.55-.43,9.64.33.28,1.33.24,2.63,0,.86-2,1.68-4.32,2.73-7.27A11.57,11.57,0,0,0,263.16,87.94Z"/><path class="cls-22" d="M276.5,111.26a7.07,7.07,0,0,1-4.95,2.15c-2.4,0-2.78-2.48-1.43-4.54,1.21-1.85,3.91-4.07,6-3.07S278.16,109.56,276.5,111.26Z"/><g class="cls-26"><path class="cls-3" d="M261.75,153.75c-16.84-1-24.44-4.15-27.47-5.91a1.27,1.27,0,0,1-.27-.18c-.87-.77.23-2.16,1.24-1.58,2.65,1.53,9.95,4.64,26.62,5.67a1,1,0,0,1,.94,1.05h0A1,1,0,0,1,261.75,153.75Z"/></g><g class="cls-26"><path class="cls-3" d="M260.87,163.26a1,1,0,0,1-1.05,1A74,74,0,0,1,232,157.76a1,1,0,0,1-.43-1.38h0a1,1,0,0,1,1.31-.43,73.3,73.3,0,0,0,27.05,6.29,1,1,0,0,1,.95,1Z"/></g><g class="cls-26"><path class="cls-3" d="M243.93,180c-7.8-1.53-11.81-2.57-13.5-3a1,1,0,0,1-.67-1.28h0A1,1,0,0,1,231,175c1.62.46,5.62,1.49,13.33,3a1,1,0,0,1,.79,1.17h0A1,1,0,0,1,243.93,180Z"/></g><path class="cls-8" d="M261.73,91.31a1.39,1.39,0,0,1-1.82-.71,2.1,2.1,0,0,1,.28-2.06,4.47,4.47,0,0,1,1.7-1.34,5.41,5.41,0,0,0-1.15,2.34C260.76,90.26,261,91.53,261.73,91.31Z"/><path class="cls-8" d="M270.08,111.68a.64.64,0,0,1-.74.63,1,1,0,0,1-.76-.74,2.76,2.76,0,0,1,0-1.11,7.53,7.53,0,0,1,.61-2.48,3.49,3.49,0,0,1,1.76-1.77,1.14,1.14,0,0,1,.16,1.22,7,7,0,0,1-.7,1,3.56,3.56,0,0,0-.43,3.09C270.06,111.53,270,111.68,270.08,111.68Z"/></g><g id="Character_2" data-name="Character 2"><path class="cls-5" d="M157.41,175.11H86.21a9.9,9.9,0,0,0-9.9,9.9v54.12a9.9,9.9,0,0,0,9.9,9.9H140a17.49,17.49,0,0,0,17.36,15.36c.39,0,.78,0,1.17-.05-2.78-3.67-5.05-9-6.54-15.31h5.45a9.9,9.9,0,0,0,9.9-9.9V185A9.9,9.9,0,0,0,157.41,175.11Z"/><path class="cls-6" d="M157.41,175.11H86.21a9.9,9.9,0,0,0-9.9,9.9v54.12a9.9,9.9,0,0,0,9.9,9.9H140a17.49,17.49,0,0,0,17.36,15.36c.39,0,.78,0,1.17-.05-2.78-3.67-5.05-9-6.54-15.31h5.45a9.9,9.9,0,0,0,9.9-9.9V185A9.9,9.9,0,0,0,157.41,175.11Z"/><path class="cls-27" d="M171.67,198.11l5.54-5.13,4.74,8.77s-5.49,4.2-8.74,1.62Z"/><polygon class="cls-27" points="171.67 198.11 167.9 206.12 173.07 210.4 177.59 203.08 171.67 198.11"/><path class="cls-27" d="M182.48,194.17l.91,3.31a3.94,3.94,0,0,1-1.44,4.27l-2,1.33-5.66-9.93,4.85-1.23A2.82,2.82,0,0,1,182.48,194.17Z"/><path class="cls-27" d="M171.67,198.11s2-6.18,1.68-8.07c-.17-1.13,1-.94,1.94-.61a1.89,1.89,0,0,1,1.28,1.73c.08,2,0,5.9-1.53,6.15A19.81,19.81,0,0,0,171.67,198.11Z"/><path class="cls-8" d="M178.14,204.54a10.89,10.89,0,0,0-5.91-3.41l-1.68-.35c-1-.2-1.19,0-1.31.29l-.48.75-1,1.5c-.66,1-1.32,2-2,3-1.33,2-2.72,3.88-4.12,5.69a43.16,43.16,0,0,1-4.31,4.9l-.41.39c-.52-.57-1-1.15-1.52-1.77a65.94,65.94,0,0,1-4.09-5.77c-1.29-2-5.47-8.06-6.61-10.23-.57-1.09-1.13-2.18-1.66-3.29l-.77-1.65c-.23-.52-.51-1.15-.67-1.55l-.11-.25a7.5,7.5,0,1,0-13.69,6.12c.36.81.64,1.39,1,2.07l1,1.92q1,1.89,2,3.75c1.42,2.47,5.94,8.76,7.6,11.13a66.41,66.41,0,0,0,5.51,6.88,47,47,0,0,0,6.91,6.26l.31.23a6.29,6.29,0,0,0,5.4.94,16.09,16.09,0,0,0,5.59-2.92,28.19,28.19,0,0,0,3.51-3.31,52.75,52.75,0,0,0,5.11-6.74c1.47-2.27,2.76-4.58,4-6.91.59-1.18,1.17-2.35,1.71-3.54l.8-1.8.39-.91C178.76,205.62,178.82,205.29,178.14,204.54Z"/><path class="cls-19" d="M141.08,201.36l-5.5,3.88L134,209c.27.49.53,1,.81,1.49,1.41,2.47,3,4.87,4.62,7.24a66.41,66.41,0,0,0,5.51,6.88q1.43,1.55,3,3C145.24,221.3,141.08,201.36,141.08,201.36Z"/><path class="cls-8" d="M91.92,231.76c.43,10-1.15,9.54-1.19,17.27h48.73c2.65-23.61,1.41-27.24,1.46-42.91,0-8.82-1.35-17.82-10.13-18.74a150.44,150.44,0,0,0-31,.2,11.67,11.67,0,0,0-10.14,13.25C91.62,214.16,90.55,221.72,91.92,231.76Z"/><path class="cls-28" d="M126.34,187a160.63,160.63,0,0,0-19.5-.06c.14,2,1.66,7,12.73,11.33,0,0,2.47-5.36,4.55-2.94,0,0,1.67-3.09,5.25,2.58C129.37,197.92,134.71,192.2,126.34,187Z"/><path class="cls-19" d="M100,201.19c1.07,9.27-4.85,24.77-8,32.26,0-.52,0-1.09,0-1.7-.86-6.26-.76-11.55-1-17.88Z"/><path class="cls-27" d="M111.62,169.24a41.49,41.49,0,0,1-3.44,17.69,1.12,1.12,0,0,0,.27,1.26,21.94,21.94,0,0,0,14.7,5.32c6.55.09,6.17-2,4.62-4.26a2.63,2.63,0,0,0-.86-.8c-4.48-2.66-4.64-6.22-3.38-8.36Z"/><path class="cls-21" d="M111.63,169.24l11.9,10.85a5,5,0,0,0-.25,4.55,10,10,0,0,1-6.85-2.46c-3.07-2.61-4.11-5.69-4.88-10C111.61,171.23,111.63,170.26,111.63,169.24Z"/><path class="cls-27" d="M108.08,163.63c.52,8-.61,9.28,3.45,13.33,6.11,6.09,16.06,7.26,17.47-.85,1.26-7.29,2-20.51-5.89-23.58A11,11,0,0,0,108.08,163.63Z"/><path class="cls-8" d="M127.5,172.24s-2.81-.89-10.78-1.23c.85,2.87,2.52,5.25,6.6,5.37S127.5,172.24,127.5,172.24Z"/><path class="cls-29" d="M121.5,174.08a6.67,6.67,0,0,1,4.4,1.56,3.81,3.81,0,0,1-2.57.74,6.66,6.66,0,0,1-4.4-1.55A3.81,3.81,0,0,1,121.5,174.08Z"/><path class="cls-3" d="M127.14,172.14c-.24.6-.49,1.19-1.29,1.35a36.59,36.59,0,0,1-7-1,2.27,2.27,0,0,1-1.75-1.46A55.67,55.67,0,0,1,127.14,172.14Z"/><path class="cls-29" d="M124.37,164.8a18.18,18.18,0,0,0,3.11,4.06,3,3,0,0,1-2.41.84Z"/><path class="cls-8" d="M116.48,161.35a.31.31,0,0,1-.18-.09.39.39,0,0,1,0-.56,4,4,0,0,1,3.4-1.39.38.38,0,0,1,.33.45.4.4,0,0,1-.45.34h0a3.22,3.22,0,0,0-2.69,1.13A.4.4,0,0,1,116.48,161.35Z"/><path class="cls-8" d="M129.76,162.77a.36.36,0,0,1-.36-.12,3.14,3.14,0,0,0-2.69-1.05.41.41,0,0,1-.13-.8,4,4,0,0,1,3.41,1.3.4.4,0,0,1,0,.57A.35.35,0,0,1,129.76,162.77Z"/><path class="cls-8" d="M77.08,233.38a5.42,5.42,0,0,0,.17,1.12,58.26,58.26,0,0,0,3.51,9.32c.73,1.59,1.48,3.14,2.25,4.67a9.68,9.68,0,0,0,3.2.54H97c-.36-.8-.72-1.59-1.07-2.39-1.19-2.61-2.29-5.23-3.29-7.82a54.46,54.46,0,0,1-2.1-6.44,18.5,18.5,0,0,1,.51-2.47c.31-1.21.73-2.51,1.21-3.83,1-2.63,2.1-5.33,3.3-8s2.53-5.4,3.87-8.09,2.74-5.41,4.13-8l0-.08.07-.15a7.5,7.5,0,1,0-13.35-6.84c-1.5,2.94-2.85,5.74-4.21,8.66s-2.59,5.84-3.79,8.84S80,218.51,79,221.76c-.49,1.63-.93,3.31-1.3,5.12a26.55,26.55,0,0,0-.63,6.28Z"/><path class="cls-27" d="M104.45,169a7.27,7.27,0,0,0,3.69,3.89c2.14.92,3.32-1.18,2.81-3.57-.45-2.16-2.12-5.24-4.31-5.13S103.54,166.8,104.45,169Z"/><path class="cls-13" d="M118.37,164.07c0,.7.29,1.28.76,1.32s.86-.52.89-1.23-.29-1.28-.75-1.31S118.41,163.37,118.37,164.07Z"/><path class="cls-13" d="M126.28,164.54c0,.69.3,1.28.75,1.31s.86-.51.91-1.22-.3-1.28-.75-1.31S126.32,163.83,126.28,164.54Z"/></g><g id="Character_1" data-name="Character 1"><path class="cls-5" d="M149.16,34.85H78a9.89,9.89,0,0,0-9.89,9.9V98.87a9.9,9.9,0,0,0,9.89,9.9h53.77a17.48,17.48,0,0,0,17.35,15.36c.4,0,.79,0,1.18-.06-2.78-3.66-5.06-9-6.54-15.3h5.45a9.91,9.91,0,0,0,9.9-9.9V44.75A9.9,9.9,0,0,0,149.16,34.85Z"/><path class="cls-6" d="M149.16,34.85H78a9.89,9.89,0,0,0-9.89,9.9V98.87a9.9,9.9,0,0,0,9.89,9.9h53.77a17.48,17.48,0,0,0,17.35,15.36c.4,0,.79,0,1.18-.06-2.78-3.66-5.06-9-6.54-15.3h5.45a9.91,9.91,0,0,0,9.9-9.9V44.75A9.9,9.9,0,0,0,149.16,34.85Z"/><path class="cls-5" d="M131.72,108.77a124.8,124.8,0,0,1,0-17.47c.62-10.24-2.44-21.3-4.75-23.2-3.33-2.74-6.43-5.33-7.53-1.88a32.41,32.41,0,0,0-.79,9c.1,8.94,2,20.09,2.9,25.24.33,1.83,1.16,8.32,1.16,8.32Z"/><path class="cls-5" d="M125.5,68.54a3.83,3.83,0,0,0-2.79-3.12c-2.5-.68-6.82-1.76-10.75-2.47a99.09,99.09,0,0,0-14-1.27c-3-.13-5.88,0-8.19.09a4.45,4.45,0,0,0-.81.15,3.85,3.85,0,0,0-2.66,4.76C92.27,87.85,93.5,98,93.81,108.77h28.94C124.1,99,126.75,91,127,85.2A67.8,67.8,0,0,0,125.5,68.54Z"/><path class="cls-20" d="M125.5,68.54a3.83,3.83,0,0,0-2.79-3.12c-2.5-.68-6.82-1.76-10.75-2.47a99.09,99.09,0,0,0-14-1.27c-3-.13-5.88,0-8.19.09a4.45,4.45,0,0,0-.81.15,3.85,3.85,0,0,0-2.66,4.76C92.27,87.85,93.5,98,93.81,108.77h28.94C124.1,99,126.75,91,127,85.2A67.8,67.8,0,0,0,125.5,68.54Z"/><path class="cls-30" d="M113.61,58.06c-1.9,2.58-3.29,5.62-.31,9a4.09,4.09,0,0,1,1.07,2.58c0,1.53-.85,3-5.83.08-7.22-4.25-6.61-9.05-6.61-9.05,3.79-1.15,6.06-9.12,6.94-13.68Z"/><path class="cls-31" d="M109.27,53.84c-.55,1.94,1.5,5,3.06,6.27a13.48,13.48,0,0,1,1.27-2l-2.8-6.54A7,7,0,0,0,109.27,53.84Z"/><path class="cls-8" d="M128.27,34.09c2.54,3.22-3.18,12.91-3.8,10.89-1-3.31-2.46-10-2.44-12.76C122.07,27.88,125.74,30.87,128.27,34.09Z"/><path class="cls-30" d="M107.21,35.1a10.13,10.13,0,0,1,13.87-3.61c6.81,3.94,6.29,15,3.79,21.36-2.74,7.1-12,8-16.79,1.55-3.22-4.3-2.81-7.43-2.24-14.84A10.07,10.07,0,0,1,107.21,35.1Z"/><path class="cls-8" d="M116.26,43.32c-.05.6.22,1.12.61,1.16s.76-.42.83-1-.22-1.13-.61-1.17S116.35,42.75,116.26,43.32Z"/><path class="cls-8" d="M116.89,42.37l1.49-.28S117.54,43.11,116.89,42.37Z"/><path class="cls-8" d="M123.84,45c0,.6.22,1.12.61,1.16s.76-.42.83-1-.22-1.13-.61-1.17S123.93,44.44,123.84,45Z"/><path class="cls-8" d="M124.47,44.06l1.49-.28S125.12,44.8,124.47,44.06Z"/><path class="cls-32" d="M121,49.57a2.62,2.62,0,0,0,2.19-.1,16,16,0,0,1-1.6-4.12Z"/><path class="cls-8" d="M115.29,49.32a.19.19,0,0,1,.08-.24.18.18,0,0,1,.24.09,4.77,4.77,0,0,0,3.61,2.39.17.17,0,0,1,.14.19h0a.16.16,0,0,1-.19.14,4.9,4.9,0,0,1-.85-.16A5,5,0,0,1,115.29,49.32Z"/><path class="cls-8" d="M116,39.42h0a.35.35,0,0,1,.07-.49,4.84,4.84,0,0,1,4-.48.35.35,0,0,1-.22.67,4.08,4.08,0,0,0-3.35.35.35.35,0,0,1-.41,0Z"/><path class="cls-8" d="M126.91,41.73a2.75,2.75,0,0,0-2.22-1.27h0a.36.36,0,0,1-.36-.35.36.36,0,0,1,.35-.37,3.53,3.53,0,0,1,2.82,1.58h0a.36.36,0,0,1-.1.49.36.36,0,0,1-.35,0A.79.79,0,0,1,126.91,41.73Z"/><path class="cls-8" d="M117.81,33.62a7.69,7.69,0,0,0-5.32,3.85c-.51,1-3.79,3-4.35,3.94-1.76,2.92.16,11.26-.67,11.89s-.54-1.84-1.33-2.31a14.86,14.86,0,0,1-2.4-1.36c-1-.83-4.47-9.89-.19-15.37a14.64,14.64,0,0,1,8.76-5.64,13.68,13.68,0,0,1,10.16,2.31c.93.67,2.56,2.51,0,3.33-.7.21-.73-.35-1.46-.53A7.49,7.49,0,0,0,117.81,33.62Z"/><path class="cls-8" d="M100.79,41.41c2.47-2.41,5.55-2.41,8.27-2.4a10.16,10.16,0,0,0,3.83-.43c2.74-1.2,4.42-5.1,4.73-6.39A3.24,3.24,0,0,1,119.9,30a2.84,2.84,0,0,1,2.29,1c.49.72.44,1.74-.15,3l.39.18c.65-1.45.68-2.61.11-3.45a3.31,3.31,0,0,0-2.66-1.2,3.61,3.61,0,0,0-2.67,2.48c-.28,1.19-1.93,5-4.49,6.1a9.84,9.84,0,0,1-3.66.4c-2.66,0-6,0-8.56,2.52Z"/><path class="cls-33" d="M100.79,41.41c2.47-2.41,5.55-2.41,8.27-2.4a10.16,10.16,0,0,0,3.83-.43c2.74-1.2,4.42-5.1,4.73-6.39A3.24,3.24,0,0,1,119.9,30a2.84,2.84,0,0,1,2.29,1c.49.72.44,1.74-.15,3l.39.18c.65-1.45.68-2.61.11-3.45a3.31,3.31,0,0,0-2.66-1.2,3.61,3.61,0,0,0-2.67,2.48c-.28,1.19-1.93,5-4.49,6.1a9.84,9.84,0,0,1-3.66.4c-2.66,0-6,0-8.56,2.52Z"/><path class="cls-30" d="M102.91,44.21a2.43,2.43,0,0,1,2.73-2.1c1.84.28,2.68,2.76,2.68,4.38,0,1.8-1.33,3.12-2.95,2.12a5.51,5.51,0,0,1-2.39-3.4A2.42,2.42,0,0,1,102.91,44.21Z"/><path class="cls-5" d="M106.18,70.61c-.39,5.11-5.12,24.45-15.37,25A6.53,6.53,0,0,1,86.35,94l0,0c-8.26-5-1.77-29.09-.11-30.5a5.67,5.67,0,0,1,9.15,2.73,20.42,20.42,0,0,0,.51-2.32c.43-2.62,1.85-8.69,4.47-9.13,1.58-.28,4.83-.42,5.77.88S106.83,62.15,106.18,70.61Z"/><g class="cls-34"><path d="M105.64,42.11l0,.46.47,4.43v5.72l.78-3.4a7.9,7.9,0,0,0,.13-2.7l-.55-4.26Z"/></g><path class="cls-30" d="M100.5,55.81,99.27,46.9l7.43-.06s-.61,6.69-2.47,9Z"/><polygon class="cls-30" points="100.58 40.81 106.08 41.78 106.67 46.82 99.27 46.9 100.58 40.81"/><path class="cls-21" d="M93.11,74.34s-4.45,10.28-4.59,6.21C88.38,76.13,93.11,74.34,93.11,74.34Z"/></g><g id="Graphic"><path class="cls-5" d="M367.39,134.46H339.87a4.74,4.74,0,0,0-4.74,4.74v17.72a4.74,4.74,0,0,0,4.74,4.74h7.91l3.53,4.63a2.92,2.92,0,0,0,4.63,0l3.53-4.63h7.92a4.74,4.74,0,0,0,4.74-4.74V139.2A4.74,4.74,0,0,0,367.39,134.46Z"/><path class="cls-16" d="M367.39,134.46H339.87a4.74,4.74,0,0,0-4.74,4.74v17.72a4.74,4.74,0,0,0,4.74,4.74h7.91l3.53,4.63a2.92,2.92,0,0,0,4.63,0l3.53-4.63h7.92a4.74,4.74,0,0,0,4.74-4.74V139.2A4.74,4.74,0,0,0,367.39,134.46Z"/><path class="cls-5" d="M365.79,146.63,357,141.26v3.22h-4a9.76,9.76,0,0,0-9.76,9.76,10.12,10.12,0,0,0,.24,2.15,9.77,9.77,0,0,1,9.52-7.6h4V152Z"/><path class="cls-5" d="M173.75,26h21.1a3.64,3.64,0,0,1,3.64,3.64V43.22a3.64,3.64,0,0,1-3.64,3.64h-6.07l-2.7,3.54a2.23,2.23,0,0,1-3.55,0l-2.71-3.54h-6.07a3.63,3.63,0,0,1-3.63-3.64V29.63A3.63,3.63,0,0,1,173.75,26Z"/><path class="cls-16" d="M173.75,26h21.1a3.64,3.64,0,0,1,3.64,3.64V43.22a3.64,3.64,0,0,1-3.64,3.64h-6.07l-2.7,3.54a2.23,2.23,0,0,1-3.55,0l-2.71-3.54h-6.07a3.63,3.63,0,0,1-3.63-3.64V29.63A3.63,3.63,0,0,1,173.75,26Z"/><path class="cls-5" d="M175,35.33l6.76-4.12v2.47h3.09a7.5,7.5,0,0,1,7.3,9.13,7.5,7.5,0,0,0-7.3-5.83h-3.09v2.47Z"/></g></g></svg>