<svg xmlns="http://www.w3.org/2000/svg" viewBox="0 0 1788.1 1416.18"><defs><style>.cls-1{fill:#fff;}.cls-2{fill:#afcdfb;}.cls-3{fill:#2e3552;}.cls-4{fill:#233862;}.cls-5{fill:#e2915a;}.cls-6{fill:#f99746;}.cls-7{fill:#ed7d2b;}.cls-8{fill:#ffb27d;}.cls-9{fill:#2b478b;}.cls-10{fill:#ed975d;}.cls-11{fill:#e9f3fe;}.cls-12{fill:#22407a;}.cls-13{fill:#d9e9f9;}.cls-14{fill:#ba4c43;}.cls-15{fill:#c65447;}.cls-16{fill:#d5e5fb;}.cls-17{fill:#c6dcf7;}</style></defs><title>89Asset 2logo 1x</title><g id="Layer_2" data-name="Layer 2"><g id="Слой_1" data-name="Слой 1"><path class="cls-1" d="M0,850.77a54.47,54.47,0,1,1,54.47,54.47A54.47,54.47,0,0,1,0,850.77Z"/><path class="cls-2" d="M60.92,863.72a8.22,8.22,0,0,0-.43-3A6.11,6.11,0,0,0,59,858.44a11.54,11.54,0,0,0-2.73-2,30.75,30.75,0,0,0-4.11-1.77,79.06,79.06,0,0,1-7.58-3.2,25.35,25.35,0,0,1-5.82-3.8,15.21,15.21,0,0,1-3.72-5,17,17,0,0,1,0-12.9,14.19,14.19,0,0,1,3.5-4.8,17.69,17.69,0,0,1,5.38-3.29,23.8,23.8,0,0,1,7-1.55l.12-8.52,6.86.1-.13,8.64a21.26,21.26,0,0,1,6.66,2.05,16.67,16.67,0,0,1,5,3.89,16.35,16.35,0,0,1,3.15,5.6,21.29,21.29,0,0,1,1,7.2L61.28,839c0-3.18-.62-5.58-2-7.17a7.26,7.26,0,0,0-5.65-2.45,9.27,9.27,0,0,0-3.32.48A6.36,6.36,0,0,0,48,831.27a5.91,5.91,0,0,0-1.36,2.19,8.7,8.7,0,0,0-.47,2.74,8,8,0,0,0,.39,2.67A5.87,5.87,0,0,0,48,841.11a12.1,12.1,0,0,0,2.76,1.95A39.6,39.6,0,0,0,55,845q4.14,1.6,7.52,3.29a25.81,25.81,0,0,1,5.79,3.85,15.11,15.11,0,0,1,3.72,5,17.06,17.06,0,0,1-.06,13,14,14,0,0,1-3.52,4.76,17.34,17.34,0,0,1-5.42,3.19,26,26,0,0,1-7,1.49l-.11,7.92-6.82-.1.12-7.88a29.13,29.13,0,0,1-6.86-1.66,18.23,18.23,0,0,1-5.84-3.52,16.46,16.46,0,0,1-4-5.74,19.83,19.83,0,0,1-1.42-8.22l12.38.18a12.19,12.19,0,0,0,.73,4.73,8,8,0,0,0,2.07,3.06,7.71,7.71,0,0,0,3,1.63,13.31,13.31,0,0,0,3.44.51,11,11,0,0,0,3.54-.46,7.29,7.29,0,0,0,2.57-1.4,5.86,5.86,0,0,0,1.58-2.15A7.1,7.1,0,0,0,60.92,863.72Z"/><circle class="cls-1" cx="213.03" cy="675.85" r="81.69" transform="translate(-22.77 7.6) rotate(-1.94)"/><path class="cls-2" d="M222.71,695.28a12.65,12.65,0,0,0-.64-4.43,9.28,9.28,0,0,0-2.26-3.49,17.64,17.64,0,0,0-4.11-2.93,46.07,46.07,0,0,0-6.16-2.65,122.54,122.54,0,0,1-11.37-4.8,38.15,38.15,0,0,1-8.72-5.71,22.47,22.47,0,0,1-5.58-7.48,25.37,25.37,0,0,1,.06-19.34,21.35,21.35,0,0,1,5.24-7.21,26.68,26.68,0,0,1,8.08-4.93A35.72,35.72,0,0,1,207.72,630l.19-12.77,10.28.14-.19,13a31.74,31.74,0,0,1,10,3.07,24.11,24.11,0,0,1,12.3,14.24,32.26,32.26,0,0,1,1.54,10.79l-18.57-.27q.1-7.15-3-10.76a10.9,10.9,0,0,0-8.47-3.67,13.75,13.75,0,0,0-5,.73,9.49,9.49,0,0,0-3.47,2.16,8.83,8.83,0,0,0-2,3.28,13,13,0,0,0-.7,4.11,11.82,11.82,0,0,0,.58,4,8.89,8.89,0,0,0,2.17,3.35,17.75,17.75,0,0,0,4.14,2.92,58.73,58.73,0,0,0,6.42,2.87q6.19,2.42,11.27,4.94a38.85,38.85,0,0,1,8.69,5.77,22.89,22.89,0,0,1,5.58,7.51,25.57,25.57,0,0,1-.1,19.46A21.11,21.11,0,0,1,234,712a25.82,25.82,0,0,1-8.14,4.78A38.24,38.24,0,0,1,215.36,719l-.17,11.88L205,730.72l.17-11.82a42.85,42.85,0,0,1-10.28-2.47,27.62,27.62,0,0,1-8.76-5.29,24.52,24.52,0,0,1-6-8.6,29.78,29.78,0,0,1-2.13-12.33l18.57.27a18.28,18.28,0,0,0,1.08,7.09,11.82,11.82,0,0,0,3.12,4.58,11.43,11.43,0,0,0,4.49,2.46,20.06,20.06,0,0,0,5.16.76,16.34,16.34,0,0,0,5.32-.7,11,11,0,0,0,3.85-2.09,8.79,8.79,0,0,0,2.36-3.22A10.73,10.73,0,0,0,222.71,695.28Z"/><rect class="cls-3" x="322.08" y="1409.91" width="989.72" height="6.28" rx="3.14"/><g id="man"><path class="cls-4" d="M1023.12,483.66l-44,83.4-22.54-8.2,7.32,22.26L919.87,713.88S895.49,545.2,1023.12,483.66Z"/><path class="cls-4" d="M949.79,557.4S901.18,736.6,896.5,907.6c0,0,40.32,14,103.65,2.92C1063.81,899.34,949.79,557.4,949.79,557.4Z"/><path class="cls-5" d="M717,805.88c13-.24,31.41,1.37,37.48-5.27,6.87-7.52,15-6.42,15-6.42l-1.64-8.6-2-10.27s-.74-.94-3.42-.9c0,0-9.45.4-14-1.21-11-3.93-54.7,22.26-53.22,29.53C695.85,805.46,711.48,806,717,805.88Z"/><path class="cls-4" d="M955.27,553.89S881.43,706.4,858.58,722.77s-104.3,51.77-104.3,51.77-2.14,5.07-.16,12.5c2.06,7.73,6.12,9.92,6.12,9.92s113.89-10.17,140.37-26.65,84.86-82.17,84.86-82.17Z"/><path class="cls-4" d="M1171.4,1409h43.7c5.5-3,10.4-9.83,12-20,2.14-14.08,17.91-21.75,21.33-33.27S1234.3,1328,1234.3,1328l-2.93-3.77-3-3.91-29,6.83s-.72,6.91-1.16,15.71c-.31,6.34-.48,13.68-.13,20.12.86,15.35-4.29,31.89-17.93,34.87C1170,1400.05,1170.47,1406,1171.4,1409Z"/><path class="cls-4" d="M917.77,1409h99.94c4.81-5.87,3-27.51,2.31-34.58-.15-1.42-.25-2.25-.25-2.25s-34.13-27.3-38.82-6.4c-.14.66-.31,1.3-.5,1.93-5.91,19.55-32.4,28.43-47.7,30.91C922.81,1400.23,919.13,1405.4,917.77,1409Z"/><path class="cls-6" d="M936.82,851.15S942,915.8,948.09,993.52c8.28,105.58,18.23,235.26,19.22,259.82,1.7,42.66,8.53,110.9,8.53,110.9s16.2,16.21,48.62,9.38c0,0,28.9-97.41,37.15-200.48.13-1.69.25-3.39.38-5.09,7.68-104.92,19.62-325.86,19.62-325.86Z"/><path class="cls-7" d="M936.82,851.15S942,915.8,948.09,993.52l113.52,179.62c.13-1.69.25-3.39.38-5.09,7.68-104.92,19.62-325.86,19.62-325.86Z"/><path class="cls-6" d="M960.48,858.83S1053.89,1093,1115.3,1203s80.61,140.75,80.61,140.75,35.19-14.08,38.39-23.67c0,0-23.48-212.44-64.61-264.23-23.25-29.26-50.55-117.07-51.83-147.78s-8.31-91.49-8.31-91.49Z"/><path class="cls-8" d="M983.73,517.48c36.5,11.52,99.66-19.57,99.66-19.57s-33.65-25.25-31.89-77.77l-28.22,22.74-19.17,15.45a230.53,230.53,0,0,0,2.17,25.07q.57,4.37,1.36,9.41a6.76,6.76,0,0,1-3.07,6.81A86.41,86.41,0,0,0,983.73,517.48Z"/><path class="cls-1" d="M932.79,856.53a5.86,5.86,0,0,0,3.83,1.47c13.71-.19,53.68,7.42,87.5,4,28.51-2.74,53.75-11.18,80.85-23.33,3.6-1.61,11.88-6,11.69-10.06-.12-4.4-.55-10.79-1.1-18.83-1.92-28-5.26-76.09-2-131.6.59-10.33.9-20.58.94-30.68.28-75.23-14.64-141.39-44.62-163.79,0,0-20.9,11.73-35.36,16.35-14.17,4.53-21.48,3.62-28.83-1.26,0,0-14.31,7.12-20.43,13.79C971.09,528,960,548.47,952.72,577.9c-6.22,25-12.05,61.54-14.06,108.34C937.75,707.44,931.88,855.8,932.79,856.53Z"/><path class="cls-9" d="M1110.05,608l-40.18-124.3S973.41,520,969,656.25c-1.76,31-9.21,158.23,4.26,263.65,0,0,75.16,29.28,167.29-28.5Z"/><path class="cls-10" d="M1004.11,458.33a230.53,230.53,0,0,0,2.17,25.07c21.24-3.65,45.34-38,45.34-38-10.82-3.12-20.29-3.68-28.34-2.54Z"/><path class="cls-8" d="M988.3,457.36s65.74,10.92,71.91-30.13,18.82-67.28-22.9-76-52.24,5.73-57.64,18.93S971.35,453.46,988.3,457.36Z"/><path class="cls-4" d="M1276.78,988.35l-134.24,19.13a32.17,32.17,0,0,1-36.28-27.24L1098,922.07a32.17,32.17,0,0,1,27.23-36.29l134.23-19.13a32.18,32.18,0,0,1,36.29,27.24l8.29,58.17A32.17,32.17,0,0,1,1276.78,988.35Z"/><path class="cls-9" d="M1115.65,919.51l8.39,58.84a32.28,32.28,0,0,0,19,24.93,31.89,31.89,0,0,0,10.46,2.64h0a31.61,31.61,0,0,0,7-.23l134-19.09a32.31,32.31,0,0,0,27.34-36.42l-8.38-58.85A32.31,32.31,0,0,0,1277,864l-46.14,6.58L1229.07,858a10.65,10.65,0,0,0-12-9l-5.06.72-28.06,4-7,1a10.64,10.64,0,0,0-9,12l1.79,12.55-26.73,3.8c-1.06.15-2.09.36-3.1.6h0a32.35,32.35,0,0,0-22.24,19.42h0A32,32,0,0,0,1115.65,919.51Zm108.61-48-48,6.84-1.78-12.56a4,4,0,0,1,3.36-4.48l12-1.71,22.09-3.16,6-.84a4,4,0,0,1,4.49,3.36Z"/><path class="cls-8" d="M1174.7,815.14s7,9.39,7.33,13.14c1.9,25.43-9.72,29,20.36,43.08,0,0,12.84,4.89,13.06-5.07s-8.91-10.14-7.24-24.1c1.93-16.1,1.73-16.25-8.84-24.66l-7-11.56Z"/><path class="cls-9" d="M1192.63,822.34a103,103,0,0,1-23.62,1.31s-33.65-103.94-38-113.43-99.94-121.88-99.94-121.88l38.78-104.68s22.75,13.31,46.8,54.81c29.7,51.25,62.36,133.79,68.16,147.21,17.36,40.11,23.38,130,23.38,130A43.38,43.38,0,0,1,1192.63,822.34Z"/><path class="cls-9" d="M1060.27,423.28s-6.75-1.13-5.66-10.42,1.07-21.44-6.48-19.17-7.94,8.31-11,4.78-3.16-18.42-25.64-19.45-31.62,6.78-42.07,2.19-11-20.42-11-20.42,3,5.65,7.47,7.45c0,0-17.44-23.86,2.75-40.22s40.78-5.65,52.47-4.94c25.74,1.56,42.38,3.11,50.79,20S1076.79,407,1060.27,423.28Z"/><path class="cls-8" d="M1185.82,826.32s-6.79,7.08-7.21,10c-1.38,9.45-4.54,13.54-2.95,14.56,3.28,2.14,7.63-4.86,9.71-11.13S1185.82,826.32,1185.82,826.32Z"/><path class="cls-4" d="M1069.87,483.66l-43.95,83.4-22.55-8.2,7.32,22.26L966.62,713.88S942.24,545.2,1069.87,483.66Z"/></g><path class="cls-1" d="M983.73,434.06s2.56,6.77,9,6.95,11.34-6,11.34-6S990.14,431.76,983.73,434.06Z"/><path class="cls-6" d="M640.7,1063.31l133.48-30.93a32.51,32.51,0,0,0,24.27-38.91l-13.4-57.84a32.51,32.51,0,0,0-38.91-24.27L612.66,942.29a32.5,32.5,0,0,0-24.27,38.9l13.4,57.85A32.53,32.53,0,0,0,640.7,1063.31Z"/><path class="cls-7" d="M759.61,924.94h0a32.67,32.67,0,0,0-28-10.2h0c-1,.14-2.08.32-3.14.56l-26.57,6.17L698.92,909A10.74,10.74,0,0,0,686,901l-6.94,1.6L651.19,909l-5,1.17a10.74,10.74,0,0,0-8,12.88L641,935.55l-45.88,10.63a32.65,32.65,0,0,0-24.36,39.05l13.56,58.52a32.62,32.62,0,0,0,39,24.35l133.25-30.86a32.11,32.11,0,0,0,6.67-2.34h0a32.06,32.06,0,0,0,8.89-6.3A32.61,32.61,0,0,0,781,998.18l-13.56-58.51A32.2,32.2,0,0,0,759.61,924.94Zm-114.92-3.39a4,4,0,0,1,1.88-4.36,4.11,4.11,0,0,1,1.12-.45l5.93-1.38,22-5.08,12-2.77a4,4,0,0,1,4.8,3l2.9,12.48-47.68,11Z"/><path class="cls-8" d="M672.07,849.65s-4,14.3-2.64,18.85c9.37,30.87,25.59,51.07-18,45.86,0,0,1.8-1.79-6.54-17.49-9.62-18.12-9.46-18.39-.83-33.14l3-16.84Z"/><path class="cls-8" d="M726.92,812.89c-13.16-.8-29.2-4.24-35-11.2-6.63-7.89-13.24-10-13.24-10l2-8.61,2.42-10.29s.79-.92,3.49-.77c0,0,10.31,2.33,14.15-.63s10.84-1.16,15.15,1.71c5.48,3.64,12.89,3.06,12.71,4.84,0,0-10.88,5.35-9.86,6.25,10,8.84,36.19,12.36,34.49,19.27C752.53,806.17,732.52,813.23,726.92,812.89Z"/><path class="cls-8" d="M543.53,476.69l0,7.15s2,22.37-25.6,25.64-50.14,2.85-49.39-14.42c2.48-13.36,6.92-34.11,7.11-45.17a78.31,78.31,0,0,0-1-13.4L528,435.43,543.73,438Z"/><path class="cls-5" d="M543.73,438l-.2,38.7a45.09,45.09,0,0,1-19.24,4.24c-24.54,0-40.39-18-48.68-31a78.31,78.31,0,0,0-1-13.4L528,435.43Z"/><path class="cls-8" d="M470.54,427.9c6.19,33.33,49.2,32.24,67.79,30.14,5.23-.58,8.52-1.25,8.52-1.25,5.9-1.57,9.19-10.86,10.72-23,3-24.08-.8-59.43-4.87-68.47-6.12-13.61-17.65-28.32-61-17.7S462.59,385.19,470.54,427.9Z"/><path class="cls-4" d="M435.35,1414.77h60.94a146.83,146.83,0,0,0-4.86-21.88,62.23,62.23,0,0,0-3.45-8.78c-5.93-11.83-43.58-4.31-43.58-4.31s-3.49,3-6.22,14.44A120.75,120.75,0,0,0,435.35,1414.77Z"/><path class="cls-4" d="M619.52,1395.53c.16,8.29,1.21,16.14,4.21,19.24H744.28c-1.53-4.37-5.87-10.93-18.25-12.94-14.06-2.27-36-9-48.78-22.57a36.35,36.35,0,0,1-9.44-17.11c-5.67-25.25-46.9,7.74-46.9,7.74A204.34,204.34,0,0,0,619.52,1395.53Z"/><path class="cls-9" d="M539.33,1122.58a189.42,189.42,0,0,1,3,22.26c3.83,74.76,62.92,245.67,73.49,249.66,16.36,6.17,42.11-7,55.58-11.24,5.59-1.79,9.35-7.42,8.11-13.13-29.26-134.53-40-328.24-43.93-442.93-2-57.77-11.89-97.67-11.89-97.67s-144.12-38.46-145,10.19C478,882.76,526.48,1051.57,539.33,1122.58Z"/><path class="cls-4" d="M539.33,1122.58,635.61,927.2c-2-57.77-11.89-97.67-11.89-97.67s-144.12-38.46-145,10.19C478,882.76,526.48,1051.57,539.33,1122.58Z"/><path class="cls-9" d="M571.4,839.89l-76.19,552.19s-33.45,8.06-59.48,1.61c0,0-22.3-293.68-20.44-364.68s-16-190,4.07-203.1S571.4,839.89,571.4,839.89Z"/><path class="cls-4" d="M554.37,370.5c-11.9,3.75-37.07-.07-47.59,8.44s-.5,22.54-12.52,27.55l-.05,0a5.93,5.93,0,0,1-6.91-1.73c-3.33-4.16-7.93-8.3-12.15-6.59-3.45,1.42-3.63,5.88-2.1,10.22a12.11,12.11,0,0,1-1.29,10.92,5.91,5.91,0,0,0-1.31,4.39c1,5.5,3.73,12.66,4.73,16.32l.28,3.84s-20.15-21.81-28.63-40.15c-5.82-12.6-5.7-59.65,22.77-73.4a1.12,1.12,0,0,1-.27-.31c-.61-1.1-2.33-.85-2.33-.85,2.45-1.11,6.25-.41,6.25-.41s.07-.23.41-.49c.5-3.33,3.85-5.71,3.85-5.71a11.1,11.1,0,0,0-1.82,4.5c7.48-3.94,30.5-12.68,48.75-4.74A152.13,152.13,0,0,0,555.79,332a13.07,13.07,0,0,1,10.59,13.31C566,354.4,562.89,367.4,554.37,370.5Z"/><path class="cls-11" d="M462,504.65,479.54,881s146.4,2.4,142.22-30.73S569,516.18,569,516.18"/><path class="cls-12" d="M510.26,740.42s-7.43,100.52-21.71,163.63c0,0-85.43,4.53-105.71-28.45,0,0,16.05-135.8,16.05-163.34,0-9.69-.74-22.85-1.93-37.56-1.77-22.29-4.53-48.1-7.14-70.59-3.64-31.32-7-56.21-7-56.21l70.44-57.24Z"/><path class="cls-12" d="M679.78,859.35s-15.94,10-41,6.63c-9.13,22.41-30.68,30-30.68,28,0-.25-4.84-42.32-10.56-91.9-.56-5-1.13-10-1.72-15,0-.43-.1-.86-.15-1.3-1-8.3-1.92-16.7-2.89-25.06-6.88-59.71-13.48-116.95-13.48-116.95-15-91.71-27.67-152.32-27.67-152.32,32,3.33,53.53,14.71,62.14,29.62,25.51,44.22,44,154.81,54.8,237.59,0,.21,0,.42.08.63,1.86,14.29,3.5,27.75,4.9,39.87.09.76.17,1.51.25,2.25C677.75,836.06,679.78,859.35,679.78,859.35Z"/><path class="cls-1" d="M531.57,433.38s1.39,4.3,12.24,2.73c0,0,9.11-1.31,8.44-6.11C552.25,430,543.09,427.3,531.57,433.38Z"/><path class="cls-13" d="M457.85,490.21c-.18-3.59,16.84-8.56,16.84-8.56s19.47,27,51.55,27.47c0,0-9.14,17.79-19.92,22.4C506.32,531.52,458.91,511.54,457.85,490.21Z"/><path class="cls-13" d="M526.24,508.49s17-10.08,17-21c0,0,11-1.37,15.78,3.95,0,0,4,18.72-1.32,29.59C557.75,521,533.28,517.3,526.24,508.49Z"/><path class="cls-14" d="M514.7,506.87l23-5.52s3,.26,2.93,4-6.49,14.72-9.33,15.6S509.25,514.46,514.7,506.87Z"/><path class="cls-11" d="M460.53,488.36c-.17-3.6,11.34-11,11.34-11s22.29,26.05,54.37,26.52c0,0-9.14,17.79-19.92,22.4C506.32,526.28,461.59,509.69,460.53,488.36Z"/><path class="cls-11" d="M526.24,503.88s17.19-9.11,17.25-20c0,0,10.37,4.57,15.17,9.89,0,0,4.44,11.82-.91,22.69C557.75,516.42,533.28,512.69,526.24,503.88Z"/><path class="cls-15" d="M568.37,819.47a48.91,48.91,0,0,1-11.59,28.3l-10.33,11.66a5.26,5.26,0,0,1-8.74-.76l-12.47-19.55a30,30,0,0,1-4.28-18.6c1.32-14.92,3.81-43.67,5.84-71.41,1.65-22.47,3-44.31,3.23-57.58.68-42.38-4.87-177.45-4.87-177.45l8.28.44S553.52,566.73,563.61,638c2.49,17.54,4.36,36.22,5.19,55.58C568.8,693.56,572.38,770.69,568.37,819.47Z"/><path class="cls-14" d="M568.37,819.47a48.91,48.91,0,0,1-11.59,28.3l-10.33,11.66a5.26,5.26,0,0,1-8.74-.76l-12.47-19.55a30,30,0,0,1-4.28-18.6c1.32-14.92,3.81-43.67,5.84-71.41C550,717.3,559.71,673.6,563.61,638c2.49,17.54,4.36,36.22,5.19,55.58C568.8,693.56,572.38,770.69,568.37,819.47Z"/><path class="cls-4" d="M471.87,477.36s45.63,191.11,38.37,263.1c0,0-16.78-76.93-57.15-139.94,0,0,14.73-13,13.93-17.74,0,0-10.93-3.24-21.54-1.06,0,0,1.17-82.37,7.79-91.08S471.87,477.36,471.87,477.36Z"/><path class="cls-4" d="M543.49,483.84c-6.84.56,45.22,186.75,49.07,246.43,0,0-4.57-106.5-4.12-137.19,0,0-19-10-19-13.56s20.22-13,20.22-13-12.81-65.58-19.79-72.81S543.49,483.84,543.49,483.84Z"/><path class="cls-8" d="M638.78,873.56s-3.16,4.28-1.15,15,.9,16.67,3.67,14.82,8.52-14.75,8.52-14.75Z"/><path class="cls-4" d="M504.69,769.86C451.57,761.93,416,712.29,397,674.7c-1.77-22.29-4.53-48.1-7.14-70.59l12.42-35.46Z"/><path class="cls-4" d="M673.76,801.37c-10.57,2.45-42.66,8.44-76.26.71-.56-5-1.13-10-1.72-15,0-.43-.1-.86-.15-1.3q1.65-6.47,3.32-12.93c19,6.81,61.48,21.72,74.56,26.31C673.6,799.88,673.68,800.63,673.76,801.37Z"/><path class="cls-12" d="M453.27,490.64s-46.68,5.9-68,35.64S409.73,718,504.69,769.86c45.67,24.95,177.47,30.57,177.47,30.57s7.25.73,10.12-13.86c1-5.09,0-13.76,0-13.76s-150-56.25-163.22-67.08S453.27,490.64,453.27,490.64Z"/><path class="cls-5" d="M748.52,773.21s-15.7-3.94-20.2-4.89c-5.25-1.11-10.06-5.06-11.59-3.2-2.85,3.46,9.17,9.55,13.91,20.23,2.33,5.25,7,8.1,16.39,4.25C751.76,787.66,755.53,777.85,748.52,773.21Z"/><circle class="cls-16" cx="1261.67" cy="463.67" r="68.16" transform="translate(-26.37 79.29) rotate(-3.56)"/><path class="cls-1" d="M1239.8,436.33a21.88,21.88,0,1,1,21.87,21.88A21.88,21.88,0,0,1,1239.8,436.33Z"/><path class="cls-1" d="M1261.67,458.21a38.28,38.28,0,0,0-38.28,38.28H1300A38.28,38.28,0,0,0,1261.67,458.21Z"/><circle class="cls-17" cx="757.86" cy="282.34" r="45.98" transform="translate(308.96 955.06) rotate(-76.72)"/><path class="cls-1" d="M743.11,263.89a14.76,14.76,0,1,1,14.75,14.76A14.75,14.75,0,0,1,743.11,263.89Z"/><path class="cls-1" d="M757.86,278.65A25.82,25.82,0,0,0,732,304.47h51.65A25.82,25.82,0,0,0,757.86,278.65Z"/><path class="cls-16" d="M1085.74,51.47a4,4,0,1,1,2.64,5A4,4,0,0,1,1085.74,51.47Z"/><path class="cls-16" d="M1103.44,56.92a4,4,0,1,1,2.65,5A4,4,0,0,1,1103.44,56.92Z"/><path class="cls-16" d="M1124,67.44a4,4,0,1,1,5-2.65A4,4,0,0,1,1124,67.44Z"/><path class="cls-16" d="M1139.31,68a4,4,0,1,1,2.65,5A4,4,0,0,1,1139.31,68Z"/><path class="cls-16" d="M1157,73.4a4,4,0,1,1,2.65,5A4,4,0,0,1,1157,73.4Z"/><path class="cls-16" d="M1177.6,83.92a4,4,0,1,1,5-2.65A4,4,0,0,1,1177.6,83.92Z"/><path class="cls-16" d="M1192.17,84.22a4,4,0,1,1,2.65,5A4,4,0,0,1,1192.17,84.22Z"/><path class="cls-16" d="M1209.88,89.67a4,4,0,1,1,2.65,5A4,4,0,0,1,1209.88,89.67Z"/><path class="cls-16" d="M1230.46,100.19a4,4,0,1,1,5-2.65A4,4,0,0,1,1230.46,100.19Z"/><path class="cls-16" d="M1245.75,100.7a4,4,0,1,1,2.65,5A4,4,0,0,1,1245.75,100.7Z"/><path class="cls-16" d="M1263.46,106.15a4,4,0,1,1,2.65,5A4,4,0,0,1,1263.46,106.15Z"/><path class="cls-16" d="M1284,116.67a4,4,0,1,1,5-2.65A4,4,0,0,1,1284,116.67Z"/><path class="cls-16" d="M1299.38,117.2a4,4,0,1,1,2.65,5A4,4,0,0,1,1299.38,117.2Z"/><path class="cls-16" d="M1317.08,122.65a4,4,0,1,1,2.65,5A4,4,0,0,1,1317.08,122.65Z"/><path class="cls-16" d="M1337.67,133.17a4,4,0,1,1,5-2.65A4,4,0,0,1,1337.67,133.17Z"/><path class="cls-16" d="M1353,133.69a4,4,0,1,1,2.65,5A4,4,0,0,1,1353,133.69Z"/><path class="cls-16" d="M1370.66,139.14a4,4,0,1,1,2.65,5A4,4,0,0,1,1370.66,139.14Z"/><path class="cls-16" d="M1391.25,149.66a4,4,0,1,1,5-2.65A4,4,0,0,1,1391.25,149.66Z"/><path class="cls-16" d="M1405.82,150a4,4,0,1,1,2.65,5A4,4,0,0,1,1405.82,150Z"/><path class="cls-16" d="M1423.52,155.4a4,4,0,1,1,2.65,5A4,4,0,0,1,1423.52,155.4Z"/><path class="cls-16" d="M1444.11,165.92a4,4,0,1,1,5-2.65A4,4,0,0,1,1444.11,165.92Z"/><path class="cls-16" d="M1459.4,166.44a4,4,0,1,1,2.64,5A4,4,0,0,1,1459.4,166.44Z"/><path class="cls-16" d="M1477.1,171.89a4,4,0,1,1,2.65,5A4,4,0,0,1,1477.1,171.89Z"/><path class="cls-16" d="M1497.69,182.41a4,4,0,1,1,5-2.65A4,4,0,0,1,1497.69,182.41Z"/><path class="cls-16" d="M1309.44,393.94a4,4,0,1,1,5.59-.86A4,4,0,0,1,1309.44,393.94Z"/><path class="cls-16" d="M1320.38,379a4,4,0,1,1,5.6-.87A4,4,0,0,1,1320.38,379Z"/><path class="cls-16" d="M1337.07,363a4,4,0,1,1-.87-5.59A4,4,0,0,1,1337.07,363Z"/><path class="cls-16" d="M1342.56,348.72a4,4,0,1,1,5.6-.87A4,4,0,0,1,1342.56,348.72Z"/><path class="cls-16" d="M1353.51,333.77a4,4,0,1,1,5.6-.86A4,4,0,0,1,1353.51,333.77Z"/><path class="cls-16" d="M1370.19,317.77a4,4,0,1,1-.86-5.59A4,4,0,0,1,1370.19,317.77Z"/><path class="cls-16" d="M1375.72,303.46a4,4,0,1,1,5.59-.87A4,4,0,0,1,1375.72,303.46Z"/><path class="cls-16" d="M1386.67,288.51a4,4,0,1,1,5.59-.86A4,4,0,0,1,1386.67,288.51Z"/><path class="cls-16" d="M1403.35,272.51a4,4,0,1,1-.86-5.59A4,4,0,0,1,1403.35,272.51Z"/><path class="cls-16" d="M1408.85,258.24a4,4,0,1,1,5.59-.87A4,4,0,0,1,1408.85,258.24Z"/><path class="cls-16" d="M1419.79,243.29a4,4,0,1,1,5.6-.86A4,4,0,0,1,1419.79,243.29Z"/><path class="cls-16" d="M1436.48,227.29a4,4,0,1,1-.87-5.6A4,4,0,0,1,1436.48,227.29Z"/><path class="cls-16" d="M1441.53,213.62a4,4,0,1,1,5.6-.86A4,4,0,0,1,1441.53,213.62Z"/><path class="cls-16" d="M1452.48,198.68a4,4,0,1,1,5.59-.87A4,4,0,0,1,1452.48,198.68Z"/><path class="cls-16" d="M1469.16,182.67a4,4,0,1,1-.86-5.59A4,4,0,0,1,1469.16,182.67Z"/><path class="cls-16" d="M1474.66,168.4a4,4,0,1,1,5.59-.87A4,4,0,0,1,1474.66,168.4Z"/><path class="cls-16" d="M1485.61,153.46a4,4,0,1,1,5.59-.87A4,4,0,0,1,1485.61,153.46Z"/><path class="cls-16" d="M1502.29,137.45a4,4,0,1,1-.86-5.59A4,4,0,0,1,1502.29,137.45Z"/><path class="cls-16" d="M1342.57,456.67a4,4,0,1,1,4.59,3.3A4,4,0,0,1,1342.57,456.67Z"/><path class="cls-16" d="M1360.84,453.67a4,4,0,1,1,4.6,3.31A4,4,0,0,1,1360.84,453.67Z"/><path class="cls-16" d="M1384,453.94a4,4,0,1,1,3.31-4.6A4,4,0,0,1,1384,453.94Z"/><path class="cls-16" d="M1397.88,447.6a4,4,0,1,1,4.6,3.3A4,4,0,0,1,1397.88,447.6Z"/><path class="cls-16" d="M1416.16,444.61a4,4,0,1,1,4.6,3.3A4,4,0,0,1,1416.16,444.61Z"/><path class="cls-16" d="M1439.28,444.87a4,4,0,1,1,3.3-4.6A4,4,0,0,1,1439.28,444.87Z"/><path class="cls-16" d="M1453.25,438.53a4,4,0,1,1,4.6,3.3A4,4,0,0,1,1453.25,438.53Z"/><path class="cls-16" d="M1471.53,435.53a4,4,0,1,1,4.6,3.3A4,4,0,0,1,1471.53,435.53Z"/><path class="cls-16" d="M1494.65,435.8a4,4,0,1,1,3.3-4.6A4,4,0,0,1,1494.65,435.8Z"/><path class="cls-16" d="M1508.57,429.46a4,4,0,1,1,4.6,3.3A4,4,0,0,1,1508.57,429.46Z"/><path class="cls-16" d="M1526.85,426.46a4,4,0,1,1,4.6,3.3A4,4,0,0,1,1526.85,426.46Z"/><path class="cls-16" d="M1550,426.73a4,4,0,1,1,3.3-4.6A4,4,0,0,1,1550,426.73Z"/><path class="cls-16" d="M1563.15,420.51a4,4,0,1,1,4.6,3.3A4,4,0,0,1,1563.15,420.51Z"/><path class="cls-16" d="M1581.43,417.52a4,4,0,1,1,4.6,3.3A4,4,0,0,1,1581.43,417.52Z"/><path class="cls-16" d="M1604.54,417.78a4,4,0,1,1,3.31-4.6A4,4,0,0,1,1604.54,417.78Z"/><path class="cls-16" d="M1618.47,411.44a4,4,0,1,1,4.59,3.31A4,4,0,0,1,1618.47,411.44Z"/><path class="cls-16" d="M1636.75,408.45a4,4,0,1,1,4.59,3.3A4,4,0,0,1,1636.75,408.45Z"/><path class="cls-16" d="M1659.86,408.71a4,4,0,1,1,3.31-4.59A4,4,0,0,1,1659.86,408.71Z"/><path class="cls-16" d="M1237.35,383.65a4,4,0,1,1,2.59-5A4,4,0,0,1,1237.35,383.65Z"/><path class="cls-16" d="M1231.71,366a4,4,0,1,1,2.59-5A4,4,0,0,1,1231.71,366Z"/><path class="cls-16" d="M1228.59,343.1a4,4,0,1,1-5-2.59A4,4,0,0,1,1228.59,343.1Z"/><path class="cls-16" d="M1220.28,330.26a4,4,0,1,1,2.59-5A4,4,0,0,1,1220.28,330.26Z"/><path class="cls-16" d="M1214.64,312.61a4,4,0,1,1,2.59-5A4,4,0,0,1,1214.64,312.61Z"/><path class="cls-16" d="M1211.52,289.71a4,4,0,1,1-5-2.6A4,4,0,0,1,1211.52,289.71Z"/><path class="cls-16" d="M1203.2,276.82a4,4,0,1,1,2.59-5A4,4,0,0,1,1203.2,276.82Z"/><path class="cls-16" d="M1197.56,259.17a4,4,0,1,1,2.59-5A4,4,0,0,1,1197.56,259.17Z"/><path class="cls-16" d="M1194.44,236.27a4,4,0,1,1-5-2.6A4,4,0,0,1,1194.44,236.27Z"/><path class="cls-16" d="M1186.13,223.42a4,4,0,1,1,2.59-5A4,4,0,0,1,1186.13,223.42Z"/><path class="cls-16" d="M1180.49,205.78a4,4,0,1,1,2.59-5A4,4,0,0,1,1180.49,205.78Z"/><path class="cls-16" d="M1177.36,182.87a4,4,0,1,1-5-2.59A4,4,0,0,1,1177.36,182.87Z"/><path class="cls-16" d="M1169.29,170.74a4,4,0,1,1,2.59-5A4,4,0,0,1,1169.29,170.74Z"/><path class="cls-16" d="M1163.65,153.1a4,4,0,1,1,2.59-5A4,4,0,0,1,1163.65,153.1Z"/><path class="cls-16" d="M1160.52,130.19a4,4,0,1,1-5-2.59A4,4,0,0,1,1160.52,130.19Z"/><path class="cls-16" d="M1152.22,117.35a4,4,0,1,1,2.59-5A4,4,0,0,1,1152.22,117.35Z"/><path class="cls-16" d="M1146.57,99.7a4,4,0,1,1,2.6-5A4,4,0,0,1,1146.57,99.7Z"/><path class="cls-16" d="M1143.45,76.8a4,4,0,1,1-5-2.6A4,4,0,0,1,1143.45,76.8Z"/><path class="cls-16" d="M783.47,259.89a4,4,0,1,1,5.57,1A4,4,0,0,1,783.47,259.89Z"/><path class="cls-16" d="M798.72,249.37a4,4,0,1,1,5.56,1A4,4,0,0,1,798.72,249.37Z"/><path class="cls-16" d="M819.73,239.73a4,4,0,1,1,1-5.57A4,4,0,0,1,819.73,239.73Z"/><path class="cls-16" d="M829.61,228.05a4,4,0,1,1,5.56,1A4,4,0,0,1,829.61,228.05Z"/><path class="cls-16" d="M844.85,217.52a4,4,0,1,1,5.57,1A4,4,0,0,1,844.85,217.52Z"/><path class="cls-16" d="M865.86,207.88a4,4,0,1,1,1-5.56A4,4,0,0,1,865.86,207.88Z"/><path class="cls-16" d="M875.78,196.17a4,4,0,1,1,5.57,1A4,4,0,0,1,875.78,196.17Z"/><path class="cls-16" d="M891,185.65a4,4,0,1,1,5.56,1A4,4,0,0,1,891,185.65Z"/><path class="cls-16" d="M912,176a4,4,0,1,1,1-5.57A4,4,0,0,1,912,176Z"/><path class="cls-16" d="M921.92,164.33a4,4,0,1,1,5.56,1A4,4,0,0,1,921.92,164.33Z"/><path class="cls-16" d="M937.16,153.81a4,4,0,1,1,5.57,1A4,4,0,0,1,937.16,153.81Z"/><path class="cls-16" d="M958.17,144.17a4,4,0,1,1,1-5.57A4,4,0,0,1,958.17,144.17Z"/><path class="cls-16" d="M967.43,132.92a4,4,0,1,1,5.57,1A4,4,0,0,1,967.43,132.92Z"/><path class="cls-16" d="M982.68,122.39a4,4,0,1,1,5.57,1A4,4,0,0,1,982.68,122.39Z"/><path class="cls-16" d="M1003.69,112.75a4,4,0,1,1,1-5.57A4,4,0,0,1,1003.69,112.75Z"/><path class="cls-16" d="M1013.57,101.07a4,4,0,1,1,5.57,1A4,4,0,0,1,1013.57,101.07Z"/><path class="cls-16" d="M1028.81,90.55a4,4,0,1,1,5.57,1A4,4,0,0,1,1028.81,90.55Z"/><path class="cls-16" d="M1049.83,80.91a4,4,0,1,1,1-5.57A4,4,0,0,1,1049.83,80.91Z"/><path class="cls-16" d="M1548.82,205.15a4,4,0,1,1-.12,5.66A4,4,0,0,1,1548.82,205.15Z"/><path class="cls-16" d="M1561.64,218.52a4,4,0,1,1-.12,5.66A4,4,0,0,1,1561.64,218.52Z"/><path class="cls-16" d="M1574.5,237.73a4,4,0,1,1,5.66.12A4,4,0,0,1,1574.5,237.73Z"/><path class="cls-16" d="M1587.6,245.62a4,4,0,1,1-.12,5.66A4,4,0,0,1,1587.6,245.62Z"/><path class="cls-16" d="M1600.42,259a4,4,0,1,1-.12,5.66A4,4,0,0,1,1600.42,259Z"/><path class="cls-16" d="M1613.28,278.21a4,4,0,1,1,5.66.12A4,4,0,0,1,1613.28,278.21Z"/><path class="cls-16" d="M1626.42,286.14a4,4,0,1,1-.12,5.66A4,4,0,0,1,1626.42,286.14Z"/><path class="cls-16" d="M1639.23,299.51a4,4,0,1,1-.12,5.66A4,4,0,0,1,1639.23,299.51Z"/><path class="cls-16" d="M1652.1,318.72a4,4,0,1,1,5.65.12A4,4,0,0,1,1652.1,318.72Z"/><path class="cls-16" d="M1665.2,326.61a4,4,0,1,1-.12,5.66A4,4,0,0,1,1665.2,326.61Z"/><path class="cls-16" d="M1678,340a4,4,0,1,1-.12,5.66A4,4,0,0,1,1678,340Z"/><path class="cls-16" d="M1690.88,359.2a4,4,0,1,1,5.66.12A4,4,0,0,1,1690.88,359.2Z"/><circle class="cls-16" cx="1118.13" cy="56.65" r="56.65" transform="translate(883.11 1151.27) rotate(-80.78)"/><path class="cls-1" d="M1100,33.92a18.18,18.18,0,1,1,18.18,18.18A18.18,18.18,0,0,1,1100,33.92Z"/><path class="cls-1" d="M1118.13,52.1a31.82,31.82,0,0,0-31.82,31.82H1150A31.82,31.82,0,0,0,1118.13,52.1Z"/><circle class="cls-17" cx="1510.64" cy="156.58" r="87.29" transform="translate(1151.47 1632.23) rotate(-82.24)"/><circle class="cls-1" cx="1510.64" cy="121.55" r="28.02"/><path class="cls-1" d="M1510.64,149.57a49,49,0,0,0-49,49h98.06A49,49,0,0,0,1510.64,149.57Z"/><circle class="cls-16" cx="1729.17" cy="321.78" r="58.93" transform="translate(1238.56 2010.83) rotate(-84.34)"/><path class="cls-1" d="M1736.15,335.8a9,9,0,0,0-.46-3.19,6.63,6.63,0,0,0-1.63-2.52,12.29,12.29,0,0,0-3-2.11,33.56,33.56,0,0,0-4.45-1.92,87.74,87.74,0,0,1-8.2-3.46,27.5,27.5,0,0,1-6.29-4.12,16.21,16.21,0,0,1-4-5.4,18.39,18.39,0,0,1,0-13.95,15.47,15.47,0,0,1,3.79-5.2,19.28,19.28,0,0,1,5.82-3.55,25.86,25.86,0,0,1,7.56-1.68l.13-9.22,7.42.11-.13,9.35a23,23,0,0,1,7.2,2.21,17.39,17.39,0,0,1,8.86,10.27,23.11,23.11,0,0,1,1.12,7.79l-13.4-.19c0-3.45-.67-6-2.18-7.77a7.84,7.84,0,0,0-6.1-2.65,10,10,0,0,0-3.6.53,6.7,6.7,0,0,0-2.51,1.56,6.24,6.24,0,0,0-1.47,2.37,9.42,9.42,0,0,0-.51,3,8.48,8.48,0,0,0,.43,2.89,6.19,6.19,0,0,0,1.56,2.42,13.05,13.05,0,0,0,3,2.11,45.8,45.8,0,0,0,4.63,2.07q4.47,1.74,8.13,3.56a28.24,28.24,0,0,1,6.27,4.16,17.39,17.39,0,0,1,4,19.46,15.21,15.21,0,0,1-3.81,5.16,18.61,18.61,0,0,1-5.86,3.45,28.12,28.12,0,0,1-7.61,1.61l-.12,8.57-7.37-.11.12-8.53a31.26,31.26,0,0,1-7.42-1.78,19.91,19.91,0,0,1-6.32-3.82,17.75,17.75,0,0,1-4.36-6.2,21.61,21.61,0,0,1-1.54-8.9l13.4.2a13.24,13.24,0,0,0,.78,5.11,8.55,8.55,0,0,0,2.25,3.31,8.43,8.43,0,0,0,3.24,1.77,14.26,14.26,0,0,0,3.73.55,12.1,12.1,0,0,0,3.83-.5,8.14,8.14,0,0,0,2.78-1.51,6.3,6.3,0,0,0,1.7-2.33A7.5,7.5,0,0,0,1736.15,335.8Z"/></g></g></svg>