<svg xmlns="http://www.w3.org/2000/svg" viewBox="0 0 1932.4 1779.07"><defs><style>.cls-1{fill:#ffb27d;}.cls-2{fill:#f99746;}.cls-3{fill:#efa26f;}.cls-4{fill:#ffc197;}.cls-5{fill:#2b478b;}.cls-6{fill:#fff;}.cls-7{fill:#ffd3b6;}.cls-8{fill:#ed7d2b;}.cls-9{fill:#f7faff;}.cls-10{fill:#cbe1fd;}.cls-11{fill:#9ec3f6;}.cls-12{fill:#f2f7ff;}</style></defs><title>89Asset 1logo 5</title><g id="Layer_2" data-name="Layer 2"><g id="Layer_1-2" data-name="Layer 1"><path class="cls-1" d="M1167.4,771s-95.75,191.54-193,323.75c-38.69,52.63-77.63,95.85-110.86,113.87-32.54,17.64-60.07,45-82.86,75.41-59,78.63-86.26,177.07-86.26,177.07L445.72,1084.83s8.48-367.78,38.34-429.3c43.52-89.65,64.55-270.8,81.27-306.86,12.4-26.75,47.82-164.94,51.22-175.1,1.47-4.37,13.26-11.08,28.56-11.07,12.29,0,33.14,11.87,38.4,36.27,26.59,123.31-5.42,204.64-5.06,208.26,9.39,94.76-18.82,165.11,1,183.74.74.69,2.1.36,4-.87,34.28-22,247.07-332.25,273.28-338.94C984.42,243.9,1167.4,771,1167.4,771Z"/><path class="cls-2" d="M769.23,1386.62s-3.39,167.2-13.08,392.38H128.83c143.4-305.78,268.06-563.14,268.06-563.14S754.07,1226.77,769.23,1386.62Z"/><path class="cls-1" d="M1384.83,122.74l-77,112.9-75.58,110.8c-4.6,5.56-9.94,7.49-15.71,6.94-18.13-1.72-40.57-27.88-58.06-42.36l-1.77-1.46a54.54,54.54,0,0,1-7.24-76.59L1265,93.34h0l34.26-41.41a54.55,54.55,0,0,1,76.59-7.24l1.77,1.46A54.56,54.56,0,0,1,1384.83,122.74Z"/><path class="cls-3" d="M1307.82,235.64l-75.58,110.8c-4.6,5.56-9.94,7.49-15.71,6.94l48.44-260C1265.07,94.8,1273.31,211.47,1307.82,235.64Z"/><path class="cls-3" d="M974.39,1094.73c-38.69,52.63-77.63,95.85-110.86,113.87-32.54,17.64-60.07,45-82.86,75.41-26.21-12.22-56.09-26.55-85.3-40.75-35.56-17.28-36.92-67.78-2.09-86.49l1-.55c32.64-18.68,66.09-84.63,66.09-84.63Z"/><path class="cls-4" d="M614.81,179.3l-20.15,81.35s17.62,7.2,28.93,1.61S644.14,183.67,614.81,179.3Z"/><rect class="cls-5" x="683.51" y="25.77" width="588.29" height="1107.41" rx="77.49"/><path class="cls-6" d="M1242.64,110.59v930.35c0,31.57-25.64,57.38-57,57.38H769.62c-31.32,0-57-25.81-57-57.38V110.59c0-31.56,25.63-57.37,57-57.37h416.06C1217,53.22,1242.64,79,1242.64,110.59Z"/><rect class="cls-5" x="864.96" y="32.26" width="225.4" height="55.56" rx="25.75"/><path class="cls-1" d="M1346.49,549.1,1335,553.47l-77.23,29.34a48.8,48.8,0,0,1-5.47,1.74,52.74,52.74,0,0,1-62.37-32.22l-1.14-3a52.75,52.75,0,0,1,30.49-67.85l72-27.36,5.23-2,11.48-4.37a52.75,52.75,0,0,1,67.85,30.49l1.13,3A52.76,52.76,0,0,1,1346.49,549.1Z"/><path class="cls-7" d="M1283.78,550.87c-12.89,4.89-36.23,13.55-48.71,15.35-3.52.51-10-1.41-16.1-8.06-3.64-4-7.13-9.66-9.71-17.52a55,55,0,0,1-2.64-11.18,47,47,0,0,1,.42-13.3,13.3,13.3,0,0,1,7.37-9.49s0,0,.06,0c13.26-6.33,31.15-14.06,46.83-18.36,10.85-3,21.81,1.79,25.24,11.28l1.63,4.43,8.28,22.7C1299.88,536.12,1294.31,546.91,1283.78,550.87Z"/><path class="cls-4" d="M1283.78,550.87c-12.89,4.89-36.23,13.55-48.71,15.35-3.52.51-10-1.41-16.1-8.06-.65-1.51-1.24-3.11-1.81-4.82a55.7,55.7,0,0,1-2.64-11.18,47.44,47.44,0,0,1,.42-13.3,13.29,13.29,0,0,1,7.37-9.48l.06,0c13.27-6.34,31.16-14.06,46.84-18.37a22.2,22.2,0,0,1,19,3l8.28,22.7C1299.88,536.12,1294.31,546.91,1283.78,550.87Z"/><path class="cls-1" d="M1311.45,657.68l-59.56,16.21A34.2,34.2,0,0,1,1210,650l-1.83-6.74a34.19,34.19,0,0,1,23.94-41.86l59.56-16.22a34.2,34.2,0,0,1,41.86,24l1.84,6.74A34.21,34.21,0,0,1,1311.45,657.68Z"/><path class="cls-7" d="M1279.25,654.76c-10.94,2.92-30.72,8.07-41.08,8.64-3.77.21-11.32-3-16.25-12.89a39.48,39.48,0,0,1-3.05-8.4,40,40,0,0,1-1.33-8.75,34.21,34.21,0,0,1,1.33-10.2,10.56,10.56,0,0,1,6.73-6.8s.05,0,.06,0c11.35-4,26.59-8.79,39.78-11.09,9.11-1.6,17.75,2.78,19.88,10.29l1.54,5.36,4.58,16.11C1293.56,644.45,1288.18,652.39,1279.25,654.76Z"/><path class="cls-4" d="M1279.25,654.76c-10.94,2.92-30.72,8.07-41.08,8.64-3.77.21-11.32-3-16.25-12.89a37.26,37.26,0,0,1-1.2-8.22,34.19,34.19,0,0,1,1.33-10.19,10.56,10.56,0,0,1,6.73-6.8l.06,0c11.35-4,26.59-8.8,39.78-11.08,7.53-1.33,14.76,1.45,18.24,6.7l4.58,16.11C1293.56,644.45,1288.18,652.39,1279.25,654.76Z"/><path class="cls-8" d="M335.82,1342.71S458.4,1460.12,541,1505.45l62.57-44.37v65.46s123,21.76,161.87,0V1348L419.86,1174.75Z"/><path class="cls-6" d="M791.58,1512.34c-47.6,9.76-150.22-27.64-150.22-27.64l16.55-159.86L542,1457.64c-59-22-151.3-79.27-206.14-114.93-27.3-17.76-45.32-30.15-45.32-30.15,77.38-124.51,155.22-241,155.22-241,22.84,45.7,76.92,85.39,135.53,117.13,97.41,52.76,207.36,83.58,207.36,83.58C788.58,1367.31,791.58,1512.34,791.58,1512.34Z"/><path class="cls-1" d="M1344.62,435c-.43.16-.85.3-1.29.44l-78.08,20c-34.33,8.83-69.83-9.75-78.9-41.27L1181.71,398c-8.71-30.27,10-61.92,41.91-72.18l25.78-6.62,52.3-13.43c34.33-8.82,69.84,9.76,78.9,41.28l4.64,16.15C1393.83,393.08,1375.73,424.26,1344.62,435Z"/><path class="cls-7" d="M1308.83,413.16l-37.93,17.1-.24.06a39.18,39.18,0,0,1-4.58.94c-.64.1-1.29.17-1.93.24a5.31,5.31,0,0,1-.8,0,6,6,0,0,1-5.24-8.53,37.72,37.72,0,0,0,2.15-25.72l-.9-3.3a.29.29,0,0,0,0-.1l-2.94-10.77a40.38,40.38,0,0,0-13.75-21c-.77-.63-1.58-1.23-2.4-1.79-7.49-5.2-5.59-16.95,3.19-19.4l.24-.07,41.63-6.29c10.29-2.8,20.2,5.12,23,15.41l3.35,12.27,7.11,26.16C1321.57,398.72,1319.13,410.37,1308.83,413.16Z"/><path class="cls-4" d="M1308.83,413.16l-37.93,17.1-.24.06c-.89.17-3.67.63-7.31,1.2a6,6,0,0,1-5.24-8.53,37.72,37.72,0,0,0,2.15-25.72l-.9-3.3a.29.29,0,0,0,0-.1l-2.94-10.77a40.38,40.38,0,0,0-13.75-21,10.62,10.62,0,0,1,6-4.25l.24-.07,41.63-6.29c8.67-2.36,17.06,2.89,21.18,10.74l7.11,26.16C1321.57,398.72,1319.13,410.37,1308.83,413.16Z"/><path class="cls-3" d="M683.51,841.09s-17-148.69-32.75-177.68-29-87.07-4.84-130.21S678.45,407,678.45,407c9.39,94.76-18.82,165.11,1,183.74.74.69,2.1.36,4-.87Z"/><path class="cls-9" d="M44.33,762.41H333.25a42,42,0,0,1,41.87,41.87V931a38.58,38.58,0,0,1-38.46,38.47h-7.42l13.92,58.79L255.77,969.5H41.84A42,42,0,0,1,0,927.66V806.74A44.46,44.46,0,0,1,44.33,762.41Z"/><path class="cls-10" d="M36.58,854.41H337.83a7.49,7.49,0,0,0,7.46-7.46h0a7.49,7.49,0,0,0-7.46-7.46H36.58A7.49,7.49,0,0,0,29.12,847h0A7.49,7.49,0,0,0,36.58,854.41Z"/><path class="cls-10" d="M36.58,887.81H337.83a7.49,7.49,0,0,0,7.46-7.47h0a7.48,7.48,0,0,0-7.46-7.45H36.58a7.48,7.48,0,0,0-7.46,7.45h0A7.49,7.49,0,0,0,36.58,887.81Z"/><path class="cls-10" d="M36.58,921.2H337.83a7.49,7.49,0,0,0,7.46-7.46h0a7.49,7.49,0,0,0-7.46-7.46H36.58a7.49,7.49,0,0,0-7.46,7.46h0A7.49,7.49,0,0,0,36.58,921.2Z"/><path class="cls-10" d="M200.7,811.43H328.59a8.9,8.9,0,0,0,8.88-8.88h0a8.9,8.9,0,0,0-8.88-8.88H200.7a8.9,8.9,0,0,0-8.88,8.88h0A8.91,8.91,0,0,0,200.7,811.43Z"/><rect class="cls-10" x="83.78" y="793.67" width="90.99" height="17.76" rx="7.02" transform="translate(258.55 1605.09) rotate(180)"/><polygon class="cls-11" points="1496.03 826.69 1677.74 886.11 1568.89 780.01 1557.84 805.93 1511.07 806.16 1496.03 826.69"/><polygon class="cls-6" points="1677.74 886.11 1536.71 778.82 1386.03 744.4 1677.74 886.11"/><polygon class="cls-6" points="1568.89 780.01 1677.74 886.11 1605.19 737.48 1568.89 780.01"/><polygon class="cls-11" points="343.59 95.84 173.74 120.07 286.46 43.24 292.19 67.87 333.49 75.35 343.59 95.84"/><polygon class="cls-6" points="173.74 120.07 315.08 47.2 453.62 40.23 173.74 120.07"/><polygon class="cls-6" points="286.46 43.24 173.74 120.07 261 0 286.46 43.24"/><path class="cls-6" d="M792.9,111.41,787,115.67l-6-4.21a7.3,7.3,0,0,1,11.89,0Z"/><path class="cls-6" d="M787,98a17.61,17.61,0,0,0-14.42,7.5l3.76,2.64a13,13,0,0,1,21.26-.08l3.75-2.69A17.64,17.64,0,0,0,787,98Z"/><path class="cls-6" d="M787,78.29a37.28,37.28,0,0,0-30.52,15.86l3.77,2.64a32.71,32.71,0,0,1,53.37-.2l3.73-2.69A37.26,37.26,0,0,0,787,78.29Z"/><path class="cls-6" d="M787,89.08a26.67,26.67,0,0,0-21.76,11.24L769,103a22.12,22.12,0,0,1,35.91-.14l3.73-2.67A26.65,26.65,0,0,0,787,89.08Z"/><path class="cls-1" d="M1887,1779.07H1427c-22.06-14.79-136.63-92.94-184-151.2-10-12.35-46.79-118.75-75-205.14-17.63-54-32-100.14-34.37-110.73-.84-3.69-1.4-11-1.74-20.9v-.1c-1.2-35.33.44-103.46,2.13-157.58v-.25l0-.71c.08-2.38.15-4.72.23-7v-.08c0-.23,0-.47,0-.7.31-9.4.61-18.26.89-26.32.71-20.14,1.31-35.29,1.56-41.22l.1-2.76h0c.73-.41,22.86-12.22,52.44,9.09,7.14,5.15,13.74,17.59,19.76,33.82,3.85,10.36,7.46,22.26,10.82,34.8,12.92,48.23,22.19,105.89,27.14,121.33,8,25,102,134.67,107.92,141.49.09.12.19.23.28.34V1221.93l-71-190-29.15-78-14.65-39.2A706.69,706.69,0,0,1,1199,833.46c-8.25-19.42-15.81-40.27-20.49-60.09-1.12-4.72-2.07-9.39-2.83-14v0c-2.77-16.75-3-32.29.89-44.94,6.87-22.53,22.35-26.77,34.24-26.31,1.23,0,2.42.15,3.57.28a24.31,24.31,0,0,1,3.42.66,23.82,23.82,0,0,1,5.91,2.46s0,0,0,0a24,24,0,0,1,7.72,7.22s10,13.11,23.51,30.73c8.86,11.6,19.21,25.15,29.15,38.21,17.7,23.27,34.14,45,38.66,51.34,24.43,34.39,90.21,146.46,90.21,146.46l77,3.23a51.08,51.08,0,0,1,32.73,13.7c27.38,25.57,86.41,80.9,93.65,89.13,0,2.7,45.88,24.76,81.31,44.4,25.35,10.71,73.5,48.67,73.5,48.67,10,8.81,17.58,17.58,21.43,26,16.51,35.93,61.29,348.42,82.7,502.9C1882.2,1743.17,1886.67,1776.5,1887,1779.07Z"/><path class="cls-3" d="M1413,965.52s71.33,116.44,80.77,121.68,46.16,12.59,50.35,0S1413,965.52,1413,965.52Z"/><path class="cls-3" d="M1771.54,1165l-.36-.32s-48.15-38-73.5-48.67c-32.53-18-73.86-38.1-80.41-43.36,7.55,8.64,60.68,68.76,81.12,73.26C1716.34,1149.84,1757.12,1161,1771.54,1165Z"/><path class="cls-3" d="M1355.13,1395.2V1221.93s41.17,68.85,44.31,106.62S1382.34,1427.44,1355.13,1395.2Z"/><path class="cls-7" d="M1205.78,759.36c-6-10.32-16.79-29-20.5-39.5-1-3-.92-8.88,2.72-15.19a34.36,34.36,0,0,1,10.8-11.21,35.75,35.75,0,0,1,7.58-4.09,29.73,29.73,0,0,1,9.7-1.79,10.31,10.31,0,0,1,8.29,4.82l0,0c7.15,10.42,16.19,24.59,22.33,37.41,4.26,8.86,2.91,19.09-3.29,23.59l-2.89,2.11-14.82,10.83C1219.56,770.86,1210.69,767.8,1205.78,759.36Z"/><path class="cls-4" d="M1205.78,759.36c-6-10.32-16.79-29-20.5-39.5-1-3-.92-8.88,2.72-15.19,1-.8,2-1.57,3.14-2.34a36.09,36.09,0,0,1,7.57-4.08,29.23,29.23,0,0,1,9.71-1.79,10.27,10.27,0,0,1,8.28,4.81s0,0,0,.05c7.14,10.41,16.18,24.58,22.32,37.4,2.73,5.68,3.16,11.91,1.49,16.83l-14.82,10.83C1219.56,770.86,1210.69,767.8,1205.78,759.36Z"/><path class="cls-3" d="M1655.88,1707.92l-137.43,71.15H1427c-22.06-14.79-136.63-92.94-184-151.2-10-12.35-46.79-118.75-75-205.14v0c3.75,11.47,82.56,179.32,105,198.4s140.26,130.16,172.8,129c31.52-1.08,199.32-39.7,209.72-42.09Z"/><path class="cls-6" d="M1932.4,1779.07H1436.94c24.85-9.75,119.92-46.07,218.47-71l.47-.11c84.64-21.41,171.77-34.39,219.09-14.92l.34.51Z"/><path class="cls-3" d="M1134.2,1124.64h0c8.35-3.07,20.07-5.09,25.77,4.44,8.88,14.82-24.1,145.58-28.22,162Z"/><path class="cls-4" d="M1136.76,1054.33l-2.84,79.09s16.63,2.71,26.09-4.35S1164.46,1053.4,1136.76,1054.33Z"/><path class="cls-12" d="M791.58,1512.34c-47.6,9.76-150.22-27.64-150.22-27.64l16.55-159.86L542,1457.64c-59-22-151.3-79.27-206.14-114.93,140.52-15.31,245.43-154,245.43-154,97.41,52.76,207.36,83.58,207.36,83.58C788.58,1367.31,791.58,1512.34,791.58,1512.34Z"/><path class="cls-2" d="M464.87,1367.13A19.3,19.3,0,1,1,484,1386.61,19.3,19.3,0,0,1,464.87,1367.13Z"/><path class="cls-6" d="M1776.58,310.25a20.37,20.37,0,0,0-.29-7.19,15,15,0,0,0-3-6,28.4,28.4,0,0,0-6.08-5.37,74.41,74.41,0,0,0-9.43-5.27,194.81,194.81,0,0,1-17.39-9.56,61.66,61.66,0,0,1-13-10.59,36.15,36.15,0,0,1-7.69-12.91,40.91,40.91,0,0,1,3.31-30.94,34.33,34.33,0,0,1,9.59-10.66,43,43,0,0,1,13.75-6.55,57.43,57.43,0,0,1,17.15-2l2.42-20.41,16.43,2-2.45,20.7a51.42,51.42,0,0,1,15.46,6.57,38.85,38.85,0,0,1,17.3,24.84,51.38,51.38,0,0,1,.68,17.53l-29.67-3.52q1.35-11.44-3-17.72t-12.93-7.29a22.31,22.31,0,0,0-8.12.34,15.26,15.26,0,0,0-5.91,2.88,14.15,14.15,0,0,0-3.81,4.92,20.76,20.76,0,0,0-1.81,6.46,18.88,18.88,0,0,0,.27,6.51,14,14,0,0,0,2.92,5.71,28,28,0,0,0,6.13,5.37,94.29,94.29,0,0,0,9.79,5.66q9.51,4.9,17.22,9.78a62.47,62.47,0,0,1,12.94,10.68,35,35,0,0,1,9,29.36,37.27,37.27,0,0,1-4.71,14.72,34,34,0,0,1-9.63,10.56,41.7,41.7,0,0,1-13.82,6.3,61.94,61.94,0,0,1-17.24,1.82l-2.25,19L1742.29,364l2.24-18.88a69.31,69.31,0,0,1-16-5.68,43.81,43.81,0,0,1-13.14-9.92,39.44,39.44,0,0,1-8.25-14.76q-2.71-8.65-1.36-20.09l29.67,3.52a29.44,29.44,0,0,0,.56,11.53,19.06,19.06,0,0,0,4.22,7.85,18.57,18.57,0,0,0,6.79,4.67,31.26,31.26,0,0,0,8.13,2.08,26.51,26.51,0,0,0,8.62-.23,17.71,17.71,0,0,0,6.52-2.71,14.23,14.23,0,0,0,4.31-4.76A17.23,17.23,0,0,0,1776.58,310.25Z"/></g></g></svg>