<svg xmlns="http://www.w3.org/2000/svg" xmlns:xlink="http://www.w3.org/1999/xlink" viewBox="0 0 504.67 703.53"><defs><style>.cls-1{fill:#aab5ae;}.cls-2{fill:#c0c9c3;}.cls-3{isolation:isolate;}.cls-4{fill:#e4eadf;}.cls-5{fill:#15492a;}.cls-6{fill:#c5ccba;}.cls-7{fill:#acb79e;}.cls-8{fill:#d3ddca;}.cls-9{fill:#c2ccb8;}.cls-10{fill:#cfd6c9;}.cls-11{fill:#7e8e66;}.cls-12{fill:#1b2f35;}.cls-13{fill:#fff;}.cls-14{fill:#1d282e;}.cls-15{fill:#2b434a;}.cls-16{fill:#fcc49a;}.cls-17{fill:#f2e6dc;}.cls-18,.cls-19,.cls-33{mix-blend-mode:multiply;}.cls-19{opacity:0.26;}.cls-20{fill:#1f363d;}.cls-21{fill:#162a2e;}.cls-22{fill:#334f57;}.cls-23{fill:#0d2528;}.cls-24{fill:#eaae86;}.cls-25{fill:#603e2b;}.cls-26{fill:#e2a479;}.cls-27{fill:#3f2615;}.cls-28{opacity:0.3;}.cls-29{fill:#ff8f71;}.cls-30{fill:#3f2919;}.cls-31{opacity:0.44;}.cls-32{fill:#052c35;}.cls-33{opacity:0.25;}.cls-34{opacity:0.76;}.cls-35{fill:#e0a512;}.cls-36{fill:#ba8613;}.cls-37{clip-path:url(#clip-path);}.cls-38{opacity:0.71;}.cls-39{clip-path:url(#clip-path-2);}.cls-40{opacity:0.33;}.cls-41{fill:#f4c9ab;}</style><clipPath id="clip-path"><path class="cls-1" d="M433.92,200.35a3.14,3.14,0,0,1-2.43,3.72l-76.2,12A3.11,3.11,0,1,1,354,210l76.2-12A3.13,3.13,0,0,1,433.92,200.35Z"/></clipPath><clipPath id="clip-path-2"><path class="cls-2" d="M430.05,206.64a3.15,3.15,0,0,1-2.92,3.35L350,211.39a3.12,3.12,0,1,1-.49-6.21l77.14-1.4A3.15,3.15,0,0,1,430.05,206.64Z"/></clipPath></defs><title>89Asset 1logo 1x</title><g class="cls-3"><g id="Layer_2" data-name="Layer 2"><g id="Layer_1-2" data-name="Layer 1"><path class="cls-4" d="M374.87,119.25s4.61,14.38,21.08,27.9c14.2,11.67,8.84,28.15,8.84,28.15l29.74-11.53s4.84-15.92-10.89-33.26a226,226,0,0,1-19.08-23.87Z"/><path class="cls-5" d="M403.93,110.42s2.77,4.16,7,9.57c6.22,8,13,14,17.93,23,4.68,8.53,3.26,19,3.26,19l-23.79,8.59s3.26-13.7-9.45-24.37c-18.18-15.26-20.9-25.66-20.9-25.66Z"/><path class="cls-4" d="M403.35,114.28a57.26,57.26,0,0,0,6.53,8.53c5.93,6.35,11.74,12,15.93,19.68,4,7.32,3.91,17,3.91,17l-18.52,6.59A26.11,26.11,0,0,0,402,144.58c-17.33-14.63-19.83-22.29-19.83-22.29Z"/><path class="cls-5" d="M405.31,129.07c-6.85.75-12.35,5.19-8.5,10.72a19.54,19.54,0,0,0,17.66,8.42c7-.72,11.32-5.54,7.36-11.1S412.16,128.32,405.31,129.07Z"/><path class="cls-5" d="M417.12,151.94a2.68,2.68,0,0,0-2,3.34,3.71,3.71,0,0,0,4.95,2.05c1.68-.65,2.42-2.09,1.56-3.68A3.77,3.77,0,0,0,417.12,151.94Z"/><path class="cls-5" d="M396,121.86A2.69,2.69,0,0,0,394,125.2a3.72,3.72,0,0,0,4.95,2c1.69-.65,2.43-2.09,1.57-3.68A3.8,3.8,0,0,0,396,121.86Z"/><path class="cls-4" d="M411.27,139a3,3,0,0,1,.58,2.87,2.81,2.81,0,0,1-2.5,1.45l-.54,0a10.08,10.08,0,0,1-8.28-3.83l-.1-.13-1.74.15-1.35-1.91,1.74-.17-.2-.28c-1.56-2.21-.66-4.22,2-4.47l1.36,1.92c-1.4.13-1.88,1.18-1.06,2.33l.2.29,5.74-.54a3.22,3.22,0,0,1-.64-3.17,3.14,3.14,0,0,1,2.8-1.61,10.06,10.06,0,0,1,8.27,3.8l1.73-.16,1.35,1.92-1.73.16.31.45c1.56,2.21.65,4.22-2,4.47l-1.35-1.92c1.4-.14,1.87-1.18,1.06-2.34l-.32-.44-5.73.54Zm-3.82,2.45.54-.05a1.24,1.24,0,0,0,1-2.11l0-.05-.42-.6-5.77.55.1.14a5.61,5.61,0,0,0,4.59,2.12Zm2-4.94,5.76-.54a5.62,5.62,0,0,0-4.59-2.11,1.52,1.52,0,0,0-1.22,2.6l.05.05Z"/><path class="cls-6" d="M0,213.63s10.07,10.93,30.37,16.22c17.53,4.55,19.55,21.51,19.55,21.51l21.81-22.6s-2.25-16.23-23.48-25.23a223.71,223.71,0,0,1-26.92-13.45Z"/><path class="cls-5" d="M22.33,193.72s4.19,2.57,10.17,5.68C41.39,204,50,206.54,58,212.5c7.71,5.69,10.75,15.6,10.75,15.6L51.05,245.62S48.31,232,32.53,227.74C10,221.62,3.25,213.45,3.25,213.45Z"/><path class="cls-6" d="M23.4,197.4a56,56,0,0,0,9.36,4.93c7.94,3.24,15.46,5.89,22.38,11,6.61,4.89,10.52,13.56,10.52,13.56L51.82,240.45A25.7,25.7,0,0,0,34.7,225.06c-21.53-5.92-26.93-11.73-26.93-11.73Z"/><path class="cls-5" d="M31.27,209.82c-5.82,3.5-8.89,9.74-3.17,13.09a19.25,19.25,0,0,0,19.27.23c5.93-3.53,7.83-9.63,2-13S37.08,206.32,31.27,209.82Z"/><path class="cls-5" d="M51.29,225.38a2.65,2.65,0,0,0-.46,3.83,3.67,3.67,0,0,0,5.28-.22c1.23-1.27,1.3-2.87-.12-3.93A3.71,3.71,0,0,0,51.29,225.38Z"/><path class="cls-5" d="M20,207.21a2.63,2.63,0,0,0-.45,3.83,3.65,3.65,0,0,0,5.27-.22c1.24-1.27,1.3-2.86-.12-3.93A3.71,3.71,0,0,0,20,207.21Z"/><path class="cls-7" d="M40.72,216.27a2.87,2.87,0,0,1,1.7,2.32,2.76,2.76,0,0,1-1.63,2.33l-.46.27a9.89,9.89,0,0,1-9,0l-.14-.08-1.49.86-2-1.15,1.5-.87-.3-.17c-2.31-1.33-2.32-3.5,0-4.84l2,1.16c-1.2.69-1.2,1.82,0,2.53l.3.17,4.91-2.86a3.17,3.17,0,0,1-1.88-2.57,3.11,3.11,0,0,1,1.83-2.6,9.94,9.94,0,0,1,9,0l1.48-.86,2,1.15-1.48.87.45.26c2.32,1.34,2.33,3.5,0,4.84l-2-1.16c1.2-.7,1.19-1.82,0-2.52l-.46-.27-4.91,2.86ZM38.32,220l.46-.27a1.39,1.39,0,0,0,.82-1.16,1.4,1.4,0,0,0-.8-1.13l0,0-.63-.36L33.19,220l.14.08a5.49,5.49,0,0,0,5,0Zm-.23-5.25L43,211.92a5.48,5.48,0,0,0-5,0,1.73,1.73,0,0,0-1,1.44,1.76,1.76,0,0,0,1,1.38l.06,0Z"/><path class="cls-8" d="M273.09,72.48S259,63.43,251.07,43c-5.54-19.75-19.89-21.61-19.89-21.61L254.36,0S266,5.18,275.93,30.19a177.67,177.67,0,0,0,17.83,27.16Z"/><path class="cls-5" d="M272.66,69.73S262.34,63.57,253.15,41c-5.2-17.74-15.91-20.16-15.91-20.16L254.92,3.72s6,3.61,11.66,13.82c6.31,10.09,9.75,19.09,15.64,28.38,4.19,5.87,7.64,9.9,7.64,9.9Z"/><path class="cls-9" d="M271.94,65.83s-7.31-5.11-16.14-26.78c-4.5-14.81-13.21-18.33-13.21-18.33L256,7.74s5,4,9.94,12.57c5.49,8.55,8.94,16.59,13.29,24.72a66,66,0,0,0,6.64,9.19Z"/><path class="cls-5" d="M271.91,44.92c-2.81,4.9-9,7.09-13.25,1.14-4.05-6.25-5-14.34-1.74-20,3.15-5.52,8.89-5.84,12.54,1.13C273.3,33.84,274.64,40.15,271.91,44.92Z"/><path class="cls-10" d="M265.65,37.76l-.56-.63,2.18-2.39.43.51c1.11,1.29,1.6,2.8,1.07,3.36l1.89,2.09c1-1.06,0-3.9-2.08-6.39l-.43-.51.65-.69L267,30.88l-.65.71c-2.23-2.78-4.92-4.09-6.05-2.85-.55.62-.65,1.73-.26,3.13a11.47,11.47,0,0,0,2.3,4.13l-2.23,2.57-.28-.32c-1.12-1.28-1.57-2.87-1-3.51L257,32.53c-1.08,1.26-.22,4.33,1.94,6.8l.27.31-.69.81,1.91,2.07.68-.79.14.15c2.38,2.54,5.23,3.52,6.32,2.28l.2-.22a2.63,2.63,0,0,0,.1-2.61A11,11,0,0,0,265.65,37.76Zm-3.7-5a1.82,1.82,0,0,1,.13-1.7c.62-.68,2.12,0,3.36,1.54L263.23,35A6.55,6.55,0,0,1,262,32.71Zm3.66,9.42c-.61.7-2.19.12-3.5-1.3l-.13-.16,2.22-2.54.58.65a5.4,5.4,0,0,1,1.1,1.79,1.38,1.38,0,0,1-.06,1.33Z"/><path class="cls-5" d="M276.18,54.58a3.36,3.36,0,0,1-4.4-.26c-1.35-1.43-1.66-3.36-.14-4.63,1.13-.95,2.77-.75,4.09.72S277.17,53.58,276.18,54.58Z"/><path class="cls-5" d="M256.86,21.63c-.87.93-2.44,1.22-3.8-.35a3.54,3.54,0,0,1,.36-5.15,2.44,2.44,0,0,1,3.61.36A4,4,0,0,1,256.86,21.63Z"/><path class="cls-4" d="M227.47,64.1s-8.16,12.19-27.18,20.42c-16.4,7.11-15.8,24-15.8,24L159.78,89.74s-.26-16.18,19.09-28.18a223.48,223.48,0,0,0,24.23-17.2Z"/><path class="cls-5" d="M224.27,64.41s-5.33,9-26.4,18.39c-14.74,6.57-15.37,20.25-15.37,20.25l-19.93-14.4S164,78.5,170.7,71.79c7-7,14.93-10.8,22.9-16.65,5.36-3.93,9.06-7.08,9.06-7.08Z"/><path class="cls-4" d="M219.84,65s-4.38,6.47-24.49,15.52A25.39,25.39,0,0,0,181,98.12L165.42,87s2.51-9,8.21-14.82c6-6.05,12.92-9.78,20.16-14.14a54.89,54.89,0,0,0,8.39-6.22Z"/><path class="cls-5" d="M196.38,65.13c6.21,2.53,10.15,8.15,5.08,12.28a19,19,0,0,1-18.76,3.15c-6.32-2.54-9.1-8.21-3.91-12.34S190.19,62.6,196.38,65.13Z"/><path class="cls-10" d="M190.34,71.33l-.26.32-5.24-3.81.2-.25c.54-.65,2-.42,3.3.51l.91-1.08c-2.46-1.78-5.3-2.23-6.34-1l-.21.25-1.59-1.17-.91,1.09,1.6,1.16c-1.09,1.36.16,4,2.8,5.94a9.19,9.19,0,0,0,4,1.72,2.88,2.88,0,0,0,2.77-.73l5.23,3.78-.13.16c-.54.66-2,.45-3.28-.47l-.89,1.1c2.44,1.76,5.26,2.17,6.28.9l.13-.16,1.58,1.14.89-1.09-1.58-1.15.07-.07c1.12-1.35-.11-4-2.73-5.88l-.49-.35a8.16,8.16,0,0,0-3.55-1.54A2.65,2.65,0,0,0,190.34,71.33Zm-2.66,1.84a5.18,5.18,0,0,1-2.19-1c-1.46-1.07-2.15-2.53-1.55-3.29l5.27,3.83A1.57,1.57,0,0,1,187.68,73.17Zm8.32.48c1.46,1,2.14,2.51,1.52,3.27l-.06.07-5.25-3.79.27-.35a1.3,1.3,0,0,1,1.26-.33,4.28,4.28,0,0,1,1.77.77Z"/><path class="cls-5" d="M205.85,61.05c1.14.74,2.17,2.81.94,4.07a3.72,3.72,0,0,1-5.09.19c-1.41-1.06-1.71-2.6-.49-3.86A3.68,3.68,0,0,1,205.85,61.05Z"/><path class="cls-5" d="M179.22,83.34a2.61,2.61,0,0,1,1,3.67,3.6,3.6,0,0,1-5.17.58c-1.4-1-1.71-2.6-.48-3.86A3.68,3.68,0,0,1,179.22,83.34Z"/><path class="cls-11" d="M315.17,122.84s-1.32-13.94,6.89-34.14C328.72,72.26,318,54.11,318,54.11l26.77,9.28s8.22,15.41,3.61,38.07c-4.41,18.1-4.27,28.61-4.27,28.61Z"/><path class="cls-5" d="M317.27,120.45s-1.9-8.85,6.92-31.54c5.8-15-2-30.52-2-30.52q10.85,3.34,21.1,6.53s4.87,11.56,4.73,22c-.16,11.18-2.85,19.55-4.37,30.46-1,7.48-1.54,8.29-1.54,8.29Z"/><path class="cls-7" d="M319.06,117.78s-2.44-6.57,6.57-28c5.75-13.49-.82-28-.82-28,5.56,1.65,12.05,3.49,17.38,5.07,0,0,4,12.18,3.86,21.24-.15,9.64-2,17.86-4,26.71-1.31,6-1.71,7.64-1.71,7.64C333.81,121,325.94,119.21,319.06,117.78Z"/><path class="cls-5" d="M335.91,107.94c-5.62.68-11.75-3.43-10.85-11s4.84-13,10.44-13.48S346,87.82,345.19,95,341.4,107.27,335.91,107.94Z"/><path class="cls-7" d="M336.5,96.8c0-.16,0-.32,0-.48l5.06,2.14a2.23,2.23,0,0,1,0,.37c0,1-1.48,1.17-2.72.65,0,.53-.34,1.19-.32,1.73,2.37,1,4.23.52,5.08-1.52.17,0,.25.07.25,0,.51.21.45,0,1,.19,0-.54.26-.94.24-1.47-.51-.21-.63-.35-1.13-.56.5-2.83-2.32-5.41-4.63-6a5.61,5.61,0,0,0-3.72,0,1.84,1.84,0,0,0-1.22,2c-1.7-.73-3.41-1.44-5.13-2.16a1.85,1.85,0,0,0,0-.24c0-1,1-1.33,2.21-.8a8.38,8.38,0,0,0,.36-2.05,3.24,3.24,0,0,0-4.66,2v.24c-.52-.22-.83-.38-1.35-.6,0,.55-.2,1-.18,1.57l1.58.66a.45.45,0,0,0,0,.11c.05,2,2,5,4.58,6.08l.48.2a3.14,3.14,0,0,0,2.63,0A2.54,2.54,0,0,0,336.5,96.8Zm.56-3.2a3.75,3.75,0,0,1,2.19.15A4.61,4.61,0,0,1,342,97c-1.69-.73-3.87-1.56-5.57-2.28A1,1,0,0,1,337.06,93.6Zm-5.15,2.92c-1.43-.6-2.64-2-2.67-3.12a.24.24,0,0,0,0-.12l5.17,2.16c0,.18,0,.34,0,.51a.84.84,0,0,1-.57.9,2,2,0,0,1-1.47-.13Z"/><path class="cls-5" d="M332.17,118a4.31,4.31,0,0,1-3.14-4c.05-2.14,1.22-3.67,3.3-3.17a3.83,3.83,0,0,1,2.66,4C335,116.93,333.71,118.17,332.17,118Z"/><path class="cls-5" d="M336.08,78.68a3.94,3.94,0,0,1-2.81-3.53c-.27-2.1,1-3.81,2.94-3.18a4,4,0,0,1,2.56,4C338.74,77.93,337.55,79,336.08,78.68Z"/><path class="cls-4" d="M116.75,111.54s-.48-15.1-12.59-32.65c-10.46-15.15-.75-29.54-.75-29.54l-31.8,2.89s-9,14,1.31,35A226.64,226.64,0,0,1,84.7,115.49Z"/><path class="cls-5" d="M86.34,112s-1.52-4.76-4-11.12c-3.77-9.46-8.68-17.09-10.93-27-2.14-9.49,2.1-19.15,2.1-19.15L98.73,53S91.81,65.3,101.1,79.07c13.28,19.69,13,30.46,13,30.46Z"/><path class="cls-4" d="M88,108.48a57.46,57.46,0,0,0-3.93-10c-4-7.76-8-14.8-9.91-23.34-1.82-8.15.92-17.43.92-17.43L94.7,56.48a26.13,26.13,0,0,0,3,23.21c12.64,18.87,12.93,26.92,12.93,26.92Z"/><path class="cls-5" d="M90.16,93.7c6.81,1.17,13.31-1.59,11.14-8a19.59,19.59,0,0,0-14.67-13C79.72,71.53,74.2,75,76.49,81.4S83.37,92.53,90.16,93.7Z"/><path class="cls-5" d="M85.11,68.43A2.7,2.7,0,0,0,88,65.78a3.72,3.72,0,0,0-4.21-3.33c-1.79.15-2.9,1.34-2.52,3.11A3.8,3.8,0,0,0,85.11,68.43Z"/><path class="cls-5" d="M97.09,103.19a2.69,2.69,0,0,0,2.9-2.65,3.71,3.71,0,0,0-4.2-3.33c-1.81.15-2.91,1.34-2.53,3.1A3.79,3.79,0,0,0,97.09,103.19Z"/><path class="cls-4" d="M87.18,82.47a3,3,0,0,1,.23-2.93,2.8,2.8,0,0,1,2.81-.7l.53.09a10.1,10.1,0,0,1,6.91,6l.06.16,1.72.33.78,2.21-1.73-.32.12.33c.89,2.56-.54,4.24-3.2,3.74l-.77-2.22c1.38.26,2.13-.61,1.67-1.95l-.11-.33-5.69-1.07A3.24,3.24,0,0,1,90.26,89a3.18,3.18,0,0,1-3.14.78,10.09,10.09,0,0,1-6.91-6l-1.71-.31-.77-2.22,1.71.31-.18-.5c-.88-2.57.54-4.25,3.2-3.75l.77,2.22c-1.38-.25-2.13.62-1.66,2l.18.51,5.67,1.06Zm4.35-1.31-.54-.1a1.24,1.24,0,0,0-1.54,1.75.14.14,0,0,1,0,.06l.25.69,5.7,1.07-.06-.16a5.56,5.56,0,0,0-3.83-3.31Zm-3.32,4.19-5.69-1.07a5.57,5.57,0,0,0,3.83,3.29,1.52,1.52,0,0,0,1.89-2.15l0-.07Z"/><path class="cls-4" d="M34.62,429.83S47.06,423.29,56.83,406c8.43-14.9,24.4-12.62,24.4-12.62L65.9,368S50.53,366.1,37.14,383.3A211.64,211.64,0,0,1,18.3,404.62Z"/><path class="cls-5" d="M21.87,404.58s3.37-3.2,7.66-7.9c6.38-7,10.77-14.2,18.18-20.13,7.07-5.64,16.87-6,16.87-6L76.27,391s-13.09-.8-20.84,12.57c-11.09,19.11-20.19,23.27-20.19,23.27Z"/><path class="cls-4" d="M25.5,404.51a53.27,53.27,0,0,0,6.77-7.36c4.89-6.45,9.14-12.69,15.51-17.76,6.07-4.84,14.95-6.31,14.95-6.31l9,15.94a24.29,24.29,0,0,0-18.22,11.89c-10.65,18.23-17.27,21.75-17.27,21.75Z"/><path class="cls-5" d="M38.75,400.34c1.78,6.16,6.73,10.49,11.19,6.08a18.24,18.24,0,0,0,4.9-17.55c-1.78-6.27-6.9-9.49-11.36-5S37,394.18,38.75,400.34Z"/><path class="cls-5" d="M57.84,385.85a2.49,2.49,0,0,0,3.38,1.34,3.45,3.45,0,0,0,1.09-4.87c-.86-1.44-2.3-1.89-3.62-.85A3.52,3.52,0,0,0,57.84,385.85Z"/><path class="cls-5" d="M33.62,410A2.5,2.5,0,0,0,37,411.34a3.46,3.46,0,0,0,1.09-4.87c-.87-1.45-2.3-1.89-3.63-.85A3.52,3.52,0,0,0,33.62,410Z"/><path class="cls-4" d="M46.94,393.28a2.74,2.74,0,0,1,2.54-1,2.62,2.62,0,0,1,1.73,2.06l.13.49a9.38,9.38,0,0,1-2.18,8.2l-.11.11.42,1.58-1.54,1.54-.43-1.57-.23.23c-1.78,1.78-3.76,1.27-4.42-1.15l1.54-1.55c.34,1.26,1.38,1.53,2.31.6l.23-.23-1.41-5.18a3,3,0,0,1-2.81,1.09,3,3,0,0,1-1.93-2.31A9.4,9.4,0,0,1,43,388l-.42-1.56,1.54-1.55.43,1.57.35-.36c1.79-1.78,3.77-1.27,4.43,1.15l-1.54,1.55a1.27,1.27,0,0,0-2.32-.6l-.35.36,1.41,5.18Zm2.85,3.11-.13-.49a1.15,1.15,0,0,0-2.09-.57l0,0-.48.48,1.42,5.2.11-.11a5.18,5.18,0,0,0,1.21-4.55Zm-4.85-1.08-1.41-5.2a5.2,5.2,0,0,0-1.2,4.55,1.68,1.68,0,0,0,1.06,1.28,1.66,1.66,0,0,0,1.51-.58l0-.05Z"/><path class="cls-12" d="M293.84,304.37a10.89,10.89,0,0,1,7.13-4.44,7.61,7.61,0,0,1,2.73.14c10.8,2.53,24.12,20.1,49.77,61.77,19.81,32.17,52.07,33.82,78.07,32.45,2.23-.11,11.73,10.21,1.66,19-18.22,16-81.26-.16-97.79-25.24-12.35-18.76-28.12-48.77-37.73-68.27C295.3,315,291.74,307.36,293.84,304.37Z"/><path class="cls-13" d="M433.65,406.73c0,5.75-5.37,10.42-12,10.42s-12-4.67-12-10.42,5.38-10.42,12-10.42S433.65,401,433.65,406.73Z"/><path class="cls-12" d="M130.73,684.71c0,10.39,70.09,18.82,156.56,18.82s156.55-8.43,156.55-18.82-70.09-18.83-156.55-18.83S130.73,674.31,130.73,684.71Z"/><path class="cls-14" d="M220.1,665.77l-1.9,1.57-13-12.26,4.75-5.35c2.71-3.05,22.21,23.08,46.09,28.14v4.58s-8.45,0-14.32-.05c-5.58-.07-6.68-1.51-8.65-3.26C228.28,674.92,221.39,667.24,220.1,665.77Z"/><path class="cls-15" d="M209.91,649.73c3.45-4.25,9.05-11.16,11.72-14.6,3.42-3.33,13.35,4.07,16.44,10.25.14.29-3,2.48-3.2,4,1.06,18.79,16.29,17.64,20.56,25.83a8.78,8.78,0,0,1,.52,3.58H240.57a9.39,9.39,0,0,1-5.72-2.43C230.36,671.86,210.2,650.29,209.91,649.73Z"/><path class="cls-14" d="M363.12,679.28l.55,1.85-17.52,5.2-2-6.86c-1.16-3.9,44.95-14.34,53.74-12.42,0,0,1.07,3.62,1.07,3.62L381,676A81.31,81.31,0,0,1,363.12,679.28Z"/><path class="cls-15" d="M362,675.66c-5.94.17-14.07,2.67-17.92,3.81-1.79-5.17-4.06-12-5.57-16.12-1.26-5.7,12-10.73,18.42-5.27,10.29,5.58,31.43.92,37.12,4.18a8.15,8.15,0,0,1,3.77,4.79l-18,5.32A83.43,83.43,0,0,1,362,675.66Z"/><path class="cls-13" d="M337.19,458.24l-86.86,9.13C238.7,419.45,224,372.76,222.8,366.29c-5.69-30.86,4.16-49.75,11.86-56.22,12-10.09,31.75-13,31.75-13s19.9-2.92,34.28,3.29c9.23,4,24.12,19.23,27.55,50.42C329,357.32,332.9,409.24,337.19,458.24Z"/><path class="cls-16" d="M281.05,302.25c.87,5.92-2.14,13.94-12.21,15.45s-14.09-5.67-14.93-11.45c-1.25-8.48-4.08-27.74-4.08-27.74l27.14-4S279.75,293.45,281.05,302.25Z"/><path class="cls-17" d="M278.85,287.35a38.35,38.35,0,0,1-27.14,4c-1-6.8-1.88-12.84-1.88-12.84l27.14-4Z"/><path class="cls-12" d="M283.42,334V320.66l-7.59-6-5.53,7.95,7.77,12.17s6,25.34,8.37,48.17c1.22,11.81,4.2,47.3,4.2,47.3l12.19,17.65,5.81-21.06s-8.3-35.49-11.21-47.29C292,357.54,283.42,334,283.42,334Z"/><g class="cls-18"><g class="cls-19"><polygon class="cls-20" points="287.69 296.82 280.41 294.33 276.1 315.03 292.79 330.9 287.69 296.82"/></g><g class="cls-19"><polygon class="cls-20" points="246.13 303.25 253 296.71 276.21 314.9 268.29 339.78 246.13 303.25"/></g></g><polygon class="cls-13" points="287.54 291.03 279.91 288.65 275.87 314.8 291.41 326.53 287.54 291.03"/><polygon class="cls-13" points="245.04 301.53 250.66 293.9 276.07 314.57 267.68 335.64 245.04 301.53"/><path class="cls-21" d="M331.58,459.78s-2.25,54.47-38.66,120.37C269.66,622.25,238.08,650,238.08,650l-19.47-15.8s28.76-29.75,42.55-79.86c11.63-42.28,16.14-94.55,16.14-94.55Z"/><path class="cls-12" d="M244.44,459.94l60.71-.16S317,513.34,331,556.16c13.05,40,29.65,101.21,29.65,101.21l-22.47,9.72s-23.1-59.06-38.46-90c-24-48.28-31.73-56.48-46-83.51A79.33,79.33,0,0,1,244.44,459.94Z"/><path class="cls-22" d="M319.07,465.77a2.59,2.59,0,1,1-2.59-2.58A2.59,2.59,0,0,1,319.07,465.77Z"/><polygon class="cls-23" points="331.91 470.92 331.72 472.4 320.11 472.4 319.76 492.79 318.31 472.4 246.02 472.4 245.69 470.92 309.7 470.92 309.7 459.78 311.76 459.78 311.76 470.92 331.91 470.92"/><path class="cls-24" d="M300.93,224.82a7.67,7.67,0,0,0-3.07-15L291.91,211A7.67,7.67,0,0,0,295,226Z"/><g class="cls-18"><path class="cls-17" d="M300,220.26a3,3,0,0,0-1.21-5.9l-5.94,1.21a3,3,0,1,0,1.21,5.9Z"/></g><path class="cls-24" d="M221.36,241.11a7.67,7.67,0,0,0-3.08-15l-5.94,1.22a7.67,7.67,0,0,0,3.08,15Z"/><g class="cls-18"><path class="cls-17" d="M220.42,236.55a3,3,0,1,0-1.21-5.9l-5.94,1.22a3,3,0,0,0,1.21,5.9Z"/></g><path class="cls-16" d="M243.13,160.12c21.3-4.37,41.36,5.78,45.73,27.07L299,236.55c4.36,21.3-8.69,45.41-30,49.78s-42.77-12.69-47.14-34L211.73,203C207.37,181.69,221.84,164.48,243.13,160.12Z"/><path class="cls-25" d="M225.34,181.22c15.44-3.16,38.53.93,38.53.93l-4.63-7.87,14.16-2.9c10.23-2.1,12.34,7.55,12.34,7.55l7.73,31.25s-1-28.6-3.18-41.54a62.8,62.8,0,0,0-10.84-25.76l-10.64,6.93,2.13-5.18c-10.28,2.17-28.72,5.8-41.41,8.48l-5,5.36.66-4.47c-6.68,1.41-12.3,2.52-15.46,3.17-1.6.33-7.43,12.7-3.65,31.17,1.95,9.53,10.74,39.22,10.74,39.22s-4.43-24.51-4.57-31.56C212,183.66,225.34,181.22,225.34,181.22Z"/><path class="cls-26" d="M264.47,235.84s-1.08,1.08-4.81,1.85c-4.52.92-6.35.65-6.35.65s1.88,4.43,6.35,3.56C264.31,241,264.88,237.35,264.47,235.84Z"/><path class="cls-27" d="M241.92,214.38l-12.43-3a1.62,1.62,0,1,1,.75-3.16l12.43,3a1.63,1.63,0,0,1-.75,3.17Z"/><path class="cls-27" d="M269.63,208.68a1.63,1.63,0,0,1-1.17-3l11.2-6.79a1.63,1.63,0,1,1,1.69,2.79l-11.2,6.78A1.54,1.54,0,0,1,269.63,208.68Z"/><g class="cls-28"><path class="cls-29" d="M273,233.05a4.07,4.07,0,0,0,4.8,3.17l8.77-1.79a4.08,4.08,0,0,0,3.17-4.81h0a4.07,4.07,0,0,0-4.81-3.17l-8.76,1.8a4.07,4.07,0,0,0-3.17,4.8Z"/></g><g class="cls-28"><path class="cls-29" d="M227.58,242.35a4.06,4.06,0,0,0,4.8,3.18l8.77-1.8a4.07,4.07,0,0,0,3.17-4.8h0a4.07,4.07,0,0,0-4.8-3.17l-8.77,1.8a4.06,4.06,0,0,0-3.17,4.79Z"/></g><path class="cls-30" d="M233.31,227.61a3.57,3.57,0,0,1-.43-1A4.17,4.17,0,0,1,241,225a3.49,3.49,0,0,1,0,1.07Z"/><path class="cls-30" d="M272.53,219.57a3.38,3.38,0,0,1-.43-1,4.16,4.16,0,0,1,8.14-1.67,3.2,3.2,0,0,1,0,1.07Z"/><g class="cls-31"><path class="cls-13" d="M262,215.43c.38-2.12,4.42-3.84,7-4.55,4.85-1.35,15-4,20.58-4.44s5.42,2.31,6,6.07c.52,3.34.76,6.78-5.56,8.91a87,87,0,0,1-18.31,3.75c-5.13.45-7.11-1.09-8.39-3.24A10.09,10.09,0,0,1,262,215.43Zm-42.83,5.43c5.25-1.83,15.68-3.35,20.66-4,2.63-.35,7-.36,8.2,1.44a10.27,10.27,0,0,1,1.39,6.47c-.33,2.49-1.57,4.69-6.44,6.28a86.28,86.28,0,0,1-18.33,3.76c-6.63.52-7.76-2.74-8.61-6C215,225.11,213.89,222.65,219.12,220.86Z"/></g><path class="cls-32" d="M299.24,204.47a1.59,1.59,0,0,0-1.28-.17,43.89,43.89,0,0,1-4.41.49L291,205c-3,.29-7.4,1-11.83,1.91-4.11.84-7.84,1.77-10.81,2.68a41.17,41.17,0,0,0-7.22,3,23.61,23.61,0,0,1-6.72,2.53,23.23,23.23,0,0,1-7.17.31,41.89,41.89,0,0,0-7.84,0c-3.07.32-6.87.94-11,1.78-4.42.9-8.77,2-11.63,2.9l-2.46.8c-1.87.62-3.22,1.06-4.22,1.27A1.65,1.65,0,0,0,209,223a2.38,2.38,0,0,0-.05,1.8l.48,2.3c.25,1.21,1.06,1.39,2.06,1.61.84.19,1.77,1.13,2.62,2.66.08.16.17.33.26.53.92,1.94,2.64,5.56,12.11,4.35,2.86-.37,5.61-.82,8.16-1.35a68.39,68.39,0,0,0,11.7-3.37c3.6-1.43,4.54-4.5,5.38-7.21.73-2.36,1.36-4.4,3.59-4.86s3.62,1.17,5.22,3.05c1.83,2.17,3.9,4.62,7.77,4.53a70.3,70.3,0,0,0,12.09-1.5c2.56-.53,5.26-1.19,8-2,9.2-2.61,9.34-6.62,9.41-8.77,0-.21,0-.41,0-.57.18-1.74.67-3,1.39-3.49s1.48-1.06,1.23-2.28l-.41-2-.06-.34A2.27,2.27,0,0,0,299.24,204.47Zm-4.48,7.25.13.89c.56,3.6.52,6.51-5.28,8.46a74.63,74.63,0,0,1-8.8,2.32,87.12,87.12,0,0,1-9.43,1.42c-5.18.45-6.91-1.2-8-3.05a9.77,9.77,0,0,1-1.23-6.21c.32-1.72,3.69-3.4,6.69-4.24,3.59-1,8.86-2.39,13.57-3.35a55.71,55.71,0,0,1,6.92-1.07C294,206.54,294.29,208.38,294.76,211.72Zm-47.32,6.84a9.76,9.76,0,0,1,1.32,6.19c-.28,2.14-1.22,4.33-6.16,5.95a89,89,0,0,1-9.23,2.41,75.92,75.92,0,0,1-9,1.32c-6.09.49-7.28-2.17-8.19-5.7l-.23-.86c-.87-3.26-1.36-5.06,3.11-6.59a54.92,54.92,0,0,1,6.77-1.74c4.71-1,10.1-1.75,13.8-2.25C242.72,216.88,246.48,217.1,247.44,218.56Z"/><path class="cls-20" d="M223.75,379c7.38,30.94,25.32,108.47,25.32,108.47.49.37,32.14,3.76,44.79,2.94,0,0-7-57.61-12.89-93.82-1.57-9.65-2.89-18.43-4.79-24.4-9.67-30.37-29.71-71.92-29.71-71.92A63.65,63.65,0,0,0,238.7,304C230,308.82,210.33,322.68,223.75,379Z"/><g class="cls-33"><path class="cls-23" d="M324.9,368.69l6.06,105c-.41.45-4.64,5.53-18.91,6.25,0,0-3.21-52-5.89-85.76-.71-9-5.91-40-6.75-44.75a520.73,520.73,0,0,0-14.25-56.5,83.32,83.32,0,0,1,9.66,2.18C304.25,298.18,327.2,310.85,324.9,368.69Z"/></g><g class="cls-34"><path class="cls-23" d="M303,298.31l-12.45-5.21s4.33,14.43,10.68,36.22c5.38,18.53,8.61,62.65,8.61,62.65l6.55-54.78L307,330l7.4-6.71Z"/></g><path class="cls-20" d="M328.47,368.51l6.06,105c-.41.45-4.63,5.53-18.9,6.25,0,0-3.13-54-5.81-87.76-.71-9-2-16.22-2.46-21-3.47-35.76-18-77.92-18-77.92a63,63,0,0,1,8.34,2.16C307.1,298.29,330.77,310.67,328.47,368.51Z"/><path class="cls-22" d="M298.93,295.4l-14.43-4.62s5,14.2,12.4,35.66c6.27,18.25,12.82,64.05,12.82,64.05l2.7-56.91-9.73-6.74,7.07-7.07Z"/><path class="cls-22" d="M318,399.94a2.45,2.45,0,1,1-2.57-2.32A2.46,2.46,0,0,1,318,399.94Z"/><path class="cls-22" d="M319.61,433.74a2.45,2.45,0,1,1-2.57-2.32A2.45,2.45,0,0,1,319.61,433.74Z"/><path class="cls-23" d="M235.38,306.24l10.19-6a190.35,190.35,0,0,1,21.23,45.29c7.6,24.42,14.17,51.06,14.17,51.06l-31.32-47.21,7.15-12.16-12.19-.11Z"/><path class="cls-22" d="M235,305.68,246.16,298a187.14,187.14,0,0,1,21.91,45.8c7.59,24.42,12.9,52.75,12.9,52.75l-30.06-48.9,7.15-12.16-12.18-.11Z"/><path class="cls-23" d="M330.16,412.4c-5.33-.94-12.07-1.87-17.12-3.5-33.51-10.79-38-22.37-59.38-56.12-3.75-5.93-13.25-13.63-20-11.75-3.75,1-9.54,6.27-7.25,15.37,5.55,22,29.83,62.17,68,71.88,14.75,3.75,32.25,4.12,37.75,2.87Z"/><path class="cls-20" d="M225.24,321.44c-3,2.51-5.37,16.09-2.7,25.09,6.06,20.47,29.7,59.24,57.7,71.57,19.66,8.67,53.5,13.17,79.16,10.17,0,0,14.76-1.62,16-13.33,1-9.34-12.5-11.34-12.5-11.34-.34.06-45.92,3.25-69.66-10.5-19-11-32.57-34.26-50.45-66.45C238.41,318.78,229.57,317.77,225.24,321.44Z"/><path class="cls-13" d="M373.69,414.85c0,5.76-5.66,10.42-12.64,10.42s-12.65-4.66-12.65-10.42,5.66-10.41,12.65-10.41S373.69,409.1,373.69,414.85Z"/><path class="cls-13" d="M245.12,251.56s6.39,2.07,16.84-.09,16-6.72,16-6.72.38,14.32-13.79,17.26C252.06,264.52,245.85,254.09,245.12,251.56Z"/><path class="cls-35" d="M504.47,322.79c3.62,57.75-42.49,85.81-101.33,89.5s-108.09-18.4-111.7-76.15S331.21,206.89,390,203.2,500.86,265.05,504.47,322.79Z"/><path class="cls-36" d="M429.14,408.29C370.31,412,323.33,378.9,320,332.14c-2.95-41.42,21.25-93,55.42-118.49,1.4-1,4.57-1.85,4.25,1.5-.41,4.32-7.45,16.59-5,17.09s16.75-20.09,24.25-27.84c-2.08,0-6.76-1.33-8.87-1.2-58.83,3.69-102.22,75.2-98.6,132.94s52.87,79.84,111.7,76.15A179.62,179.62,0,0,0,433,408C431.7,408.11,430.43,408.21,429.14,408.29Z"/><path class="cls-35" d="M443.6,160.19c-5.93,5.08-6.21-8.05-18.44-7.29s-13.4,9.74-20.5,6.5c-2-.89-9-11.5-20.5-10.5-11,1-15.67,11.38-17.5,12.5-6.64,4.1-8.5-6-16.5-4.5-12,2.26-1,16.63-15.5,12.5-10.5-3-19.77,2.47-16,6l46.5,36.75,52-4.75L462,161.76C465.26,157.78,454.1,151.19,443.6,160.19Z"/><path class="cls-36" d="M370.66,197.15c-.74,4.12-27.55-25.33-36-27.75-10.5-3-19.77,2.47-16,6l46.75,36.75,13.25-1,8-2.25,33.5-2s-11.4-25.27-17-15.75c-7.5,12.75-14,9.4-16.25,7.5a112.35,112.35,0,0,1-15.5-16.75c-6.25-8-6.25-1.25-6.25-1.25Z"/><path class="cls-13" d="M402.6,302.82l0-31.81c12.14,0,17.35,6.23,17.35,14.06h13.14c0-14.37-10.76-26.95-30.48-27v-9.64H389.5v9.64c-38.92.17-38.86,57.92-.05,57.73l0,31.81c-10.8,0-16.26-6.45-16.25-14.07H360c0,14.13,10.91,27,29.39,27v9.63h13.14v-9.63C440.3,360.6,446.68,302.52,402.6,302.82ZM389.49,271l0,31.94C368.39,303.36,367.48,271.21,389.49,271Zm13.08,76.65,0-31.93C429.11,315.38,423.5,347.67,402.57,347.66Z"/><path class="cls-36" d="M458.54,390.14c-1.64-1.45-4.39,1.33-5.07,2.51-.25.44.19-1.06.5-4.19.24-2.4-3-2.31-4.43-.75a17.08,17.08,0,0,0-1.88,3.44c.88-4-2-4.4-2.75-4a4.84,4.84,0,0,0-2.87,3.5c-1,3.25-1.5,8.25-4.75,12.75a53.69,53.69,0,0,1-4.63,4.88c5.75-7.13,7.44-16.06,7.25-16.5-1-2.29-4.5.12-6.37,4-3.33,6.86-6.59,9.51-7.25,10.06-3.85,3.21-10.38,5.44-10.38,5.44,6.38,3.5,23.09,4.31,31-.23C459,404.15,459.6,391.07,458.54,390.14Z"/><path class="cls-36" d="M390.36,401.56a23,23,0,0,0,3.43-7.78c.46-2.25-3.23-1.79-4.2-.27a82,82,0,0,1-7.39,10.26s5.41-9.24,6.59-13.24c.62-2.14-.38-2.25-1.43-2.41a4.92,4.92,0,0,0-4.15,2.9c-.3.62-4,9.26-9,12.81a55.16,55.16,0,0,0,4.64-13.29c.47-3-3.14-3.85-4.72.49-3.87,10.62-9.81,15.12-12.75,15.75a2.89,2.89,0,0,1-1.89,0c-2.55-1.2-5.73-7.34-9.11-12.46s-8.75-.5-8.75-.5,5.88,5.12,7.75,10.87c2.11,6.48,1.94,9.34,1.94,9.34,3,8.55,11.54,10.3,25.24,4.48,13-5.52,18.61-17.08,18.57-18.32,0-1-.85-2.25-1.75-1.62A21.26,21.26,0,0,0,390.36,401.56Z"/><path class="cls-1" d="M433.92,200.35a3.14,3.14,0,0,1-2.43,3.72l-76.2,12A3.11,3.11,0,1,1,354,210l76.2-12A3.13,3.13,0,0,1,433.92,200.35Z"/><g class="cls-37"><g class="cls-38"><g class="cls-18"><rect class="cls-2" x="349.79" y="209.17" width="29.64" height="3.09" transform="translate(-20.73 380.57) rotate(-53.81)"/></g><g class="cls-18"><rect class="cls-2" x="364.14" y="206.94" width="29.64" height="3.09" transform="translate(-13.06 391.24) rotate(-53.81)"/></g><g class="cls-18"><rect class="cls-2" x="378.5" y="204.72" width="29.64" height="3.09" transform="translate(-5.37 401.93) rotate(-53.81)"/></g><g class="cls-18"><rect class="cls-2" x="392.85" y="202.49" width="29.64" height="3.09" transform="translate(2.29 412.59) rotate(-53.81)"/></g><g class="cls-18"><rect class="cls-2" x="407.21" y="200.27" width="29.63" height="3.09" transform="translate(9.97 423.26) rotate(-53.81)"/></g></g></g><path class="cls-2" d="M430.05,206.64a3.15,3.15,0,0,1-2.92,3.35L350,211.39a3.12,3.12,0,1,1-.49-6.21l77.14-1.4A3.15,3.15,0,0,1,430.05,206.64Z"/><g class="cls-39"><g class="cls-40"><g class="cls-18"><rect class="cls-2" x="345.14" y="205.78" width="29.64" height="3.09" transform="translate(-39.48 321.37) rotate(-45.87)"/></g><g class="cls-18"><rect class="cls-2" x="359.67" y="205.56" width="29.64" height="3.09" transform="translate(-34.92 331.7) rotate(-45.87)"/></g><g class="cls-18"><rect class="cls-2" x="374.2" y="205.34" width="29.64" height="3.09" transform="translate(-30.35 342.04) rotate(-45.87)"/></g><g class="cls-18"><rect class="cls-2" x="388.72" y="205.12" width="29.64" height="3.09" transform="translate(-25.75 352.48) rotate(-45.88)"/></g><g class="cls-18"><rect class="cls-2" x="403.25" y="204.9" width="29.63" height="3.09" transform="translate(-21.2 362.8) rotate(-45.87)"/></g></g></g><path class="cls-41" d="M458.16,392.21c-1.64-1.44-3.47.63-3.81,1.94a24.35,24.35,0,0,1-3.81,8.5s4.55-10,4.06-13.81c-.25-1.94-4.13-1-5.19,2.06-2.74,7.89-4.18,9.56-4.18,9.56s2.46-6,2.81-10.56c.17-2.32-2-1.65-2.75-1.25-1.29.68-2.25,1.63-3,4.38a57.78,57.78,0,0,1-2.51,7.62c-3,6.38-4.5,5.46-4.5,5.44,5.18-7.63,5.62-13.44,5.37-13.69-1.75-1.75-4.29-.5-6,3.88-2.87,7.37-6.68,9.6-7.37,10.12a23.79,23.79,0,0,1-11.47,4.66c4.38,5.74,22.31,6.65,30.24,2.12C458.13,406.28,459.22,393.15,458.16,392.21Z"/><path class="cls-41" d="M391.61,402.44a23.12,23.12,0,0,0,3.43-7.79c.46-2.24-3.23-1.78-4.2-.27a81.78,81.78,0,0,1-7.39,10.27s5.41-9.24,6.59-13.25c.62-2.13-.38-2.25-1.43-2.4a4.9,4.9,0,0,0-4.15,2.89c-.3.62-4,9.26-9,12.81a54.86,54.86,0,0,0,4.64-13.29c.47-3-3.14-3.84-4.72.49-3.87,10.63-9.81,15.13-12.75,15.75a2.83,2.83,0,0,1-1.89,0c-2.55-1.2-5.73-7.33-9.11-12.46s-7.37-.37-7.37-.37a18.85,18.85,0,0,1,6.37,10.75c1.31,6.68,1.94,9.33,1.94,9.33,3,8.56,11.54,10.31,25.24,4.49,13-5.52,18.61-17.09,18.57-18.32,0-1-.85-2.25-1.75-1.63A21.69,21.69,0,0,0,391.61,402.44Z"/></g></g></g></svg>