<svg xmlns="http://www.w3.org/2000/svg" xmlns:xlink="http://www.w3.org/1999/xlink" viewBox="0 0 357.91 367.69"><defs><style>.cls-1{isolation:isolate;}.cls-2{fill:#f3faff;}.cls-3{fill:#41415b;}.cls-4{fill:#f4f4f4;}.cls-29,.cls-30,.cls-36,.cls-42,.cls-43,.cls-5,.cls-7{mix-blend-mode:soft-light;}.cls-6{fill:#dd3e4b;}.cls-14,.cls-43,.cls-7{opacity:0.5;}.cls-8{fill:#c93a4c;}.cls-9{fill:#233354;}.cls-10,.cls-16,.cls-42{fill:#fff;}.cls-11{fill:#dadae0;}.cls-11,.cls-29,.cls-30{opacity:0.3;}.cls-12{fill:#484867;}.cls-13{fill:#fdfdfd;}.cls-14{fill:#d1d1e6;}.cls-15{fill:#4c6ed4;}.cls-16{font-size:12px;font-family:Metropolis-SemiBold, Metropolis SemiBold;font-weight:600;}.cls-17{letter-spacing:0.01em;}.cls-18,.cls-19,.cls-20,.cls-21,.cls-42{opacity:0.2;}.cls-18{fill:url(#linear-gradient);}.cls-19{fill:url(#linear-gradient-2);}.cls-20{fill:url(#linear-gradient-3);}.cls-21{fill:url(#linear-gradient-4);}.cls-22{fill:#e64054;}.cls-23{fill:#f4b799;}.cls-24{fill:#6f6fa5;}.cls-25{fill:#d0d1d8;}.cls-26{fill:#ffce43;}.cls-27{fill:#ffdc85;}.cls-28{fill:#eaebf4;}.cls-31{opacity:0.1;}.cls-32{fill:#faa284;}.cls-33{fill:#dbdbdb;}.cls-34{fill:#e8e8e8;}.cls-35{fill:#502f26;}.cls-36{opacity:0.6;}.cls-37{fill:#ea9918;}.cls-38{fill:#ffbb4d;}.cls-39{fill:#e5ae13;}.cls-40{fill:#ededed;}.cls-41{fill:#0aad60;}</style><linearGradient id="linear-gradient" x1="115.38" y1="114.4" x2="210.15" y2="114.4" gradientUnits="userSpaceOnUse"><stop offset="0" stop-color="#37355e" stop-opacity="0.8"/><stop offset="1" stop-color="#d1d1e6"/></linearGradient><linearGradient id="linear-gradient-2" x1="115.38" y1="131.13" x2="210.15" y2="131.13" xlink:href="#linear-gradient"/><linearGradient id="linear-gradient-3" x1="115.38" y1="145.43" x2="210.15" y2="145.43" xlink:href="#linear-gradient"/><linearGradient id="linear-gradient-4" x1="115.38" y1="324.59" x2="210.15" y2="324.59" xlink:href="#linear-gradient"/></defs><title>89Asset 1logo 2</title><g class="cls-1"><g id="Layer_2" data-name="Layer 2"><g id="BACKGROUND"><path class="cls-2" d="M84.4,13.44C66.22,19.5,47.25,31.23,43.75,50.06c-4.39,23.56,17.49,45.52,15,69.34-1.85,17.71-16.39,30.89-27,45.17-13.2,17.75-21.22,40.1-18.45,62,2.28,18.13,11.59,34.59,21.91,49.66,7.16,10.47,15.19,20.8,26.14,27.2s23.79,8.34,36.4,9.09a221.51,221.51,0,0,0,61.62-5c29.79-6.67,58.85-19.58,89.35-18.26,26.77,1.16,53.63,13.27,79.52,6.41a30.55,30.55,0,0,0,12.32-6c4-3.5,6.59-8.41,8.7-13.33,15.05-34.95,11.15-79.86-16.71-105.78C315.67,155,291.62,147,278.73,128,263,104.74,269.17,73.59,262.9,46.28c-1.49-6.49-3.79-13-8.12-18-5.27-6.16-13-9.61-20.43-12.79-12.74-5.41-25.87-10-39.91-9.26C185,6.7,176.73,9,167.12,8.11,138.4,5.39,112.34,4.13,84.4,13.44Z"/></g><g id="OBJECTS"><circle class="cls-3" cx="252.17" cy="82.2" r="31.18" transform="translate(60.24 265.24) rotate(-61.7)"/><circle class="cls-4" cx="252.17" cy="82.2" r="27.59"/><path class="cls-5" d="M256.91,108.19a27.58,27.58,0,0,1-32.05-21.52l.09.58a27.59,27.59,0,1,0,54.26-10.08c0-.19-.08-.38-.12-.57A27.59,27.59,0,0,1,256.91,108.19Z"/><path class="cls-5" d="M247.57,57.46a27.6,27.6,0,0,1,31.92,20.9c-.06-.4-.12-.8-.19-1.21A27.6,27.6,0,0,0,225,87.24c.07.4.16.79.25,1.19A27.59,27.59,0,0,1,247.57,57.46Z"/><path class="cls-6" d="M249.24,66h0a.94.94,0,0,1-1.09-.76l-1-5.27a.94.94,0,0,1,.76-1.09h0a.94.94,0,0,1,1.09.76l.95,5.27A1,1,0,0,1,249.24,66Z"/><path class="cls-6" d="M256.44,105.85h0a.93.93,0,0,1-1.09-.76l-.95-5.26a1,1,0,0,1,.76-1.1h0a.94.94,0,0,1,1.09.76l.95,5.27A.94.94,0,0,1,256.44,105.85Z"/><path class="cls-6" d="M270.6,79.05h0a.94.94,0,0,1,.76-1.09l5.27-.95a.94.94,0,0,1,1.09.76h0a.94.94,0,0,1-.76,1.09l-5.26,1A1,1,0,0,1,270.6,79.05Z"/><path class="cls-6" d="M226.77,87h0a.94.94,0,0,1,.76-1.09l5.27-1a.94.94,0,0,1,1.09.76h0a1,1,0,0,1-.76,1.1l-5.27.95A.94.94,0,0,1,226.77,87Z"/><path class="cls-6" d="M263,67h0a1,1,0,0,1-.24-1.31l3.06-4.4a.93.93,0,0,1,1.3-.23h0a.93.93,0,0,1,.24,1.31l-3.05,4.4A.94.94,0,0,1,263,67Z"/><path class="cls-6" d="M237.56,103.63h0a1,1,0,0,1-.24-1.31l3.06-4.4a.94.94,0,0,1,1.31-.23h0a.94.94,0,0,1,.23,1.31l-3,4.39A.93.93,0,0,1,237.56,103.63Z"/><path class="cls-6" d="M267.55,93.13h0a.94.94,0,0,1,1.31-.23l4.4,3a.94.94,0,0,1,.23,1.31h0a.94.94,0,0,1-1.31.23l-4.39-3A.93.93,0,0,1,267.55,93.13Z"/><path class="cls-6" d="M231,67.74h0a.94.94,0,0,1,1.31-.23l4.4,3a.94.94,0,0,1,.23,1.31h0a.94.94,0,0,1-1.31.23l-4.39-3A.93.93,0,0,1,231,67.74Z"/><path class="cls-7" d="M253.51,82.86h0A1.81,1.81,0,0,1,252,85l-10.36,1.88a1.81,1.81,0,0,1-2.1-1.47h0A1.82,1.82,0,0,1,241,83.27L251.4,81.4A1.82,1.82,0,0,1,253.51,82.86Z"/><path class="cls-8" d="M257.14,81.73h0a1.82,1.82,0,0,1-1.46,2.11l-15.47,2.8a1.82,1.82,0,0,1-2.11-1.47h0a1.82,1.82,0,0,1,1.46-2.11L255,80.27A1.82,1.82,0,0,1,257.14,81.73Z"/><path class="cls-7" d="M251.54,84.11h0a1.47,1.47,0,0,1-.23-2l9.46-11.86a1.46,1.46,0,0,1,2-.23h0a1.46,1.46,0,0,1,.23,2l-9.46,11.86A1.45,1.45,0,0,1,251.54,84.11Z"/><path class="cls-6" d="M249.15,86.54h0a1.45,1.45,0,0,1-.23-2L261,69.4a1.45,1.45,0,0,1,2-.23h0a1.46,1.46,0,0,1,.23,2l-12.05,15.1A1.45,1.45,0,0,1,249.15,86.54Z"/><path class="cls-7" d="M255.32,82.36a2.66,2.66,0,1,1-3.09-2.14A2.65,2.65,0,0,1,255.32,82.36Z"/><path class="cls-9" d="M255.2,82.08a2.66,2.66,0,1,1-3.09-2.14A2.66,2.66,0,0,1,255.2,82.08Z"/><path class="cls-10" d="M254.1,82.28A1.54,1.54,0,1,1,252.31,81,1.54,1.54,0,0,1,254.1,82.28Z"/><ellipse class="cls-11" cx="162.76" cy="356.94" rx="90.91" ry="10.75"/><path class="cls-12" d="M233.29,88.91V340.54A18.42,18.42,0,0,1,214.88,359H110.65a18.42,18.42,0,0,1-18.42-18.42V88.91a18.44,18.44,0,0,1,18.42-18.42H214.88A18.42,18.42,0,0,1,233.29,88.91Z"/><rect class="cls-13" x="98.92" y="77.15" width="127.69" height="275.86" rx="14.01"/><path class="cls-12" d="M135.52,74.09H190a0,0,0,0,1,0,0v8a3.76,3.76,0,0,1-3.76,3.76h-47a3.76,3.76,0,0,1-3.76-3.76v-8A0,0,0,0,1,135.52,74.09Z"/><path class="cls-14" d="M171.14,82.2H148.81a1.63,1.63,0,0,1-1.62-1.63h0A1.63,1.63,0,0,1,148.81,79h22.33a1.63,1.63,0,0,1,1.62,1.62h0A1.63,1.63,0,0,1,171.14,82.2Z"/><path class="cls-14" d="M178.34,80.57A1.62,1.62,0,1,1,176.72,79,1.62,1.62,0,0,1,178.34,80.57Z"/><rect class="cls-15" x="115.38" y="162.49" width="3.79" height="3.79"/><rect class="cls-15" x="119.17" y="162.49" width="3.79" height="3.79"/><rect class="cls-15" x="122.96" y="162.49" width="3.79" height="3.79"/><rect class="cls-15" x="126.75" y="162.49" width="3.79" height="3.79"/><rect class="cls-15" x="130.54" y="162.49" width="3.79" height="3.79"/><rect class="cls-15" x="134.33" y="162.49" width="3.79" height="3.79"/><rect class="cls-15" x="138.12" y="162.49" width="3.79" height="3.79"/><rect class="cls-15" x="145.71" y="162.49" width="3.79" height="3.79"/><rect class="cls-15" x="149.5" y="162.49" width="3.79" height="3.79"/><rect class="cls-15" x="153.29" y="162.49" width="3.79" height="3.79"/><rect class="cls-15" x="157.08" y="162.49" width="3.79" height="3.79"/><rect class="cls-15" x="168.45" y="162.49" width="3.79" height="3.79"/><rect class="cls-15" x="183.61" y="162.49" width="3.79" height="3.79"/><rect class="cls-15" x="187.4" y="162.49" width="3.79" height="3.79"/><rect class="cls-15" x="191.2" y="162.49" width="3.79" height="3.79"/><rect class="cls-15" x="194.99" y="162.49" width="3.79" height="3.79"/><rect class="cls-15" x="198.78" y="162.49" width="3.79" height="3.79"/><rect class="cls-15" x="202.57" y="162.49" width="3.79" height="3.79"/><rect class="cls-15" x="206.36" y="162.49" width="3.79" height="3.79"/><rect class="cls-15" x="115.38" y="166.28" width="3.79" height="3.79"/><rect class="cls-15" x="138.12" y="166.28" width="3.79" height="3.79"/><rect class="cls-15" x="157.08" y="166.28" width="3.79" height="3.79"/><rect class="cls-15" x="160.87" y="166.28" width="3.79" height="3.79"/><rect class="cls-15" x="168.45" y="166.28" width="3.79" height="3.79"/><rect class="cls-15" x="176.03" y="166.28" width="3.79" height="3.79"/><rect class="cls-15" x="183.61" y="166.28" width="3.79" height="3.79"/><rect class="cls-15" x="206.36" y="166.28" width="3.79" height="3.79"/><rect class="cls-15" x="115.38" y="170.07" width="3.79" height="3.79"/><rect class="cls-15" x="122.96" y="170.07" width="3.79" height="3.79"/><rect class="cls-15" x="126.75" y="170.07" width="3.79" height="3.79"/><rect class="cls-15" x="130.54" y="170.07" width="3.79" height="3.79"/><rect class="cls-15" x="138.12" y="170.07" width="3.79" height="3.79"/><rect class="cls-15" x="149.5" y="170.07" width="3.79" height="3.79"/><rect class="cls-15" x="157.08" y="170.07" width="3.79" height="3.79"/><rect class="cls-15" x="164.66" y="170.07" width="3.79" height="3.79"/><rect class="cls-15" x="168.45" y="170.07" width="3.79" height="3.79"/><rect class="cls-15" x="172.24" y="170.07" width="3.79" height="3.79"/><rect class="cls-15" x="176.03" y="170.07" width="3.79" height="3.79"/><rect class="cls-15" x="183.61" y="170.07" width="3.79" height="3.79"/><rect class="cls-15" x="191.2" y="170.07" width="3.79" height="3.79"/><rect class="cls-15" x="194.99" y="170.07" width="3.79" height="3.79"/><rect class="cls-15" x="198.78" y="170.07" width="3.79" height="3.79"/><rect class="cls-15" x="206.36" y="170.07" width="3.79" height="3.79"/><rect class="cls-15" x="115.38" y="173.86" width="3.79" height="3.79"/><rect class="cls-15" x="122.96" y="173.86" width="3.79" height="3.79"/><rect class="cls-15" x="126.75" y="173.86" width="3.79" height="3.79"/><rect class="cls-15" x="130.54" y="173.86" width="3.79" height="3.79"/><rect class="cls-15" x="138.12" y="173.86" width="3.79" height="3.79"/><rect class="cls-15" x="153.29" y="173.86" width="3.79" height="3.79"/><rect class="cls-15" x="157.08" y="173.86" width="3.79" height="3.79"/><rect class="cls-15" x="164.66" y="173.86" width="3.79" height="3.79"/><rect class="cls-15" x="168.45" y="173.86" width="3.79" height="3.79"/><rect class="cls-15" x="172.24" y="173.86" width="3.79" height="3.79"/><rect class="cls-15" x="176.03" y="173.86" width="3.79" height="3.79"/><rect class="cls-15" x="183.61" y="173.86" width="3.79" height="3.79"/><rect class="cls-15" x="191.2" y="173.86" width="3.79" height="3.79"/><rect class="cls-15" x="194.99" y="173.86" width="3.79" height="3.79"/><rect class="cls-15" x="198.78" y="173.86" width="3.79" height="3.79"/><rect class="cls-15" x="206.36" y="173.86" width="3.79" height="3.79"/><rect class="cls-15" x="115.38" y="177.65" width="3.79" height="3.79"/><rect class="cls-15" x="122.96" y="177.65" width="3.79" height="3.79"/><rect class="cls-15" x="126.75" y="177.65" width="3.79" height="3.79"/><rect class="cls-15" x="130.54" y="177.65" width="3.79" height="3.79"/><rect class="cls-15" x="138.12" y="177.65" width="3.79" height="3.79"/><rect class="cls-15" x="153.29" y="177.65" width="3.79" height="3.79"/><rect class="cls-15" x="157.08" y="177.65" width="3.79" height="3.79"/><rect class="cls-15" x="160.87" y="177.65" width="3.79" height="3.79"/><rect class="cls-15" x="164.66" y="177.65" width="3.79" height="3.79"/><rect class="cls-15" x="168.45" y="177.65" width="3.79" height="3.79"/><rect class="cls-15" x="176.03" y="177.65" width="3.79" height="3.79"/><rect class="cls-15" x="183.61" y="177.65" width="3.79" height="3.79"/><rect class="cls-15" x="191.2" y="177.65" width="3.79" height="3.79"/><rect class="cls-15" x="194.99" y="177.65" width="3.79" height="3.79"/><rect class="cls-15" x="198.78" y="177.65" width="3.79" height="3.79"/><rect class="cls-15" x="206.36" y="177.65" width="3.79" height="3.79"/><rect class="cls-15" x="115.38" y="181.44" width="3.79" height="3.79"/><rect class="cls-15" x="138.12" y="181.44" width="3.79" height="3.79"/><rect class="cls-15" x="149.5" y="181.44" width="3.79" height="3.79"/><rect class="cls-15" x="157.08" y="181.44" width="3.79" height="3.79"/><rect class="cls-15" x="164.66" y="181.44" width="3.79" height="3.79"/><rect class="cls-15" x="168.45" y="181.44" width="3.79" height="3.79"/><rect class="cls-15" x="176.03" y="181.44" width="3.79" height="3.79"/><rect class="cls-15" x="183.61" y="181.44" width="3.79" height="3.79"/><rect class="cls-15" x="206.36" y="181.44" width="3.79" height="3.79"/><rect class="cls-15" x="115.38" y="185.23" width="3.79" height="3.79"/><rect class="cls-15" x="119.17" y="185.23" width="3.79" height="3.79"/><rect class="cls-15" x="122.96" y="185.23" width="3.79" height="3.79"/><rect class="cls-15" x="126.75" y="185.23" width="3.79" height="3.79"/><rect class="cls-15" x="130.54" y="185.23" width="3.79" height="3.79"/><rect class="cls-15" x="134.33" y="185.23" width="3.79" height="3.79"/><rect class="cls-15" x="138.12" y="185.23" width="3.79" height="3.79"/><rect class="cls-15" x="145.71" y="185.23" width="3.79" height="3.79"/><rect class="cls-15" x="153.29" y="185.23" width="3.79" height="3.79"/><rect class="cls-15" x="160.87" y="185.23" width="3.79" height="3.79"/><rect class="cls-15" x="168.45" y="185.23" width="3.79" height="3.79"/><rect class="cls-15" x="176.03" y="185.23" width="3.79" height="3.79"/><rect class="cls-15" x="183.61" y="185.23" width="3.79" height="3.79"/><rect class="cls-15" x="187.4" y="185.23" width="3.79" height="3.79"/><rect class="cls-15" x="191.2" y="185.23" width="3.79" height="3.79"/><rect class="cls-15" x="194.99" y="185.23" width="3.79" height="3.79"/><rect class="cls-15" x="198.78" y="185.23" width="3.79" height="3.79"/><rect class="cls-15" x="202.57" y="185.23" width="3.79" height="3.79"/><rect class="cls-15" x="206.36" y="185.23" width="3.79" height="3.79"/><rect class="cls-15" x="145.71" y="189.02" width="3.79" height="3.79"/><rect class="cls-15" x="149.5" y="189.02" width="3.79" height="3.79"/><rect class="cls-15" x="160.87" y="189.02" width="3.79" height="3.79"/><rect class="cls-15" x="164.66" y="189.02" width="3.79" height="3.79"/><rect class="cls-15" x="168.45" y="189.02" width="3.79" height="3.79"/><rect class="cls-15" x="115.38" y="192.81" width="3.79" height="3.79"/><rect class="cls-15" x="119.17" y="192.81" width="3.79" height="3.79"/><rect class="cls-15" x="126.75" y="192.81" width="3.79" height="3.79"/><rect class="cls-15" x="130.54" y="192.81" width="3.79" height="3.79"/><rect class="cls-15" x="138.12" y="192.81" width="3.79" height="3.79"/><rect class="cls-15" x="149.5" y="192.81" width="3.79" height="3.79"/><rect class="cls-15" x="160.87" y="192.81" width="3.79" height="3.79"/><rect class="cls-15" x="168.45" y="192.81" width="3.79" height="3.79"/><rect class="cls-15" x="172.24" y="192.81" width="3.79" height="3.79"/><rect class="cls-15" x="183.61" y="192.81" width="3.79" height="3.79"/><rect class="cls-15" x="206.36" y="192.81" width="3.79" height="3.79"/><rect class="cls-15" x="119.17" y="196.6" width="3.79" height="3.79"/><rect class="cls-15" x="122.96" y="196.6" width="3.79" height="3.79"/><rect class="cls-15" x="134.33" y="196.6" width="3.79" height="3.79"/><rect class="cls-15" x="141.91" y="196.6" width="3.79" height="3.79"/><rect class="cls-15" x="145.71" y="196.6" width="3.79" height="3.79"/><rect class="cls-15" x="153.29" y="196.6" width="3.79" height="3.79"/><rect class="cls-15" x="168.45" y="196.6" width="3.79" height="3.79"/><rect class="cls-15" x="172.24" y="196.6" width="3.79" height="3.79"/><rect class="cls-15" x="179.82" y="196.6" width="3.79" height="3.79"/><rect class="cls-15" x="187.4" y="196.6" width="3.79" height="3.79"/><rect class="cls-15" x="191.2" y="196.6" width="3.79" height="3.79"/><rect class="cls-15" x="194.99" y="196.6" width="3.79" height="3.79"/><rect class="cls-15" x="198.78" y="196.6" width="3.79" height="3.79"/><rect class="cls-15" x="202.57" y="196.6" width="3.79" height="3.79"/><rect class="cls-15" x="115.38" y="200.39" width="3.79" height="3.79"/><rect class="cls-15" x="119.17" y="200.39" width="3.79" height="3.79"/><rect class="cls-15" x="126.75" y="200.39" width="3.79" height="3.79"/><rect class="cls-15" x="134.33" y="200.39" width="3.79" height="3.79"/><rect class="cls-15" x="138.12" y="200.39" width="3.79" height="3.79"/><rect class="cls-15" x="145.71" y="200.39" width="3.79" height="3.79"/><rect class="cls-15" x="149.5" y="200.39" width="3.79" height="3.79"/><rect class="cls-15" x="160.87" y="200.39" width="3.79" height="3.79"/><rect class="cls-15" x="164.66" y="200.39" width="3.79" height="3.79"/><rect class="cls-15" x="168.45" y="200.39" width="3.79" height="3.79"/><rect class="cls-15" x="172.24" y="200.39" width="3.79" height="3.79"/><rect class="cls-15" x="176.03" y="200.39" width="3.79" height="3.79"/><rect class="cls-15" x="183.61" y="200.39" width="3.79" height="3.79"/><rect class="cls-15" x="187.4" y="200.39" width="3.79" height="3.79"/><rect class="cls-15" x="194.99" y="200.39" width="3.79" height="3.79"/><rect class="cls-15" x="206.36" y="200.39" width="3.79" height="3.79"/><rect class="cls-15" x="119.17" y="204.18" width="3.79" height="3.79"/><rect class="cls-15" x="126.75" y="204.18" width="3.79" height="3.79"/><rect class="cls-15" x="130.54" y="204.18" width="3.79" height="3.79"/><rect class="cls-15" x="145.71" y="204.18" width="3.79" height="3.79"/><rect class="cls-15" x="168.45" y="204.18" width="3.79" height="3.79"/><rect class="cls-15" x="187.4" y="204.18" width="3.79" height="3.79"/><rect class="cls-15" x="194.99" y="204.18" width="3.79" height="3.79"/><rect class="cls-15" x="198.78" y="204.18" width="3.79" height="3.79"/><rect class="cls-15" x="202.57" y="204.18" width="3.79" height="3.79"/><rect class="cls-15" x="206.36" y="204.18" width="3.79" height="3.79"/><rect class="cls-15" x="122.96" y="207.98" width="3.79" height="3.79"/><rect class="cls-15" x="126.75" y="207.98" width="3.79" height="3.79"/><rect class="cls-15" x="134.33" y="207.98" width="3.79" height="3.79"/><rect class="cls-15" x="138.12" y="207.98" width="3.79" height="3.79"/><rect class="cls-15" x="141.91" y="207.98" width="3.79" height="3.79"/><rect class="cls-15" x="149.5" y="207.98" width="3.79" height="3.79"/><rect class="cls-15" x="153.29" y="207.98" width="3.79" height="3.79"/><rect class="cls-15" x="172.24" y="207.98" width="3.79" height="3.79"/><rect class="cls-15" x="176.03" y="207.98" width="3.79" height="3.79"/><rect class="cls-15" x="179.82" y="207.98" width="3.79" height="3.79"/><rect class="cls-15" x="183.61" y="207.98" width="3.79" height="3.79"/><rect class="cls-15" x="206.36" y="207.98" width="3.79" height="3.79"/><rect class="cls-15" x="115.38" y="211.77" width="3.79" height="3.79"/><rect class="cls-15" x="126.75" y="211.77" width="3.79" height="3.79"/><rect class="cls-15" x="141.91" y="211.77" width="3.79" height="3.79"/><rect class="cls-15" x="145.71" y="211.77" width="3.79" height="3.79"/><rect class="cls-15" x="153.29" y="211.77" width="3.79" height="3.79"/><rect class="cls-15" x="160.87" y="211.77" width="3.79" height="3.79"/><rect class="cls-15" x="168.45" y="211.77" width="3.79" height="3.79"/><rect class="cls-15" x="172.24" y="211.77" width="3.79" height="3.79"/><rect class="cls-15" x="176.03" y="211.77" width="3.79" height="3.79"/><rect class="cls-15" x="191.2" y="211.77" width="3.79" height="3.79"/><rect class="cls-15" x="202.57" y="211.77" width="3.79" height="3.79"/><rect class="cls-15" x="115.38" y="215.56" width="3.79" height="3.79"/><rect class="cls-15" x="119.17" y="215.56" width="3.79" height="3.79"/><rect class="cls-15" x="126.75" y="215.56" width="3.79" height="3.79"/><rect class="cls-15" x="130.54" y="215.56" width="3.79" height="3.79"/><rect class="cls-15" x="134.33" y="215.56" width="3.79" height="3.79"/><rect class="cls-15" x="138.12" y="215.56" width="3.79" height="3.79"/><rect class="cls-15" x="153.29" y="215.56" width="3.79" height="3.79"/><rect class="cls-15" x="168.45" y="215.56" width="3.79" height="3.79"/><rect class="cls-15" x="172.24" y="215.56" width="3.79" height="3.79"/><rect class="cls-15" x="179.82" y="215.56" width="3.79" height="3.79"/><rect class="cls-15" x="191.2" y="215.56" width="3.79" height="3.79"/><rect class="cls-15" x="194.99" y="215.56" width="3.79" height="3.79"/><rect class="cls-15" x="198.78" y="215.56" width="3.79" height="3.79"/><rect class="cls-15" x="202.57" y="215.56" width="3.79" height="3.79"/><rect class="cls-15" x="206.36" y="215.56" width="3.79" height="3.79"/><rect class="cls-15" x="115.38" y="219.35" width="3.79" height="3.79"/><rect class="cls-15" x="122.96" y="219.35" width="3.79" height="3.79"/><rect class="cls-15" x="126.75" y="219.35" width="3.79" height="3.79"/><rect class="cls-15" x="130.54" y="219.35" width="3.79" height="3.79"/><rect class="cls-15" x="134.33" y="219.35" width="3.79" height="3.79"/><rect class="cls-15" x="145.71" y="219.35" width="3.79" height="3.79"/><rect class="cls-15" x="149.5" y="219.35" width="3.79" height="3.79"/><rect class="cls-15" x="153.29" y="219.35" width="3.79" height="3.79"/><rect class="cls-15" x="160.87" y="219.35" width="3.79" height="3.79"/><rect class="cls-15" x="187.4" y="219.35" width="3.79" height="3.79"/><rect class="cls-15" x="191.2" y="219.35" width="3.79" height="3.79"/><rect class="cls-15" x="198.78" y="219.35" width="3.79" height="3.79"/><rect class="cls-15" x="206.36" y="219.35" width="3.79" height="3.79"/><rect class="cls-15" x="115.38" y="223.14" width="3.79" height="3.79"/><rect class="cls-15" x="122.96" y="223.14" width="3.79" height="3.79"/><rect class="cls-15" x="134.33" y="223.14" width="3.79" height="3.79"/><rect class="cls-15" x="138.12" y="223.14" width="3.79" height="3.79"/><rect class="cls-15" x="141.91" y="223.14" width="3.79" height="3.79"/><rect class="cls-15" x="157.08" y="223.14" width="3.79" height="3.79"/><rect class="cls-15" x="160.87" y="223.14" width="3.79" height="3.79"/><rect class="cls-15" x="164.66" y="223.14" width="3.79" height="3.79"/><rect class="cls-15" x="172.24" y="223.14" width="3.79" height="3.79"/><rect class="cls-15" x="176.03" y="223.14" width="3.79" height="3.79"/><rect class="cls-15" x="179.82" y="223.14" width="3.79" height="3.79"/><rect class="cls-15" x="183.61" y="223.14" width="3.79" height="3.79"/><rect class="cls-15" x="187.4" y="223.14" width="3.79" height="3.79"/><rect class="cls-15" x="191.2" y="223.14" width="3.79" height="3.79"/><rect class="cls-15" x="198.78" y="223.14" width="3.79" height="3.79"/><rect class="cls-15" x="202.57" y="223.14" width="3.79" height="3.79"/><rect class="cls-15" x="145.71" y="226.93" width="3.79" height="3.79"/><rect class="cls-15" x="153.29" y="226.93" width="3.79" height="3.79"/><rect class="cls-15" x="157.08" y="226.93" width="3.79" height="3.79"/><rect class="cls-15" x="164.66" y="226.93" width="3.79" height="3.79"/><rect class="cls-15" x="176.03" y="226.93" width="3.79" height="3.79"/><rect class="cls-15" x="191.2" y="226.93" width="3.79" height="3.79"/><rect class="cls-15" x="202.57" y="226.93" width="3.79" height="3.79"/><rect class="cls-15" x="115.38" y="230.72" width="3.79" height="3.79"/><rect class="cls-15" x="119.17" y="230.72" width="3.79" height="3.79"/><rect class="cls-15" x="122.96" y="230.72" width="3.79" height="3.79"/><rect class="cls-15" x="126.75" y="230.72" width="3.79" height="3.79"/><rect class="cls-15" x="130.54" y="230.72" width="3.79" height="3.79"/><rect class="cls-15" x="134.33" y="230.72" width="3.79" height="3.79"/><rect class="cls-15" x="138.12" y="230.72" width="3.79" height="3.79"/><rect class="cls-15" x="149.5" y="230.72" width="3.79" height="3.79"/><rect class="cls-15" x="153.29" y="230.72" width="3.79" height="3.79"/><rect class="cls-15" x="160.87" y="230.72" width="3.79" height="3.79"/><rect class="cls-15" x="164.66" y="230.72" width="3.79" height="3.79"/><rect class="cls-15" x="176.03" y="230.72" width="3.79" height="3.79"/><rect class="cls-15" x="183.61" y="230.72" width="3.79" height="3.79"/><rect class="cls-15" x="191.2" y="230.72" width="3.79" height="3.79"/><rect class="cls-15" x="194.99" y="230.72" width="3.79" height="3.79"/><rect class="cls-15" x="206.36" y="230.72" width="3.79" height="3.79"/><rect class="cls-15" x="115.38" y="234.51" width="3.79" height="3.79"/><rect class="cls-15" x="138.12" y="234.51" width="3.79" height="3.79"/><rect class="cls-15" x="157.08" y="234.51" width="3.79" height="3.79"/><rect class="cls-15" x="164.66" y="234.51" width="3.79" height="3.79"/><rect class="cls-15" x="172.24" y="234.51" width="3.79" height="3.79"/><rect class="cls-15" x="176.03" y="234.51" width="3.79" height="3.79"/><rect class="cls-15" x="191.2" y="234.51" width="3.79" height="3.79"/><rect class="cls-15" x="115.38" y="238.3" width="3.79" height="3.79"/><rect class="cls-15" x="122.96" y="238.3" width="3.79" height="3.79"/><rect class="cls-15" x="126.75" y="238.3" width="3.79" height="3.79"/><rect class="cls-15" x="130.54" y="238.3" width="3.79" height="3.79"/><rect class="cls-15" x="138.12" y="238.3" width="3.79" height="3.79"/><rect class="cls-15" x="145.71" y="238.3" width="3.79" height="3.79"/><rect class="cls-15" x="149.5" y="238.3" width="3.79" height="3.79"/><rect class="cls-15" x="153.29" y="238.3" width="3.79" height="3.79"/><rect class="cls-15" x="157.08" y="238.3" width="3.79" height="3.79"/><rect class="cls-15" x="164.66" y="238.3" width="3.79" height="3.79"/><rect class="cls-15" x="172.24" y="238.3" width="3.79" height="3.79"/><rect class="cls-15" x="176.03" y="238.3" width="3.79" height="3.79"/><rect class="cls-15" x="179.82" y="238.3" width="3.79" height="3.79"/><rect class="cls-15" x="183.61" y="238.3" width="3.79" height="3.79"/><rect class="cls-15" x="187.4" y="238.3" width="3.79" height="3.79"/><rect class="cls-15" x="191.2" y="238.3" width="3.79" height="3.79"/><rect class="cls-15" x="194.99" y="238.3" width="3.79" height="3.79"/><rect class="cls-15" x="202.57" y="238.3" width="3.79" height="3.79"/><rect class="cls-15" x="206.36" y="238.3" width="3.79" height="3.79"/><rect class="cls-15" x="115.38" y="242.09" width="3.79" height="3.79"/><rect class="cls-15" x="122.96" y="242.09" width="3.79" height="3.79"/><rect class="cls-15" x="126.75" y="242.09" width="3.79" height="3.79"/><rect class="cls-15" x="130.54" y="242.09" width="3.79" height="3.79"/><rect class="cls-15" x="138.12" y="242.09" width="3.79" height="3.79"/><rect class="cls-15" x="145.71" y="242.09" width="3.79" height="3.79"/><rect class="cls-15" x="160.87" y="242.09" width="3.79" height="3.79"/><rect class="cls-15" x="164.66" y="242.09" width="3.79" height="3.79"/><rect class="cls-15" x="168.45" y="242.09" width="3.79" height="3.79"/><rect class="cls-15" x="179.82" y="242.09" width="3.79" height="3.79"/><rect class="cls-15" x="183.61" y="242.09" width="3.79" height="3.79"/><rect class="cls-15" x="187.4" y="242.09" width="3.79" height="3.79"/><rect class="cls-15" x="194.99" y="242.09" width="3.79" height="3.79"/><rect class="cls-15" x="202.57" y="242.09" width="3.79" height="3.79"/><rect class="cls-15" x="206.36" y="242.09" width="3.79" height="3.79"/><rect class="cls-15" x="115.38" y="245.88" width="3.79" height="3.79"/><rect class="cls-15" x="122.96" y="245.88" width="3.79" height="3.79"/><rect class="cls-15" x="126.75" y="245.88" width="3.79" height="3.79"/><rect class="cls-15" x="130.54" y="245.88" width="3.79" height="3.79"/><rect class="cls-15" x="138.12" y="245.88" width="3.79" height="3.79"/><rect class="cls-15" x="149.5" y="245.88" width="3.79" height="3.79"/><rect class="cls-15" x="157.08" y="245.88" width="3.79" height="3.79"/><rect class="cls-15" x="164.66" y="245.88" width="3.79" height="3.79"/><rect class="cls-15" x="172.24" y="245.88" width="3.79" height="3.79"/><rect class="cls-15" x="179.82" y="245.88" width="3.79" height="3.79"/><rect class="cls-15" x="187.4" y="245.88" width="3.79" height="3.79"/><rect class="cls-15" x="191.2" y="245.88" width="3.79" height="3.79"/><rect class="cls-15" x="198.78" y="245.88" width="3.79" height="3.79"/><rect class="cls-15" x="202.57" y="245.88" width="3.79" height="3.79"/><rect class="cls-15" x="206.36" y="245.88" width="3.79" height="3.79"/><rect class="cls-15" x="115.38" y="249.67" width="3.79" height="3.79"/><rect class="cls-15" x="138.12" y="249.67" width="3.79" height="3.79"/><rect class="cls-15" x="145.71" y="249.67" width="3.79" height="3.79"/><rect class="cls-15" x="149.5" y="249.67" width="3.79" height="3.79"/><rect class="cls-15" x="153.29" y="249.67" width="3.79" height="3.79"/><rect class="cls-15" x="157.08" y="249.67" width="3.79" height="3.79"/><rect class="cls-15" x="160.87" y="249.67" width="3.79" height="3.79"/><rect class="cls-15" x="164.66" y="249.67" width="3.79" height="3.79"/><rect class="cls-15" x="172.24" y="249.67" width="3.79" height="3.79"/><rect class="cls-15" x="183.61" y="249.67" width="3.79" height="3.79"/><rect class="cls-15" x="187.4" y="249.67" width="3.79" height="3.79"/><rect class="cls-15" x="191.2" y="249.67" width="3.79" height="3.79"/><rect class="cls-15" x="198.78" y="249.67" width="3.79" height="3.79"/><rect class="cls-15" x="202.57" y="249.67" width="3.79" height="3.79"/><rect class="cls-15" x="206.36" y="249.67" width="3.79" height="3.79"/><rect class="cls-15" x="115.38" y="253.46" width="3.79" height="3.79"/><rect class="cls-15" x="119.17" y="253.46" width="3.79" height="3.79"/><rect class="cls-15" x="122.96" y="253.46" width="3.79" height="3.79"/><rect class="cls-15" x="126.75" y="253.46" width="3.79" height="3.79"/><rect class="cls-15" x="130.54" y="253.46" width="3.79" height="3.79"/><rect class="cls-15" x="134.33" y="253.46" width="3.79" height="3.79"/><rect class="cls-15" x="138.12" y="253.46" width="3.79" height="3.79"/><rect class="cls-15" x="145.71" y="253.46" width="3.79" height="3.79"/><rect class="cls-15" x="153.29" y="253.46" width="3.79" height="3.79"/><rect class="cls-15" x="157.08" y="253.46" width="3.79" height="3.79"/><rect class="cls-15" x="160.87" y="253.46" width="3.79" height="3.79"/><rect class="cls-15" x="164.66" y="253.46" width="3.79" height="3.79"/><rect class="cls-15" x="176.03" y="253.46" width="3.79" height="3.79"/><rect class="cls-15" x="179.82" y="253.46" width="3.79" height="3.79"/><rect class="cls-15" x="194.99" y="253.46" width="3.79" height="3.79"/><rect class="cls-15" x="206.36" y="253.46" width="3.79" height="3.79"/><rect class="cls-15" x="124.86" y="286.62" width="75.82" height="17.62" rx="3.91"/><text class="cls-16" transform="translate(148.62 299.36)"><tspan class="cls-17">S</tspan><tspan x="5.99" y="0">can</tspan></text><rect class="cls-18" x="115.38" y="106.86" width="94.77" height="15.08"/><rect class="cls-19" x="115.38" y="127.36" width="94.77" height="7.54"/><rect class="cls-20" x="115.38" y="141.66" width="94.77" height="7.54"/><rect class="cls-21" x="115.38" y="318.57" width="94.77" height="12.05"/><path class="cls-22" d="M41.91,137.92S52,134,55.62,147s7.11,15.73,10.49,17.83S69.78,184,41.2,184,10.89,171.35,18.11,163.2s9.67-16.66,10-19.92S33.44,134.42,41.91,137.92Z"/><path class="cls-23" d="M59.11,182.87,59,182.7a5.19,5.19,0,0,0-7.33.21,5.2,5.2,0,0,0-.09,7,3.83,3.83,0,0,0,.28.29l19.43,20.06v0a4.68,4.68,0,0,0,6.43-.26,4.56,4.56,0,0,0,.2-6.13h0c0-.07-.24-.1-.3-.16C77,203,60.65,184.58,59.11,182.87Z"/><path class="cls-23" d="M77.57,210.06l-.2.19,0,0a4.52,4.52,0,0,1-6.31-.38,4.65,4.65,0,0,1,.29-6.41c.42-.52,5.49-5.17,18.15-15.6l3.71,4.55C89.39,197.19,82.72,206.17,77.57,210.06Z"/><path class="cls-12" d="M43.52,288.91a1.61,1.61,0,0,0,0-.22c-.46-13.72-.13-45.73-.13-45.78a9,9,0,0,1,8.79-9.29,9,9,0,0,1,9.25,8.72s0,.14,0,.14C60,257.13,58.4,268.34,54.9,290l0,.2a5.72,5.72,0,0,1-11.38-.6A4.29,4.29,0,0,1,43.52,288.91Z"/><path class="cls-23" d="M51.75,335.84l-6.48.07c-.21-2.1-.57-7.63-1-10.49H52.1C52,328.28,51.83,333.67,51.75,335.84Z"/><path class="cls-12" d="M43.47,289s.06-.21.07-.31a5.72,5.72,0,0,1,11.39.64,14.28,14.28,0,0,1-.16,1.63c-.8,4.14-2,21.72-2.67,34.46H44.32c-.49-3.9-1-7.32-1.31-8.93C39.71,298.36,43.38,289.58,43.47,289Z"/><path class="cls-24" d="M52.15,323s.71.15.52,1.21.2,1.88-.24,2.29-4.06,1.45-8.32,0c0,0-.63-.33-.29-1.85.14-.63-.59-1.33.11-2A13.37,13.37,0,0,0,52.15,323Z"/><path class="cls-12" d="M21.81,288.07v-.22c.24-13.73,2.18-45.68,2.19-45.73a9,9,0,1,1,18.06.44c0,.05,0,.17,0,.17h0c-2.17,14.56-4.37,25.62-9,47.1l0,.17a5.72,5.72,0,0,1-11.33-1.21A5.66,5.66,0,0,1,21.81,288.07Z"/><path class="cls-12" d="M21.76,288.16s.06-.21.08-.31a5.72,5.72,0,0,1,11.34,1.22,16.25,16.25,0,0,1-.24,1.63c-1,4.13-3.12,22.26-4.38,34.94l-7.79-.81c-.29-3.95-.66-7.58-.87-9.24C17.52,297.32,21.64,288.73,21.76,288.16Z"/><path class="cls-23" d="M27.59,335.67l-6.59.38c-.1-2.05,0-8.58-.23-11.22l7.79.81C28.27,328.49,27.77,333.6,27.59,335.67Z"/><path class="cls-24" d="M28.83,323s.7.18.45,1.23.1,1.89-.37,2.27-4.14,1.21-8.31-.49c0,0-.61-.36-.18-1.86.17-.63-.51-1.37.23-2A13.37,13.37,0,0,0,28.83,323Z"/><path class="cls-23" d="M53.14,336.31s-.87-1.42-4.43-1.42-3.85,1.44-3.85,1.44v1.83h8.25Z"/><rect class="cls-25" x="43.04" y="343.36" width="23.92" height="1.82"/><path class="cls-26" d="M66.77,343.36s1.11-4.25-6.83-3.59L53.19,335a.78.78,0,0,0-1,0c-.49.46-2.27,2.15-4.43,1.87s-2.22-1.66-3-1.56-2,3.58-1.81,8Z"/><path class="cls-27" d="M59.94,339.72c7.94-.66,6.83,3.64,6.83,3.64h-7.5A7.25,7.25,0,0,1,59.94,339.72Z"/><path class="cls-28" d="M57.06,340.3a.28.28,0,0,0,.24-.14,3.83,3.83,0,0,1,1.21-1.23.29.29,0,0,0,.11-.39.29.29,0,0,0-.39-.1,4.31,4.31,0,0,0-1.41,1.42.29.29,0,0,0,.09.39A.3.3,0,0,0,57.06,340.3Z"/><path class="cls-28" d="M55.9,339.48a.27.27,0,0,0,.24-.14,3.94,3.94,0,0,1,1.21-1.23.28.28,0,0,0,.11-.39.29.29,0,0,0-.39-.1A4.43,4.43,0,0,0,55.66,339a.29.29,0,0,0,.09.39A.3.3,0,0,0,55.9,339.48Z"/><path class="cls-28" d="M54.74,338.66a.27.27,0,0,0,.24-.14,3.8,3.8,0,0,1,1.22-1.23.28.28,0,0,0-.29-.49,4.43,4.43,0,0,0-1.41,1.42.29.29,0,0,0,.09.39A.3.3,0,0,0,54.74,338.66Z"/><path class="cls-28" d="M53.59,337.84a.29.29,0,0,0,.24-.14A3.72,3.72,0,0,1,55,336.47a.29.29,0,0,0,.1-.39.28.28,0,0,0-.38-.1,4.41,4.41,0,0,0-1.42,1.42.29.29,0,0,0,.1.4A.33.33,0,0,0,53.59,337.84Z"/><path class="cls-23" d="M28.94,336.31s-.86-1.42-4.42-1.42-3.85,1.44-3.85,1.44v1.83h8.24Z"/><rect class="cls-25" x="19.63" y="343.36" width="15.08" height="1.82"/><path class="cls-26" d="M34.45,343.36a3,3,0,0,0-2.3-3.6L28.52,335a2.8,2.8,0,0,0-3.42,0c-.47.29-1.57,2.17-3,1.88s-.94-1.69-1.43-1.58-1.28,3.1-1.15,8Z"/><path class="cls-27" d="M32.15,339.7a3,3,0,0,1,2.3,3.66H26.62C26.81,338.94,32.15,339.7,32.15,339.7Z"/><path class="cls-28" d="M28.1,339.45l.12,0a4.55,4.55,0,0,1,3-.44.29.29,0,0,0,.17-.55,5,5,0,0,0-3.39.46.29.29,0,0,0-.15.38A.28.28,0,0,0,28.1,339.45Z"/><path class="cls-28" d="M27.39,338.45l.12,0a4.52,4.52,0,0,1,3-.44.3.3,0,0,0,.36-.19.28.28,0,0,0-.18-.36,5.07,5.07,0,0,0-3.4.46.29.29,0,0,0-.14.38A.28.28,0,0,0,27.39,338.45Z"/><path class="cls-28" d="M26.83,337.64l.12,0a4.51,4.51,0,0,1,3-.52.3.3,0,0,0,.36-.19.29.29,0,0,0-.2-.36,5.06,5.06,0,0,0-3.38.55.28.28,0,0,0-.13.38A.28.28,0,0,0,26.83,337.64Z"/><path class="cls-28" d="M26.12,336.67l.13,0a4.56,4.56,0,0,1,3-.58.29.29,0,0,0,.15-.55,5.09,5.09,0,0,0-3.37.61.3.3,0,0,0-.13.39A.29.29,0,0,0,26.12,336.67Z"/><path class="cls-12" d="M23.92,242c0-.33.07-1,.1-1.2a8.79,8.79,0,0,1,.15-.87,64.48,64.48,0,0,1,7.29-19.28l22.9.14s6.1,7,7.07,19c.07.47,0,2.53,0,2.53a8.88,8.88,0,0,1-8,8.62L32.8,251A9.14,9.14,0,0,1,23.92,242Z"/><g class="cls-29"><path d="M42.47,250.62a.27.27,0,0,0,.24-.16,58.73,58.73,0,0,0,2.52-8.29c1.39-5.64.07-18.25,0-18.79a.27.27,0,0,0-.29-.23.27.27,0,0,0-.23.29c0,.13,1.37,13.05,0,18.6a58.53,58.53,0,0,1-2.5,8.21.25.25,0,0,0,.13.34A.23.23,0,0,0,42.47,250.62Z"/><path d="M44.81,245.87h0c2.6-.39,3.53-3.5,3.57-3.63,1.7-5.26,0-18.59-.06-19.16a.26.26,0,0,0-.29-.22.27.27,0,0,0-.23.29c0,.14,1.75,13.78.08,18.93,0,0-.88,2.94-3.15,3.28a.26.26,0,0,0-.22.29A.27.27,0,0,0,44.81,245.87Z"/><path d="M44,227.38c7.53,0,12-2.32,12.07-2.35a.27.27,0,0,0,.11-.36.27.27,0,0,0-.36-.1c-.09.05-10,5.15-25.14,0a.26.26,0,0,0-.33.16.25.25,0,0,0,.16.33A41.6,41.6,0,0,0,44,227.38Z"/><circle cx="46.86" cy="224.93" r="1.07"/><path d="M36.14,227.14s-.06,7.41-7.7,7.22c0,0,1.33-5.53,3-8.36A27.28,27.28,0,0,0,36.14,227.14Z"/><path d="M55.34,226s.82,4.16,4.12,5.2a41.1,41.1,0,0,0-2.45-6A17.52,17.52,0,0,1,55.34,226Z"/><path d="M28.71,236.21a9.12,9.12,0,0,0,6.56-2.32A9.89,9.89,0,0,0,38,227.13a.26.26,0,0,0-.26-.27h0a.27.27,0,0,0-.26.27,9.63,9.63,0,0,1-2.59,6.39c-1.67,1.59-4,2.32-7.08,2.14a.26.26,0,0,0-.27.24.26.26,0,0,0,.24.28Z"/><path d="M59.77,232.79a.26.26,0,0,0,.25-.19.26.26,0,0,0-.18-.32c-4.72-1.21-5.43-6-5.44-6.06a.25.25,0,0,0-.29-.22.26.26,0,0,0-.22.29c0,.06.76,5.2,5.82,6.49Z"/><path d="M41.18,250.12a.28.28,0,0,0,.15,0,.25.25,0,0,0,.07-.36,25.34,25.34,0,0,0-5.83-6.12.27.27,0,0,0-.36.06.28.28,0,0,0,.06.37,24.79,24.79,0,0,1,5.7,6A.26.26,0,0,0,41.18,250.12Z"/><path d="M39.65,249.6a.27.27,0,0,0,.2-.09.26.26,0,0,0,0-.37,25.36,25.36,0,0,0-10.26-4.71.27.27,0,0,0-.3.21.28.28,0,0,0,.21.31,25.09,25.09,0,0,1,10,4.59A.23.23,0,0,0,39.65,249.6Z"/><path d="M39.91,250.62a.26.26,0,0,0,.05-.52c-.23,0-5.68-1.1-8.56-.49a.26.26,0,0,0,.11.51c2.78-.59,8.29.48,8.35.49Z"/><path d="M45.63,250.12a.27.27,0,0,0,.22-.11,24.64,24.64,0,0,1,5.69-6,.26.26,0,0,0,.06-.37.27.27,0,0,0-.36-.06,25.34,25.34,0,0,0-5.83,6.12.26.26,0,0,0,.08.36A.23.23,0,0,0,45.63,250.12Z"/><path d="M47.17,249.6a.27.27,0,0,0,.16-.06,25,25,0,0,1,10-4.59.26.26,0,0,0-.09-.52A25.53,25.53,0,0,0,47,249.14a.27.27,0,0,0,0,.37A.29.29,0,0,0,47.17,249.6Z"/><path d="M46.91,250.62H47s5.57-1.08,8.34-.49a.26.26,0,1,0,.11-.51c-2.88-.61-8.32.44-8.55.49a.26.26,0,0,0-.21.31A.26.26,0,0,0,46.91,250.62Z"/></g><path class="cls-23" d="M45.08,176.37l0,6.44-7.88,0,0-8.37A11.91,11.91,0,0,0,45.08,176.37Z"/><path class="cls-23" d="M37.2,174.47l0-6.45,7.88,0,0,8.38A11.91,11.91,0,0,1,37.2,174.47Z"/><path class="cls-30" d="M37.14,174.47l0-6.45L45,168l0,8.38A11.94,11.94,0,0,1,37.14,174.47Z"/><path class="cls-23" d="M42.27,181.57a8,8,0,0,1-5.83-2.49,42.07,42.07,0,0,1,5.15-.82,28.85,28.85,0,0,1,4.43.64C46,179.52,45.3,181.5,42.27,181.57Z"/><path class="cls-26" d="M21.71,184.75c0-3.06,4.31-3.67,4.31-3.67,2.24-.43,5.88-1,8.25-1.54,0,0,1.13-.25,2.58-.51a6.87,6.87,0,0,0,5.38,2.21c3-.07,3.45-1.73,3.51-2.35,1.38.24,2.43.5,2.43.5,4.23.88,7.6,1.69,7.6,1.69s4.44.61,4.44,3.67c0,1.38-2.87,3.39-4.17,4.11v.34c4.16,3.25,4.69,5.69,4.69,8.47a7.3,7.3,0,0,1-4.9,7.22l-1.45,15.88c-9.08,4.75-22.91-.14-22.91-.14-1.5-10.24-3.86-16.82-4.94-23.37a59.61,59.61,0,0,1-.69-8.49C24.44,188,21.71,186.07,21.71,184.75Z"/><path class="cls-26" d="M59.46,228.16a33.09,33.09,0,0,1,1.21,4.64s-12.13,5.61-35.06,0l1.52-4.64Z"/><path class="cls-10" d="M42.72,183.38c-4.85.12-7.74-2.12-8.72-3.78l.27-.06s1.13-.25,2.58-.51a6.87,6.87,0,0,0,5.38,2.21c3-.07,3.45-1.73,3.51-2.35,1.26.22,2.25.45,2.41.49C47.85,180.78,46.75,183.29,42.72,183.38Z"/><path class="cls-31" d="M59.33,200.14a6.06,6.06,0,0,1-3.27,1.07c-4.52.39-11.93,1.2-18.46.15a14.56,14.56,0,0,1-6.82-3.44s1.23,7,9.82,6.88S58.79,205.72,59.33,200.14Z"/><path class="cls-23" d="M20.78,238s3.37,2.42,3.68,3.64,1.23,4.1,1.23,4.69c0,1.47.73,3.38.34,3.51s-1.16.49-2.07-2.36l.27,3.32s.17,1.2-.78,1.31a1,1,0,0,1-1.13-.83L21.9,250a.91.91,0,0,1-1,.59c-.83,0-1.09-1.47-1.09-1.47a1,1,0,0,1-1.08.52,1.22,1.22,0,0,1-.93-.77,1.07,1.07,0,0,1-.82.15c-.58-.23-1-1.56-1-1.56a25.94,25.94,0,0,1,.14-8.24S17.26,234.92,20.78,238Z"/><path class="cls-30" d="M17,249.05a1.07,1.07,0,0,0,.82-.15,1.22,1.22,0,0,0,.93.77,1,1,0,0,0,1.08-.52s.26,1.43,1.09,1.47a.91.91,0,0,0,1-.59l.42,1.2a1,1,0,0,0,1.09.84c.95-.09.82-1.32.82-1.32L24,247.5a18.17,18.17,0,0,0-.6-2.89l.29,3.29s-.51,1.43-1.71.89a1.57,1.57,0,0,1-2-.12s-1.4.56-2.09-.39a1.34,1.34,0,0,1-1.78-.93.72.72,0,0,1,0,.14S16.44,248.82,17,249.05Z"/><path class="cls-23" d="M14,215.23c0-.07,0-.27,0-.27v-.06a4.53,4.53,0,0,1,4.51-4.43A4.64,4.64,0,0,1,23,215c.11.67-.15,7.66-.87,24l-6.06,1C15.07,234,13.4,221.67,14,215.23Z"/><path class="cls-23" d="M18.3,219.44a4.51,4.51,0,0,0,4.39-3.51c1.87-6.25,7.91-26.51,8-26.89a5.19,5.19,0,0,0-4.08-6.1,5,5,0,0,0-1-.1A5.2,5.2,0,0,0,20.5,187l-6.63,27.12v0a4.52,4.52,0,0,0,3.55,5.22,5.22,5.22,0,0,0,.88.07Z"/><path class="cls-26" d="M28.77,207.25s.23,16.91-3.16,25.55L59.74,229s-4-11-4.12-21.81Z"/><path class="cls-26" d="M26.36,181s-9.63.57-10,17.1l12.94,1.7S37.17,185.05,26.36,181Z"/><path class="cls-26" d="M51.8,183.31s-4.85,8.34,8.74,17.77l7.62-8.76S61.13,176.53,51.8,183.31Z"/><path class="cls-23" d="M32.84,157.8a2.68,2.68,0,1,1-2.39-2.94A2.68,2.68,0,0,1,32.84,157.8Z"/><path class="cls-23" d="M55.2,157.8a2.68,2.68,0,1,1-2.39-2.94A2.67,2.67,0,0,1,55.2,157.8Z"/><path class="cls-23" d="M48.62,145.3a10.4,10.4,0,0,0-17.81,4.86A33.62,33.62,0,0,0,30.34,163c1.86,10.32,8.5,14.53,15.74,10.93s7.56-18.32,5-24.7A13.45,13.45,0,0,0,48.62,145.3Z"/><path class="cls-23" d="M88.35,189.46a10.56,10.56,0,0,1,.42-3.81,7.5,7.5,0,0,0-.42-4.14c-.6-1.19-1.11-1.45-.8-1.74.8-.75,2-.88,3.86,3.6l2.87-1.78s1-.61,1.66.1a.88.88,0,0,1,0,1.23h0s1-.3,1.41.33a1.29,1.29,0,0,1-.06,1.42s.48,0,.88.68a1.35,1.35,0,0,1,0,1.2,2.25,2.25,0,0,1,.42.7,2.28,2.28,0,0,1-.21,1.38,20.53,20.53,0,0,1-5.85,4.52S87.57,194.66,88.35,189.46Z"/><path class="cls-30" d="M91.44,183.57l2.87-1.71s-1.62,1.4-2.1,1.93a.91.91,0,0,0,0,1.15l0,.07h0c.33.43,1,0,1,0l2.62-2.05-2.54,2.18c-.69.6-.43,1.09-.43,1.09h0l.18.3c.4.5,1.1.15,1.1.15l3-2s-2.25,1.67-2.92,2.1a.8.8,0,0,0-.3,1.08l0,.05a.91.91,0,0,0,1,.35l3-1.7s-2.48,1.53-2.91,1.82a.63.63,0,0,0-.23.76c.09.12.16.22.2.26.47.63,3-.94,3-.94a12.59,12.59,0,0,1-2.1,1.84,4.77,4.77,0,0,0-4.5-1.17C93.09,186.64,91.44,183.57,91.44,183.57Z"/><path class="cls-22" d="M53.12,153.39s-11.5-5.82-12-12.36C41.07,141,53.68,138.16,53.12,153.39Z"/><path class="cls-22" d="M43.71,141.75a10.86,10.86,0,0,1-7,7.66,9.33,9.33,0,0,0,.6-3s-2.15,5-7.65,5.17C29.66,151.56,28.76,138.46,43.71,141.75Z"/><path class="cls-11" d="M84.14,344.53c0,2.75-18.83,5-42.07,5S0,347.28,0,344.53s18.84-5,42.07-5S84.14,341.78,84.14,344.53Z"/><path class="cls-11" d="M320.68,344.93c0,2.75-18.83,5-42.07,5s-42.07-2.23-42.07-5,18.84-5,42.07-5S320.68,342.19,320.68,344.93Z"/><rect class="cls-32" x="269.22" y="328.1" width="7.39" height="8.41"/><path class="cls-12" d="M277.87,292.54a6.37,6.37,0,1,0-12.74,0c-.05,1.77,3.8,39.29,3.8,39.29,3.71,0,3.61-.28,8.08-.25Z"/><path class="cls-12" d="M277,244.6a6.93,6.93,0,1,0-13.86,0c0,.1,1.9,46.17,2,47.94a6.37,6.37,0,1,0,12.73-.24Z"/><path class="cls-32" d="M267.91,335.75s1-1.57,5-1.57,4.42,1.66,4.42,1.66v2h-9.44Z"/><rect class="cls-33" x="252.4" y="343.91" width="27.03" height="2.04"/><path class="cls-26" d="M252.5,343.91s-1.25-4.86,7.72-4.12l7.63-5.38a.87.87,0,0,1,1.16,0c.56.52,2.56,2.42,5,2.1s2.51-1.82,3.37-1.7,2.28,4,2,9.1Z"/><path class="cls-27" d="M260.22,339.8c-9-.75-7.72,4.11-7.72,4.11H261C261,340.85,260.22,339.8,260.22,339.8Z"/><path class="cls-34" d="M264.78,339.39a.31.31,0,0,1-.27-.15,4.22,4.22,0,0,0-1.37-1.39.32.32,0,1,1,.32-.56,4.94,4.94,0,0,1,1.59,1.61.31.31,0,0,1-.1.44A.26.26,0,0,1,264.78,339.39Z"/><path class="cls-34" d="M266.09,338.47a.33.33,0,0,1-.27-.15,4.57,4.57,0,0,0-1.37-1.4.32.32,0,0,1-.12-.44.33.33,0,0,1,.44-.12,5.27,5.27,0,0,1,1.59,1.62.31.31,0,0,1-.1.44A.34.34,0,0,1,266.09,338.47Z"/><path class="cls-34" d="M267.4,337.54a.31.31,0,0,1-.27-.15,4.44,4.44,0,0,0-1.37-1.39.32.32,0,0,1-.12-.44.31.31,0,0,1,.43-.12,5,5,0,0,1,1.6,1.61.32.32,0,0,1-.1.44A.28.28,0,0,1,267.4,337.54Z"/><rect class="cls-32" x="291.42" y="328.03" width="7.39" height="8.41" transform="translate(-9.41 8.61) rotate(-1.64)"/><path class="cls-12" d="M298.93,292.33a6.37,6.37,0,0,0-12.73.37c0,1.77,5.1,39.08,5.1,39.08,3.52-.33,3.46-.34,7.63-.76Z"/><path class="cls-12" d="M296.7,244.44a6.93,6.93,0,1,0-13.86.4c0,.09,3.22,46.1,3.36,47.86a6.37,6.37,0,1,0,12.72-.6Z"/><path class="cls-32" d="M289.83,335.75s1.05-1.57,5.06-1.57,4.42,1.66,4.42,1.66v2h-9.44Z"/><rect class="cls-34" x="276.62" y="343.91" width="24.99" height="2.04"/><path class="cls-26" d="M279.42,343.91s-.47-4.12,4.72-4.23l6.28-5.52a2.42,2.42,0,0,1,2.62,0c1.11.64,1.27,2.48,3.28,2.15s2.07-1.84,2.78-1.72,2.7,3.72,2.5,9.33Z"/><path class="cls-27" d="M281.35,339.7c-5.19.11-4.72,4.21-4.72,4.21h8.71A4.08,4.08,0,0,0,281.35,339.7Z"/><path class="cls-10" d="M289.41,339.19a.39.39,0,0,1-.24-.1,4.2,4.2,0,0,0-2.77-1.26.28.28,0,0,1-.32-.28c0-.18.15-.27.33-.27h0a4.71,4.71,0,0,1,3.24,1.41.3.3,0,0,1,0,.44A.32.32,0,0,1,289.41,339.19Z"/><path class="cls-10" d="M290.73,338a.31.31,0,0,1-.24-.1,4.29,4.29,0,0,0-2.78-1.26.34.34,0,0,1,0-.67h0a4.9,4.9,0,0,1,3.24,1.47.33.33,0,0,1,0,.47A.31.31,0,0,1,290.73,338Z"/><path class="cls-10" d="M292,336.89a.31.31,0,0,1-.24-.1,4.25,4.25,0,0,0-2.77-1.25c-.18,0-.33-.1-.33-.28s.15-.27.33-.27h0a4.67,4.67,0,0,1,3.25,1.41.29.29,0,0,1,0,.43A.29.29,0,0,1,292,336.89Z"/><path class="cls-12" d="M296.76,233.76H263.09l.14,11.91a8.21,8.21,0,0,0,7.92,8l17.67.12a8.21,8.21,0,0,0,7.94-8.21Z"/><path class="cls-24" d="M299.9,331.32c-.26,0-10.07.51-10.07.51l-.69-5.4h11.19Z"/><path class="cls-24" d="M278.08,331.8c-.25,0-10.06.51-10.06.51l-.69-5.4h11.18Z"/><g class="cls-29"><path d="M281,253.37a.21.21,0,0,1-.19-.13,49,49,0,0,1-2.11-6.92c-1.16-4.71-.06-15.22,0-15.67a.22.22,0,1,1,.43,0c0,.1-1.14,10.88,0,15.52a48.78,48.78,0,0,0,2.08,6.84.22.22,0,0,1-.11.29Z"/><path d="M279.08,249.4h0c-2.17-.32-2.95-2.92-3-3-1.42-4.39,0-15.51.05-16a.21.21,0,0,1,.24-.18.21.21,0,0,1,.19.24c0,.11-1.46,11.49-.06,15.79,0,0,.73,2.45,2.62,2.73a.23.23,0,0,1,.19.25A.22.22,0,0,1,279.08,249.4Z"/><path d="M279.74,234a23.32,23.32,0,0,1-10.07-2,.22.22,0,0,1-.09-.29.22.22,0,0,1,.3-.09c.08,0,8.3,4.29,21,0a.22.22,0,0,1,.28.13.23.23,0,0,1-.14.28A34.93,34.93,0,0,1,279.74,234Z"/><circle cx="277.37" cy="231.94" r="0.89"/><path d="M286.31,233.78s.05,6.19,6.42,6a32.24,32.24,0,0,0-2.51-7A21.93,21.93,0,0,1,286.31,233.78Z"/><path d="M270.3,232.81s-.69,3.47-3.44,4.33a33.7,33.7,0,0,1,2.05-5S269.54,232.48,270.3,232.81Z"/><path d="M292.51,241.35a7.61,7.61,0,0,1-5.47-1.93,8.33,8.33,0,0,1-2.3-5.65.23.23,0,0,1,.22-.22h0a.22.22,0,0,1,.21.23,8.06,8.06,0,0,0,2.17,5.33,7.55,7.55,0,0,0,5.9,1.78.21.21,0,0,1,.23.2.21.21,0,0,1-.2.23Z"/><path d="M266.6,238.5a.23.23,0,0,1-.21-.16.22.22,0,0,1,.16-.27,6.39,6.39,0,0,0,4.53-5,.2.2,0,0,1,.24-.18.22.22,0,0,1,.19.24,6.84,6.84,0,0,1-4.85,5.41Z"/><path d="M282.1,253a.15.15,0,0,1-.11,0,.22.22,0,0,1-.07-.3,21.17,21.17,0,0,1,4.86-5.1.22.22,0,1,1,.25.35,20.75,20.75,0,0,0-4.74,5A.26.26,0,0,1,282.1,253Z"/><path d="M283.38,252.52a.21.21,0,0,1-.16-.08.21.21,0,0,1,0-.31,21.27,21.27,0,0,1,8.55-3.92.23.23,0,0,1,.26.17.23.23,0,0,1-.18.26,20.77,20.77,0,0,0-8.36,3.83A.24.24,0,0,1,283.38,252.52Z"/><path d="M283.17,253.37a.23.23,0,0,1-.22-.18.22.22,0,0,1,.18-.25c.19,0,4.73-.92,7.13-.41a.21.21,0,1,1-.09.42c-2.31-.49-6.91.4-7,.41Z"/><path d="M278.4,253a.23.23,0,0,1-.19-.1,20.75,20.75,0,0,0-4.74-5,.21.21,0,0,1-.06-.3.22.22,0,0,1,.31,0,21.17,21.17,0,0,1,4.86,5.1.22.22,0,0,1-.07.3A.15.15,0,0,1,278.4,253Z"/><path d="M277.11,252.52a.24.24,0,0,1-.13-.05,20.77,20.77,0,0,0-8.36-3.83.23.23,0,0,1-.18-.26.22.22,0,0,1,.25-.17,21.27,21.27,0,0,1,8.56,3.92.22.22,0,0,1-.14.39Z"/><path d="M277.33,253.37h0c-.05,0-4.65-.9-7-.41a.21.21,0,1,1-.09-.42c2.4-.51,6.94.37,7.13.41a.2.2,0,0,1,.17.25A.22.22,0,0,1,277.33,253.37Z"/></g><path class="cls-35" d="M291.33,138.42a8.75,8.75,0,0,1,3,4.82,15.33,15.33,0,0,1-.12,7.64,31.37,31.37,0,0,1-2.92,7.13,3,3,0,0,1-.88,1.12,2.86,2.86,0,0,1-1.23.34c-5.1.64-10.28,1.27-15.38.59a5.68,5.68,0,0,1-3.27-1.25c-1.1-1.06-1.25-2.76-1.31-4.29-.05-1.36-.07-2.72-.08-4.08,0-3-4.5-3.84-3.56-6.72.36-1.11,5.47-4.46,6.32-5.27a7.08,7.08,0,0,1,2.25-1.37,15.78,15.78,0,0,1,8.62-1c1.48.24,2.7,1.29,4.15,1.18A6.24,6.24,0,0,1,291.33,138.42Z"/><rect class="cls-23" x="276.11" y="166.45" width="10.45" height="12.24"/><path class="cls-30" d="M286.56,171.68v-5.23H276.11v8.16C277.64,174.83,283.76,175.25,286.56,171.68Z"/><path class="cls-23" d="M274.66,177.19a35.69,35.69,0,0,1,13.48,0,7.87,7.87,0,0,1-7.33,4.21C275.33,181.4,274.66,177.19,274.66,177.19Z"/><path class="cls-26" d="M308,185.49a6,6,0,0,0-4.4-4.38s-8.81-2.45-16.06-4c0,0-1.57,4.2-7.48,4.11-5.12-.09-4.63-4.11-4.63-4.11-3.3.52-11.64,2.47-14.93,4a6,6,0,0,0-3.79,5.11s-.05,1.78,3.69,4.24c.23,4.16.77,9.92,1.91,17.67,1.34,9,.81,13.8.79,26.29,0,0,10.71,4.49,34.34,0,0,0-.86-13.18.32-23.13.94-8,4.13-15.83,4.64-20.14h0C309,188.33,308,185.49,308,185.49Z"/><path class="cls-23" d="M305.64,184.36a4.74,4.74,0,0,0-7.45,5.86c.26.32,20.53,21.6,20.53,21.6a4,4,0,0,0,6.29-4.95Z"/><path class="cls-23" d="M324.51,212.25a4,4,0,0,0,.16-5.62,4.07,4.07,0,0,0-5.66-.31h0s-6.05,4-21.29,19.78l3.48,3.75s16.32-10,23.1-17.42A2.08,2.08,0,0,1,324.51,212.25Z"/><path class="cls-26" d="M319.36,197.94l-12.59-14.6a6.19,6.19,0,0,0-9.69,7.69c.19.23,6.61,7,13.75,14.46A61.14,61.14,0,0,0,319.36,197.94Z"/><path class="cls-23" d="M302.66,226c-.8-2.29-2-1.92-2-1.92l-1.75.08c-1.53-.76-2.34-2-3.12-2.22-1.42-.45-1.88-1.83-2.19-1.71a.94.94,0,0,0-.52,1.39,5.69,5.69,0,0,0,1.36,1.52,32.31,32.31,0,0,0-4.09-1.12c-.78-.1-3.06,1.25-3.33,1.41s-.82.51-.66.84c.26.54.91.53,1.4.39s1.77-1,2.21-.92c.26.07,1.83.54,2,.59s-1.94.75-2.78,1-3,1.17-3,1.17c-1.58,1,.38,1.62.38,1.62s-.51.45-.39.76c.23.57,1.06.57,1.26.56a20.18,20.18,0,0,0,2.64-.65l2.82.09c-.85.66-1.35,1-2.4,1.75a10.62,10.62,0,0,0-1.4,1,.36.36,0,0,0,.18.49,1.77,1.77,0,0,0,1.34,0,12.55,12.55,0,0,0,1.55-.74c1.83-1.07,2.86-1.41,4.54-.19,2.41,1.75,5.06-1.84,5.06-1.84A2.86,2.86,0,0,0,302.66,226Z"/><path class="cls-30" d="M294.43,223.17l1.29.47S295.87,223.34,294.43,223.17Z"/><path class="cls-30" d="M286.54,228.19s2.65-.93,3.25-1.09,3.58-.11,3.34-.76C293.13,226.34,292.24,225.56,286.54,228.19Z"/><path class="cls-30" d="M291.92,224.36s1.49-.22,1.13-.37S292.21,224.24,291.92,224.36Z"/><path class="cls-23" d="M258.54,184.41a4.74,4.74,0,1,1,7.43,5.88c-.25.32-20.58,21.54-20.58,21.54a4,4,0,0,1-6.28-5Z"/><path class="cls-23" d="M239.25,211.83a4,4,0,0,1,.43-5.6,4.08,4.08,0,0,1,5.67.3h0s5.6,4.58,19.06,21.93l-3.59,3.13S245.38,220.17,239.44,212A2.44,2.44,0,0,0,239.25,211.83Z"/><path class="cls-26" d="M244.78,198l12.63-14.56a6.18,6.18,0,0,1,9.67,7.71c-.19.24-6.63,7-13.79,14.42A60.75,60.75,0,0,1,244.78,198Z"/><path class="cls-23" d="M263.47,221.82s.62-2-.31-2.59-1.5,3.25-1.5,3.25Z"/><path class="cls-23" d="M270.83,225.12a38.26,38.26,0,0,0-3.53-1.68c-.26-.06-2.47-.28-2.48-.29l1.66-.49c.69-.2,2,.87,2.94.62s.8-.88.47-1c-2.26-.89-2.82-1.38-3.62-1.31a20,20,0,0,0-2.54.46c-1.07.18-1.46,0-1.91.75a22.88,22.88,0,0,0-2,7.06c-.36,2.22,2.14,2.89,2.14,2.89,2.09.55,2-1.8,2.86-2.55.35-.31,1.93,1,2.45,1.29s1.24.53,1.52.36c.64-.38.37-.67.07-.91-.47-.38-3.72-2.66-3.72-2.66s.06-.22.08-.34,1.65.54,2.43.9,2,.88,2.6.49a.59.59,0,0,0,.11-1c-.37-.34-4.87-2.36-4.87-2.36a2.1,2.1,0,0,1,1.59-.27,12.91,12.91,0,0,1,2,.67c.43.22,1.46.7,1.87.2A.52.52,0,0,0,270.83,225.12Z"/><path class="cls-30" d="M265,229.53a8.21,8.21,0,0,0-1-.61C263.84,228.88,263.74,229.08,265,229.53Z"/><path class="cls-30" d="M264.36,230.07a6.49,6.49,0,0,1-1.45-.33C262.76,229.6,262.2,230.25,264.36,230.07Z"/><path class="cls-30" d="M265.1,227.65s-1.61-.78-1.51-1.06,1.19.44,1.59.72Z"/><path class="cls-30" d="M265.45,225.33s-1.81-.34-1.75-.78S265.45,225.33,265.45,225.33Z"/><path class="cls-30" d="M264.82,223.15s-1.36-.31-1.45-.56S263.89,222.55,264.82,223.15Z"/><path class="cls-23" d="M289.72,156.68a3.08,3.08,0,1,0,2.66-3.45A3.09,3.09,0,0,0,289.72,156.68Z"/><path class="cls-36" d="M291.6,156.47A1.48,1.48,0,1,0,293,155,1.49,1.49,0,0,0,291.6,156.47Z"/><path class="cls-23" d="M273.06,142.66c5.7-6.65,16.61-3.91,18.68,4.6a34.94,34.94,0,0,1,.82,13.38c-1.67,10.79-8.48,15.34-16.11,11.79s-8.35-18.89-5.84-25.6A13.85,13.85,0,0,1,273.06,142.66Z"/><path class="cls-35" d="M292.75,153.2s-1.14-.11-2.16,1.59c0,0-2-12.84-7-12.41a38.46,38.46,0,0,0-13.5,3.54c-5.87,2.81-5.14-10,5.37-10.43,12.2-.44,10.84.8,10.84.8S298,132.4,292.75,153.2Z"/><path class="cls-35" d="M287.85,144.48s1.11-7-1.07-9.86-3.75-2.5-5.09-1.17c0,0-2.69-2.86-4.47-.21s-3,.68-4,0-4-.87-3.13,1.94c0,0-5.83-3.46-7.38.21s3.08,5.16,3.08,5.16-2.75,9.11,5.31,5.3C280.86,141.22,287.85,144.48,287.85,144.48Z"/><path class="cls-12" d="M98.71,19c-.31-.6-.61-1.21-.87-1.82l.46-.2c.26.59.55,1.2.86,1.78Z"/><path class="cls-12" d="M304.87,69.85l-2.39-3.16.4-.3,2.39,3.16Zm-4.77-6.32-2.39-3.16.4-.3,2.39,3.16Zm-4.77-6.32-2.39-3.16.4-.3,2.39,3.16Zm-4.78-6.31q-1.2-1.57-2.43-3.12l.4-.31c.82,1,1.63,2.08,2.43,3.13Zm-4.93-6.18c-.9-1.06-1.75-2-2.61-3l.37-.34c.86.94,1.72,1.91,2.62,3Zm-119.08-.63h-.62v-.5a34.91,34.91,0,0,0,3.93-.14l0,.5C168.76,44,167.63,44.09,166.54,44.09ZM162,43.78A28.8,28.8,0,0,1,158,43l.14-.48a27.48,27.48,0,0,0,3.84.8Zm11.9-.37-.09-.49c1.27-.23,2.56-.52,3.84-.86l.13.49C176.43,42.89,175.13,43.18,173.85,43.41Zm-19.56-1.82a23.64,23.64,0,0,1-2.63-1.4c-.29-.18-.57-.37-.85-.57l.29-.4c.27.19.55.37.83.54a23.42,23.42,0,0,0,2.57,1.38Zm27.24-.2-.16-.48.8-.28c.93-.34,1.9-.72,2.88-1.12l.19.46c-1,.41-2,.79-2.9,1.13Zm98.73-2.45c-.81-.78-1.62-1.53-2.42-2.23l-.5-.42.32-.38c.17.14.34.28.5.43.81.7,1.64,1.45,2.45,2.24Zm-91.38-.56-.21-.45c1.11-.51,2.27-1.07,3.57-1.71l.22.45C191.16,37.31,190,37.87,188.88,38.38Zm-51.13-.44-1.8,0v-.5c1.31,0,2.63,0,3.95,0v.5C139.2,37.93,138.47,37.94,137.75,37.94Zm6.13-.21,0-.5c1.24-.08,2.51-.18,3.89-.3a20.83,20.83,0,0,1-2.37-3.12l.42-.26a20.81,20.81,0,0,0,2.37,3.1l-.36.34h0l0,.43C146.44,37.55,145.14,37.65,143.88,37.73Zm-11.9,0c-1.34-.11-2.67-.25-3.95-.43l.07-.5c1.27.18,2.59.33,3.92.43Zm19.8-.72-.06-.5c1.17-.13,2.33-.28,3.49-.43l.43-.06.07.5-.43.06C154.11,36.72,153,36.87,151.78,37Zm-27.66-.41-1.21-.28c-.89-.22-1.77-.46-2.64-.73l.15-.48c.85.27,1.73.51,2.61.72l1.19.28Zm35.52-.67-.09-.49c1.42-.25,2.68-.52,3.85-.83l.13.49C162.34,35.4,161.07,35.67,159.64,35.92Zm36.36-1-.23-.45,3.52-1.81.23.45Zm-79.48-.66c-1.23-.5-2.44-1.07-3.61-1.68l.24-.44c1.15.6,2.34,1.16,3.56,1.66Zm157.72-.37c-1.05-.76-2.15-1.5-3.27-2.2l.27-.42c1.12.7,2.23,1.44,3.29,2.22Zm-106.92,0-.19-.47a21.73,21.73,0,0,0,3.47-1.78l.27.42A22.33,22.33,0,0,1,167.32,33.84Zm35.73-2.54-.22-.45c1.31-.65,2.48-1.21,3.57-1.71l.21.45C205.52,30.09,204.36,30.65,203.05,31.3Zm-93.56-.78a35.33,35.33,0,0,1-3.2-2.37l.32-.38a35.72,35.72,0,0,0,3.15,2.34Zm34.07-.28a21.24,21.24,0,0,1-1.11-3.84l.49-.09A20.51,20.51,0,0,0,144,30.06Zm124-.53c-1.15-.61-2.34-1.19-3.55-1.72l.21-.46c1.21.54,2.42,1.12,3.57,1.73ZM174,29.45l-.37-.34A14.94,14.94,0,0,0,175.85,26l.44.23A15.58,15.58,0,0,1,174,29.45ZM210.23,28l-.19-.47.68-.27c1-.4,2-.78,3-1.14l.17.47c-1,.36-2,.74-3,1.13Zm50.12-1.49c-1.22-.45-2.48-.86-3.74-1.24l.14-.48c1.27.38,2.54.8,3.77,1.25Zm-157-1.09a29.22,29.22,0,0,1-2.55-3.07l.4-.29a30.9,30.9,0,0,0,2.51,3Zm114.29,0-.14-.48c1.27-.37,2.57-.7,3.85-1l.11.49C220.22,24.71,218.93,25,217.67,25.41Zm35.12-1.12c-1.26-.29-2.57-.55-3.87-.77L249,23c1.32.22,2.63.48,3.9.77Zm-27.43-.64-.08-.5c1.3-.22,2.62-.41,3.93-.56l.06.49C228,23.23,226.66,23.42,225.36,23.65ZM245,23c-1.29-.14-2.62-.24-3.93-.31l0-.49c1.33.06,2.66.17,4,.3Zm-11.82-.26,0-.5c1.32-.08,2.66-.12,4-.13v.5C235.83,22.61,234.5,22.65,233.19,22.73Zm-90.56-.31h-.5a16.14,16.14,0,0,1,.61-4l.48.14A15.63,15.63,0,0,0,142.63,22.42Zm35,0-.49-.1a10.6,10.6,0,0,0,.22-2.15,9.6,9.6,0,0,0-.15-1.7l.49-.08a9.58,9.58,0,0,1,.16,1.78A11.61,11.61,0,0,1,177.65,22.41Zm-32.84-7.36-.42-.27a13,13,0,0,1,1.53-1.95A11.22,11.22,0,0,1,147,11.76l.33.38a13.35,13.35,0,0,0-2.55,2.91Zm31-.12a11.4,11.4,0,0,0-2.73-2.73l.3-.4a11.81,11.81,0,0,1,2.84,2.85Zm-6.13-4.61c-.71-.3-1.46-.58-2.25-.83-.48-.15-1-.3-1.47-.42l.13-.49c.5.13,1,.28,1.49.43.8.26,1.57.54,2.29.85Zm-19-.3-.22-.45a18.23,18.23,0,0,1,3.79-1.32l.11.49A17.19,17.19,0,0,0,150.61,10Zm11.47-1.66a25.83,25.83,0,0,0-3.92-.14l0-.5a25.48,25.48,0,0,1,4,.14Z"/><rect class="cls-12" x="307.86" y="72.74" width="0.5" height="2" transform="translate(17.74 200.45) rotate(-37.03)"/><polygon class="cls-37" points="103.78 9.62 103.25 25.62 50.73 0 103.78 9.62"/><polygon class="cls-26" points="117.42 0.54 103.78 9.62 50.73 0 117.42 0.54"/><polygon class="cls-26" points="98.96 12.55 50.73 0 84.6 22.16 98.96 12.55"/><polygon class="cls-38" points="103.25 25.62 98.96 12.55 89.45 18.92 103.25 25.62"/><polygon class="cls-7" points="125.19 281.6 117.36 280.18 111.2 268.85 97.05 276.52 92.01 275.62 90.02 280.34 75.87 288.02 82.03 299.36 78.94 306.7 96.22 338.54 142.47 313.44 125.19 281.6"/><rect class="cls-39" x="77.77" y="290.32" width="52.62" height="26.59" transform="translate(-132.21 86.4) rotate(-28.49)"/><polygon class="cls-26" points="74.61 304.48 87.68 273.4 120.86 279.38 74.61 304.48"/><rect class="cls-10" x="80.63" y="273.29" width="40.2" height="48.29" transform="translate(-129.67 84.05) rotate(-28.49)"/><rect class="cls-40" x="76.69" y="284.74" width="34.66" height="1.61" transform="translate(-124.81 79.41) rotate(-28.49)"/><rect class="cls-40" x="78.25" y="287.61" width="34.66" height="1.61" transform="translate(-125.99 80.51) rotate(-28.49)"/><rect class="cls-40" x="79.81" y="290.48" width="34.66" height="1.61" transform="translate(-127.17 81.6) rotate(-28.49)"/><rect class="cls-40" x="81.37" y="293.35" width="34.66" height="1.61" transform="translate(-128.35 82.69) rotate(-28.49)"/><rect class="cls-40" x="82.92" y="296.22" width="34.66" height="1.61" transform="translate(-129.53 83.78) rotate(-28.49)"/><rect class="cls-40" x="85.04" y="301.11" width="26.86" height="1.61" transform="translate(-132.08 83.52) rotate(-28.49)"/><polygon class="cls-26" points="74.61 304.48 91.89 336.32 138.14 311.22 120.86 279.38 107.97 310.79 74.61 304.48"/><polygon class="cls-26" points="91.89 336.32 104.96 305.24 138.14 311.22 91.89 336.32"/><polygon class="cls-7" points="91.89 336.32 101.83 309.63 103.03 309.85 91.89 336.32"/><polygon class="cls-7" points="138.14 311.22 109.88 306.13 110.34 305.01 138.14 311.22"/><path class="cls-7" d="M92.23,129.06V88.91a18.37,18.37,0,0,1,8.21-15.32,32.15,32.15,0,0,1-8.21,55.47Z"/><circle class="cls-41" cx="78.97" cy="96.26" r="32.15" transform="translate(-28.97 158.32) rotate(-80.53)"/><circle class="cls-41" cx="79.83" cy="96.88" r="28.45" transform="translate(-32.37 40.58) rotate(-23.86)"/><path class="cls-42" d="M87.56,122.12a28.45,28.45,0,0,1-35.84-17.31l.18.58a28.45,28.45,0,0,0,53.92-18.18c-.06-.19-.14-.37-.21-.56A28.43,28.43,0,0,1,87.56,122.12Z"/><path class="cls-7" d="M70.69,71.69A28.43,28.43,0,0,1,106.3,88.38c-.11-.4-.23-.8-.37-1.2A28.45,28.45,0,1,0,52,105.35c.14.4.28.79.43,1.18A28.45,28.45,0,0,1,70.69,71.69Z"/><g class="cls-43"><polygon points="79.13 112.42 64.37 100.05 67.26 96.61 78.05 105.66 93.36 80.98 97.17 83.35 79.13 112.42"/></g><polygon class="cls-10" points="78.47 110.81 63.72 98.44 66.6 95 77.39 104.05 92.7 79.38 96.51 81.74 78.47 110.81"/></g></g></g></svg>