<svg xmlns="http://www.w3.org/2000/svg" viewBox="0 0 439.69 422.89"><defs><style>.cls-1,.cls-7{fill:#92e3a9;}.cls-2,.cls-6,.cls-9{fill:#fff;}.cls-2{opacity:0.7;}.cls-3,.cls-8{fill:#263238;}.cls-4,.cls-5{fill:none;}.cls-10,.cls-11,.cls-12,.cls-13,.cls-4,.cls-5,.cls-6,.cls-7,.cls-8{stroke:#263238;stroke-linecap:round;stroke-linejoin:round;}.cls-5{stroke-width:4px;}.cls-10{fill:#a82000;}.cls-11{fill:#a6a6a6;}.cls-12{fill:#0057d6;}.cls-13{fill:#004da0;}.cls-14{fill:#00468c;}</style></defs><title>89Asset 1logo 3</title><g id="Layer_2" data-name="Layer 2"><g id="Background_Simple" data-name="Background Simple"><path class="cls-1" d="M275.5,7.38a39.47,39.47,0,0,0-39.43-3.79C173.64,32.3-32.42,133.62,11,201.35,62,281,243,406.52,309.36,400.53S451,283.2,434.08,209.91C419.88,148.32,324.39,42.56,275.5,7.38Z"/><path class="cls-2" d="M275.5,7.38a39.47,39.47,0,0,0-39.43-3.79C173.64,32.3-32.42,133.62,11,201.35,62,281,243,406.52,309.36,400.53S451,283.2,434.08,209.91C419.88,148.32,324.39,42.56,275.5,7.38Z"/></g><g id="Plants"><path class="cls-3" d="M333.36,215c1.53,3.65,8.09,9.64,8.1,9.65s2.63-5.53,2.75-5.9c1.41-4.29,1.61-13.41-2.49-16.39a6,6,0,0,0-8.66,2.11C331.27,207.58,332.06,211.9,333.36,215Z"/><path class="cls-3" d="M438.36,273.53c-3.26-3.87-12.34-3-16.52-1.3-.37.15-5.75,3.12-5.68,3.18l.08.07c-1.44.13-3,.28-4.65.48-3.1.38-6.59.85-10.35,1.62a105.55,105.55,0,0,0-12,3,77.71,77.71,0,0,0-12.84,5.28l-.15.08c1-1.05,3.86-4.1,4-4.35C383,278,386,269.38,383,265.28a6,6,0,0,0-8.89-.7c-2.67,2.37-3.26,6.73-3,10.09.3,3.8,4.3,11,4.62,11.59a105.34,105.34,0,0,0-11.9,7.64c-2.22,1.62-4.4,3.33-6.57,5.06.87-.94,1.64-1.79,1.74-1.92,2.68-3.64,5.7-12.24,2.74-16.35a6,6,0,0,0-8.88-.7c-2.67,2.38-3.27,6.74-3,10.1s3.56,9.64,4.45,11.27c-.83.68-1.66,1.34-2.48,2-4,3.25-7.87,6.51-11.82,9.6-1.39,1.08-2.8,2.1-4.2,3.13.77-.84,1.41-1.55,1.5-1.67,2.68-3.64,5.71-12.25,2.75-16.35a6,6,0,0,0-8.89-.7c-2.67,2.37-3.26,6.73-3,10.1s3.24,9,4.29,11c-1.47,1-2.94,2-4.41,2.92-1,.6-2,1.24-3,1.79L322,324.84c-2,1-4,2-6,2.93-1.37.64-2.68,1.23-4,1.83,1.4-1.07,4.09-3.21,4.29-3.41a23.18,23.18,0,0,0,5.56-10.34,7,7,0,0,0,.86-1,6,6,0,0,0-1.79-8.73c-4.43-2.44-12.6,1.63-15.89,4.73-.19.18-2.07,2.4-3.24,3.82.56-.94,1.11-1.84,1.67-2.82,1.13-1.91,2.19-3.86,3.35-5.95l1.57-3.12c.55-1,1-2.19,1.51-3.29,1.13-2.58,2.15-5.25,3.11-8,1.68,1,7.71,4.37,11.08,4.74s7.73-.11,10.17-2.71a6,6,0,0,0-.44-8.9c-4-3.08-12.7-.3-16.42,2.27-.23.16-2.69,2.3-4,3.51.57-1.64,1.14-3.27,1.66-4.94,1.51-4.83,2.88-9.76,4.26-14.67.43-1.51.87-3,1.31-4.5.59.35,7.66,4.54,11.44,4.95,3.35.36,7.73-.1,10.18-2.7a6,6,0,0,0-.45-8.9c-4-3.08-12.7-.31-16.42,2.26-.28.2-3.81,3.28-4.67,4.11,1-3.29,2-6.57,3.05-9.77a105.79,105.79,0,0,1,5.24-12.63c.28.16,7.64,4.57,11.5,5,3.36.36,7.73-.11,10.18-2.71a6,6,0,0,0-.44-8.9c-4-3.08-12.7-.3-16.42,2.27-.29.2-4.09,3.53-4.74,4.18.12-.24.21-.5.34-.73a76.41,76.41,0,0,1,7.45-11.51c1.53-2,3.11-3.85,4.68-5.6,1.29,1,7.22,5.29,10.65,6.05s7.7.74,10.42-1.57a6,6,0,0,0,.54-8.89c-3.65-3.51-12.6-1.7-16.57.44-.22.12-2.29,1.55-3.78,2.61.72-.78,1.45-1.6,2.16-2.33,2.65-2.76,5.24-5.13,7.56-7.2,1.33-1.18,2.55-2.21,3.7-3.16,1.76.28,8.84,1.34,12.18.45s7.18-2.89,8.52-6.19a6,6,0,0,0-3.62-8.15c-4.85-1.42-12,4.3-14.5,8-.22.32-3.07,5.77-3,5.78l.1,0c-1.12.89-2.32,1.87-3.61,3-2.37,2-5,4.34-7.74,7.06a104.61,104.61,0,0,0-8.36,9.17,78.9,78.9,0,0,0-7.8,11.49,1,1,0,0,1-.07.15c.29-1.45,1-5.55,1-5.87.22-4.51-2-13.36-6.74-15.15a6,6,0,0,0-7.79,4.32c-.92,3.45,1,7.42,3.07,10.07,2.34,3,9.66,6.82,10.24,7.12a106.64,106.64,0,0,0-5.71,12.94c-1,2.57-1.84,5.2-2.69,7.85.21-1.27.39-2.4.39-2.56.23-4.52-2-13.37-6.73-15.15a6,6,0,0,0-7.79,4.31c-.92,3.45,1,7.42,3.07,10.08s8.28,6.07,9.92,6.95c-.31,1-.64,2-.95,3.05-1.5,4.89-3,9.77-4.56,14.52-.56,1.67-1.18,3.3-1.78,4.93.18-1.12.33-2.07.33-2.22.23-4.51-2-13.36-6.73-15.15a6,6,0,0,0-7.79,4.32c-.92,3.45,1,7.42,3.07,10.07s7.68,5.75,9.63,6.79c-.67,1.65-1.34,3.31-2.07,4.88-.52,1.06-1,2.12-1.53,3.15l-1.65,3.09c-1.11,1.92-2.26,3.91-3.4,5.75-.78,1.29-1.55,2.51-2.32,3.74.58-1.66,1.64-4.94,1.7-5.22.9-4.43.05-13.51-4.36-16a6,6,0,0,0-8.36,3.09c-1.43,3.27-.14,7.48,1.51,10.43,1.82,3.23,8.19,7.95,9,8.54-1.28,2-2.55,4-3.78,5.81l-1.81,2.69,2.17,2.28c.7-1.07,1.42-2.18,2.16-3.34,1.31-2.05,2.67-4.26,4-6.56a63.9,63.9,0,0,0,7.25,2.43c-.06,3.82,2.47,10.78,2.8,11.67-2.19,1-4.32,1.92-6.35,2.77a20.2,20.2,0,0,1-2.57.73l2.32,2.43a9.72,9.72,0,0,0,1.44-.41c2.22-1,4.58-2.09,7-3.24.55.8,5.09,7.32,8.28,9.24,2.89,1.73,7.06,3.14,10.38,1.81a6,6,0,0,0,3.32-8.27c-2.35-4.48-11.41-5.6-15.86-4.82-.26,0-3,.86-4.81,1.4,1-.47,1.94-.92,3-1.43,2-1,4-2,6.07-3.12l3-1.73c1-.56,2-1.27,3.07-1.91,2.37-1.53,4.68-3.2,7-4.93.86,1.75,4,7.9,6.62,10.06s6.5,4.18,10,3.36a6,6,0,0,0,4.54-7.66c-1.65-4.79-10.43-7.26-15-7.17-.28,0-3.51.43-5.28.71,1.37-1.05,2.75-2.1,4.1-3.2,3.92-3.2,7.78-6.56,11.66-9.89q1.77-1.53,3.56-3c.3.63,3.89,8,6.81,10.44,2.6,2.16,6.51,4.18,10,3.36a6,6,0,0,0,4.54-7.66c-1.65-4.79-10.43-7.26-14.95-7.17-.34,0-5,.63-6.17.85,2.62-2.22,5.26-4.41,7.94-6.47a107.28,107.28,0,0,1,11.34-7.64c.14.29,3.85,8,6.84,10.5,2.6,2.16,6.51,4.18,10,3.36a6,6,0,0,0,4.55-7.66c-1.65-4.79-10.44-7.26-14.95-7.17-.36,0-5.36.68-6.26.87.23-.13.45-.3.68-.42a77.57,77.57,0,0,1,12.56-5.49c2.39-.83,4.72-1.49,7-2.09.54,1.51,3.1,8.39,5.55,10.92s6,4.87,9.55,4.44a6,6,0,0,0,5.36-7.12c-1.12-4.94-9.57-8.37-14.07-8.77-.25,0-2.76,0-4.59.09,1-.25,2.1-.53,3.09-.75,3.73-.84,7.2-1.38,10.28-1.84,1.75-.24,3.34-.43,4.83-.59,1.3,1.21,6.63,6,9.91,7.09s7.57,1.56,10.52-.46A6,6,0,0,0,438.36,273.53Z"/><path class="cls-3" d="M397,278.49c0,.09,5.25-3.15,5.56-3.4,3.54-2.8,8.73-10.3,7-15a6,6,0,0,0-8.38-3c-3.21,1.58-4.93,5.63-5.56,8.94C394.8,269.87,397,278.48,397,278.49Z"/><path class="cls-3" d="M106.33,215c-1.53,3.65-8.09,9.64-8.09,9.65s-2.64-5.53-2.76-5.9c-1.41-4.29-1.6-13.41,2.49-16.39a6,6,0,0,1,8.66,2.11C108.43,207.58,107.63,211.9,106.33,215Z"/><path class="cls-3" d="M1.33,273.53c3.26-3.87,12.35-3,16.53-1.3.36.15,5.74,3.12,5.68,3.18l-.08.07c1.43.13,3,.28,4.65.48,3.09.38,6.58.85,10.35,1.62a106.08,106.08,0,0,1,12,3,77.71,77.71,0,0,1,12.84,5.28l.14.08c-1-1.05-3.86-4.1-4-4.35-2.67-3.64-5.7-12.25-2.74-16.35a6,6,0,0,1,8.88-.7c2.67,2.37,3.27,6.73,3,10.09-.3,3.8-4.3,11-4.62,11.59a104.46,104.46,0,0,1,11.9,7.64c2.22,1.62,4.41,3.33,6.58,5.06-.88-.94-1.65-1.79-1.74-1.92C78,293.4,75,284.8,77.93,280.69a6,6,0,0,1,8.89-.7c2.67,2.38,3.26,6.74,3,10.1s-3.55,9.64-4.44,11.27l2.47,2c4,3.25,7.88,6.51,11.82,9.6,1.39,1.08,2.8,2.1,4.21,3.13-.78-.84-1.42-1.55-1.51-1.67-2.67-3.64-5.7-12.25-2.74-16.35a6,6,0,0,1,8.88-.7c2.67,2.37,3.27,6.73,3,10.1s-3.24,9-4.29,11c1.47,1,3,2,4.42,2.92,1,.6,2,1.24,3,1.79l3.08,1.66c2,1,4,2,6,2.93,1.36.64,2.67,1.23,4,1.83-1.39-1.07-4.08-3.21-4.29-3.41a23.38,23.38,0,0,1-5.56-10.34,6.89,6.89,0,0,1-.85-1,6,6,0,0,1,1.78-8.73c4.44-2.44,12.61,1.63,15.89,4.73.2.18,2.08,2.4,3.24,3.82-.56-.94-1.11-1.84-1.67-2.82-1.12-1.91-2.19-3.86-3.34-5.95l-1.58-3.12c-.55-1-1-2.19-1.51-3.29-1.12-2.58-2.14-5.25-3.11-8-1.68,1-7.7,4.37-11.07,4.74s-7.73-.11-10.18-2.71a6,6,0,0,1,.44-8.9c4-3.08,12.71-.3,16.42,2.27.24.16,2.7,2.3,4,3.51-.56-1.64-1.14-3.27-1.66-4.94-1.5-4.83-2.87-9.76-4.26-14.67-.42-1.51-.87-3-1.3-4.5-.6.35-7.67,4.54-11.44,4.95-3.36.36-7.73-.1-10.18-2.7a6,6,0,0,1,.44-8.9c4-3.08,12.71-.31,16.42,2.26.28.2,3.82,3.28,4.68,4.11-1-3.29-2-6.57-3.06-9.77a104.16,104.16,0,0,0-5.24-12.63c-.27.16-7.63,4.57-11.5,5-3.36.36-7.73-.11-10.18-2.71a6,6,0,0,1,.44-8.9c4-3.08,12.71-.3,16.43,2.27.29.2,4.09,3.53,4.73,4.18-.11-.24-.21-.5-.33-.73a77.19,77.19,0,0,0-7.45-11.51c-1.54-2-3.11-3.85-4.69-5.6-1.28,1-7.21,5.29-10.65,6.05-3.29.73-7.69.74-10.41-1.57a6,6,0,0,1-.54-8.89c3.65-3.51,12.59-1.7,16.57.44.22.12,2.28,1.55,3.77,2.61-.72-.78-1.45-1.6-2.16-2.33-2.65-2.76-5.24-5.13-7.56-7.2-1.32-1.18-2.54-2.21-3.7-3.16-1.75.28-8.84,1.34-12.18.45s-7.17-2.89-8.52-6.19a6,6,0,0,1,3.62-8.15c4.86-1.42,12,4.3,14.5,8,.22.32,3.08,5.77,3,5.78l-.11,0c1.13.89,2.33,1.87,3.62,3,2.36,2,5,4.34,7.74,7.06a106.16,106.16,0,0,1,8.35,9.17,78.9,78.9,0,0,1,7.8,11.49,1,1,0,0,1,.07.15c-.29-1.45-1-5.55-1-5.87-.22-4.51,2-13.36,6.73-15.15a6,6,0,0,1,7.8,4.32c.91,3.45-1,7.42-3.07,10.07-2.35,3-9.66,6.82-10.25,7.12a105.11,105.11,0,0,1,5.71,12.94c1,2.57,1.84,5.2,2.69,7.85-.2-1.27-.38-2.4-.39-2.56-.22-4.52,2-13.37,6.73-15.15a6,6,0,0,1,7.8,4.31c.92,3.45-1,7.42-3.07,10.08s-8.28,6.07-9.93,6.95c.32,1,.64,2,.95,3.05,1.5,4.89,3,9.77,4.57,14.52.56,1.67,1.17,3.3,1.78,4.93-.19-1.12-.33-2.07-.34-2.22-.22-4.51,2-13.36,6.73-15.15a6,6,0,0,1,7.8,4.32c.92,3.45-1,7.42-3.07,10.07s-7.68,5.75-9.63,6.79c.67,1.65,1.34,3.31,2.06,4.88.53,1.06.95,2.12,1.53,3.15l1.65,3.09c1.12,1.92,2.26,3.91,3.4,5.75.78,1.29,1.55,2.51,2.32,3.74-.58-1.66-1.64-4.94-1.69-5.22-.91-4.43-.05-13.51,4.36-16a6,6,0,0,1,8.35,3.09c1.43,3.27.15,7.48-1.5,10.43-1.82,3.23-8.19,7.95-9,8.54,1.28,2,2.54,4,3.77,5.81.62.93,1.22,1.82,1.82,2.69l-2.18,2.28c-.7-1.07-1.41-2.18-2.15-3.34-1.31-2.05-2.67-4.26-4.05-6.56a63.9,63.9,0,0,1-7.25,2.43c.07,3.82-2.46,10.78-2.8,11.67,2.19,1,4.33,1.92,6.36,2.77a20,20,0,0,0,2.56.73l-2.31,2.43a9.36,9.36,0,0,1-1.44-.41c-2.23-1-4.59-2.09-7-3.24-.55.8-5.09,7.32-8.28,9.24-2.89,1.73-7.06,3.14-10.37,1.81a6,6,0,0,1-3.33-8.27c2.35-4.48,11.41-5.6,15.86-4.82.27,0,3.06.86,4.81,1.4-1-.47-1.94-.92-2.94-1.43-2-1-4-2-6.08-3.12l-3-1.73c-1-.56-2-1.27-3.08-1.91-2.36-1.53-4.68-3.2-7-4.93-.86,1.75-4,7.9-6.62,10.06s-6.51,4.18-10,3.36a6,6,0,0,1-4.54-7.66c1.65-4.79,10.43-7.26,15-7.17.28,0,3.52.43,5.29.71-1.38-1.05-2.75-2.1-4.11-3.2-3.92-3.2-7.78-6.56-11.65-9.89l-3.57-3c-.3.63-3.89,8-6.81,10.44-2.6,2.16-6.5,4.18-10,3.36a6,6,0,0,1-4.54-7.66c1.65-4.79,10.43-7.26,15-7.17.34,0,5,.63,6.16.85-2.62-2.22-5.25-4.41-7.94-6.47a105.27,105.27,0,0,0-11.34-7.64c-.13.29-3.84,8-6.84,10.5-2.59,2.16-6.5,4.18-10,3.36a6,6,0,0,1-4.54-7.66c1.65-4.79,10.43-7.26,14.95-7.17.35,0,5.36.68,6.26.87-.23-.13-.46-.3-.69-.42a77.19,77.19,0,0,0-12.56-5.49c-2.39-.83-4.72-1.49-7-2.09-.54,1.51-3.1,8.39-5.54,10.92s-6,4.87-9.56,4.44a6,6,0,0,1-5.35-7.12c1.11-4.94,9.57-8.37,14.07-8.77.24,0,2.75,0,4.58.09-1-.25-2.09-.53-3.09-.75-3.73-.84-7.2-1.38-10.28-1.84-1.75-.24-3.34-.43-4.82-.59-1.31,1.21-6.64,6-9.92,7.09s-7.57,1.56-10.52-.46A6,6,0,0,1,1.33,273.53Z"/><path class="cls-3" d="M42.73,278.49c0,.09-5.25-3.15-5.55-3.4-3.54-2.8-8.74-10.3-7-15a6,6,0,0,1,8.38-3c3.2,1.58,4.93,5.63,5.56,8.94C44.9,269.87,42.73,278.48,42.73,278.49Z"/></g><g id="Shadow"><ellipse class="cls-3" cx="221.98" cy="413.53" rx="77.36" ry="9.35"/></g><g id="Icon_4" data-name="Icon 4"><rect class="cls-4" x="365.34" y="362.79" width="50.94" height="17.98"/><rect class="cls-4" x="366.94" y="380.74" width="47.74" height="28.95"/><rect class="cls-4" x="385.34" y="362.89" width="10.94" height="47.06"/><path class="cls-4" d="M390.44,362.79S385,351.28,378.56,352.6,375.35,363.35,390.44,362.79Z"/><path class="cls-4" d="M390.9,362.79s5.47-11.51,11.88-10.19S406,363.35,390.9,362.79Z"/><path class="cls-4" d="M405.16,338.45c.37,2.64-1,5.47-4.91,7.17s-6-3-10.18,1.32.83,15.85.83,15.85,13.69-1.89,14.26,3.39-3.78,7.74-2.46,10.94,5.48.95,5.85-2.64"/></g><g id="Icon_3" data-name="Icon 3"><circle class="cls-4" cx="400.24" cy="28.49" r="26.02"/><path class="cls-3" d="M400.39,49.57V46c-2.9-.11-5.05-1.05-6.47-2.82s-2.2-4.29-2.34-7.55l5.39-1a18.09,18.09,0,0,0,.47,3.5,4.9,4.9,0,0,0,1.2,2.34,3,3,0,0,0,2.17.82,2.49,2.49,0,0,0,2.17-.91,3.85,3.85,0,0,0,.65-2.29,6.13,6.13,0,0,0-1-3.67,17.55,17.55,0,0,0-2.68-2.87l-4.34-3.79a16.32,16.32,0,0,1-2.06-2.21,9.32,9.32,0,0,1-1.39-2.61,10.24,10.24,0,0,1-.51-3.39,8.09,8.09,0,0,1,2.19-6,8.77,8.77,0,0,1,5.9-2.38V7.73h1.82V11.1a7.74,7.74,0,0,1,3.54,1,6.55,6.55,0,0,1,2.21,2.1A10,10,0,0,1,408.5,17a16.51,16.51,0,0,1,.48,3.33l-5.31.93a19.69,19.69,0,0,0-.33-2.89,4,4,0,0,0-.95-2,2.48,2.48,0,0,0-2-.66,2.78,2.78,0,0,0-2.17.93,3.32,3.32,0,0,0-.74,2.23,4.86,4.86,0,0,0,.8,2.93,14.19,14.19,0,0,0,2,2.21l4.3,3.75A24.35,24.35,0,0,1,407,30.44a12,12,0,0,1,1.85,3.2,11.09,11.09,0,0,1,.69,4,8.91,8.91,0,0,1-.9,4.06,7.51,7.51,0,0,1-2.55,2.89A8.71,8.71,0,0,1,402.2,46v3.58Z"/></g><g id="Icon_2" data-name="Icon 2"><circle class="cls-4" cx="67.04" cy="19.54" r="8.61" transform="translate(-2.69 15.75) rotate(-13.13)"/><path class="cls-4" d="M79.35,44.31C79.12,36.4,73.7,30.07,67,30.07S55,36.4,54.74,44.31"/><circle class="cls-4" cx="86.84" cy="18.08" r="7.16"/><path class="cls-4" d="M97.06,38.67c-.19-6.57-4.69-11.83-10.22-11.83a9.94,9.94,0,0,0-8.61,5.64"/><circle class="cls-4" cx="47.48" cy="18.08" r="7.16"/><path class="cls-4" d="M37.26,38.67C37.45,32.1,42,26.84,47.48,26.84a9.94,9.94,0,0,1,8.61,5.64"/></g><g id="Icon_1" data-name="Icon 1"><circle class="cls-4" cx="60.61" cy="375.47" r="26.02" transform="translate(-58.84 14.39) rotate(-9.14)"/><line class="cls-5" x1="60.61" y1="360.83" x2="60.61" y2="390.1"/><line class="cls-5" x1="75.25" y1="375.47" x2="45.97" y2="375.47"/></g><g id="Device"><path class="cls-6" d="M304,53.38V356.83a15.08,15.08,0,0,1-15.08,15.08H157.82a15.08,15.08,0,0,1-15.08-15.08V53.37A15.07,15.07,0,0,1,157.81,38.3h56.28l0,.17c1.4,5.05,4.63,8.33,8.21,8.33h2.05c3.59,0,6.82-3.28,8.22-8.33l0-.17h56.27A15.08,15.08,0,0,1,304,53.38Z"/><path class="cls-7" d="M314.27,125.86V95.55h-2.74V56.75a23.92,23.92,0,0,0-23.92-23.92H159.14a23.92,23.92,0,0,0-23.92,23.92V365.08A23.92,23.92,0,0,0,159.14,389H287.61a23.92,23.92,0,0,0,23.92-23.92V151.69h2.74V133.78h-2.74v-7.92ZM304,348a23.92,23.92,0,0,1-23.92,23.92H166.66A23.91,23.91,0,0,1,142.74,348V62.21A23.91,23.91,0,0,1,166.66,38.3h47.43l0,.17c1.4,5.05,4.63,8.33,8.21,8.33h2.05c3.59,0,6.82-3.28,8.22-8.33l0-.17H280.1A23.92,23.92,0,0,1,304,62.21Z"/><path class="cls-8" d="M285.7,36.12H161.06A23.07,23.07,0,0,0,138,59.19V362.63a23.07,23.07,0,0,0,23.07,23.07H285.7a23.06,23.06,0,0,0,23.06-23.07V59.19A23.06,23.06,0,0,0,285.7,36.12ZM304,348.84A23.07,23.07,0,0,1,281,371.91H165.81a23.07,23.07,0,0,1-23.07-23.07V61.36A23.05,23.05,0,0,1,165.8,38.3h48.29l0,.17c1.4,5.05,4.63,8.33,8.21,8.33h2.05c3.59,0,6.82-3.28,8.22-8.33l0-.17H281A23.07,23.07,0,0,1,304,61.37Z"/><path class="cls-9" d="M225.13,39.44a2.25,2.25,0,1,0-2.24,2.25A2.24,2.24,0,0,0,225.13,39.44Z"/><path class="cls-3" d="M157.07,48.05c0,2.27-2.55,3.09-2.56,4.82V53H157v.76h-3.31v-.64c0-2.44,2.55-2.91,2.55-5,0-.78-.26-1.19-.88-1.19s-.88.45-.88,1.11v.67h-.79v-.61c0-1.16.53-1.92,1.69-1.92S157.07,46.89,157.07,48.05Z"/><path class="cls-3" d="M161.2,48v.19a1.5,1.5,0,0,1-.92,1.55,1.5,1.5,0,0,1,.92,1.56v.58c0,1.15-.54,1.91-1.7,1.91s-1.69-.76-1.69-1.91V51.4h.78V52c0,.67.28,1.08.89,1.08s.88-.4.88-1.16v-.58c0-.74-.31-1.1-1-1.12H159v-.75h.49a.92.92,0,0,0,.91-1v-.34c0-.78-.27-1.18-.88-1.18s-.89.42-.89,1.1v.39h-.78V48c0-1.16.53-1.9,1.69-1.9S161.2,46.88,161.2,48Z"/><path class="cls-3" d="M162.82,48.61v1H162v-1Zm0,4.1v1H162v-1Z"/><path class="cls-3" d="M164.53,49.28a1.2,1.2,0,0,1,1.12-.62c1,0,1.39.71,1.39,1.79v1.47c0,1.15-.54,1.91-1.7,1.91s-1.69-.76-1.69-1.91v-.5h.79V52c0,.67.28,1.08.88,1.08s.89-.41.89-1.08V50.51c0-.68-.28-1.09-.89-1.09a.82.82,0,0,0-.85.81v.17h-.78l.2-4.18h3V47h-2.22Z"/><path class="cls-3" d="M171.23,48v.14h-.78V48c0-.68-.28-1.08-.9-1.08s-.91.41-.91,1.22V49.8a1.21,1.21,0,0,1,1.22-.81c1,0,1.4.7,1.4,1.79v1.14c0,1.15-.58,1.91-1.73,1.91s-1.73-.76-1.73-1.91V48.08c0-1.2.54-1.94,1.73-1.94S171.23,46.87,171.23,48Zm-2.59,2.83V52c0,.67.28,1.08.89,1.08s.9-.41.9-1.08V50.85c0-.68-.29-1.09-.9-1.09S168.64,50.17,168.64,50.85Z"/><rect class="cls-3" x="251.38" y="48.36" width="2.13" height="5.32"/><rect class="cls-3" x="254.22" y="47.29" width="2.13" height="6.39"/><rect class="cls-3" x="257.05" y="46.53" width="2.13" height="7.14"/><rect class="cls-3" x="259.89" y="45.22" width="2.13" height="8.46"/><path class="cls-3" d="M288.35,53.53H275.58v-7.8h12.77Zm-12.06-.71h11.35V46.44H276.29Z"/><rect class="cls-3" x="277.36" y="47.21" width="6.74" height="4.84"/><rect class="cls-3" x="287.91" y="48.71" width="1.61" height="1.84"/><path class="cls-3" d="M270.9,51.83a.42.42,0,0,1-.24-.07c-2.6-1.54-4.32-.11-4.39,0a.47.47,0,0,1-.67,0,.48.48,0,0,1,0-.67c.1-.08,2.29-2,5.51,0a.47.47,0,0,1,.16.65A.48.48,0,0,1,270.9,51.83Z"/><path class="cls-3" d="M271.86,50.23a.44.44,0,0,1-.24-.07c-3.76-2.23-6.28-.07-6.31,0a.47.47,0,0,1-.67,0,.49.49,0,0,1,0-.68s3.08-2.63,7.43,0a.48.48,0,0,1,.16.66A.47.47,0,0,1,271.86,50.23Z"/><path class="cls-3" d="M272.74,48.37a.54.54,0,0,1-.25-.06c-4.76-2.83-7.92-.17-8.05-.05a.47.47,0,0,1-.67,0,.47.47,0,0,1,0-.67s3.8-3.25,9.17,0a.47.47,0,0,1-.24.88Z"/><path class="cls-3" d="M269.47,52.63a1.2,1.2,0,1,1-1.2-1.2A1.2,1.2,0,0,1,269.47,52.63Z"/></g><g id="Gift_1" data-name="Gift 1"><line class="cls-4" x1="64.9" y1="93.59" x2="76.56" y2="93.59"/><line class="cls-4" x1="155.29" y1="93.59" x2="166.95" y2="93.59"/><line class="cls-4" x1="76.56" y1="62.97" x2="83.12" y2="68.08"/><line class="cls-4" x1="153.83" y1="62.97" x2="147.27" y2="68.08"/><line class="cls-4" x1="102.8" y1="50.58" x2="103.53" y2="61.51"/><line class="cls-4" x1="128.32" y1="52.04" x2="126.86" y2="61.51"/><rect class="cls-6" x="81.92" y="79.93" width="62.94" height="54.31"/><rect class="cls-10" x="93.42" y="79.93" width="11.87" height="54.31"/><rect class="cls-6" x="117.27" y="79.93" width="27.59" height="54.31"/><path class="cls-10" d="M109,75.5l-9.23-4a3.25,3.25,0,0,0-.68,0l-.15-.07H89.6l7.24,3.39a9.61,9.61,0,0,0,.23,1.52,4.83,4.83,0,0,0,3.29,3.16l.06.28h1l16.07.21S113.33,77.72,109,75.5Z"/><path class="cls-10" d="M108.21,79.93s-10-5.39-15.42-7.76-5.61,1.3-5,4.1,4.31,3.45,4.31,3.45Z"/><path class="cls-10" d="M110.59,76h-3.53a3.83,3.83,0,0,0-3.83,3.84h11.2A3.84,3.84,0,0,0,110.59,76Z"/><path class="cls-10" d="M132.65,71.47h-8.16l-1.06,4c-4.38,2.22-8.5,4.43-8.5,4.43L131,79.72h1l0-.28a4.83,4.83,0,0,0,3.3-3.16C135.84,73.94,135.78,71,132.65,71.47Z"/><path class="cls-10" d="M105.29,79.93s10-5.39,15.42-7.76,5.61,1.3,5,4.1-4.31,3.45-4.31,3.45Z"/></g><g id="Character"><path class="cls-6" d="M84,138s-5.26-3.51-4.11-4.61,6.8,1.32,8.09,3,.63,2.8-.43,2.9S84,138,84,138Z"/><path class="cls-6" d="M88.41,134s-8.15-4.24-6.19-.33,6.84,7.5,8.8,8.48,12.72.65,12.72.65-2-3.58-3.92-4.56S88.41,134,88.41,134Z"/><path class="cls-6" d="M96.24,134s-10.76-5.87-11.09-3.59,8.48,9.78,11.41,11.09a21.24,21.24,0,0,0,7.18,1.3Z"/><path class="cls-6" d="M138.62,144s-3.91-9.13-6.85-10.43-29.34,1.3-29.34,1.3-12.72-10.43-11.74-5.21,9.13,11.41,11.41,13,19.24,1,19.24,1l5.22,4.89Z"/><path class="cls-6" d="M299.14,158.73a5.54,5.54,0,0,0-.46,3.84A9.53,9.53,0,0,0,301,166l.77,4.75,10.44.47-4.3-16Z"/><path class="cls-8" d="M292.05,129.05s4.35,28.3,5,30,5.66,3.7,7.41,2.83-1.31-5-1.31-5L304,129.7S296.62,126.87,292.05,129.05Z"/><path class="cls-6" d="M304.24,138s-6.1-.44-6.32.65-.21,4.79.88,5.22,8.48,1.09,9.79.66a3.63,3.63,0,0,0,1.52-5C308.81,137.54,304.24,138,304.24,138Z"/><path class="cls-6" d="M304.24,144.94s-5.88,0-5.66,1.31-.44,4.14,2,4.57a28.68,28.68,0,0,0,8.7-.22,2.57,2.57,0,0,0,1.09-4.57C308.59,144.51,304.24,144.94,304.24,144.94Z"/><path class="cls-6" d="M294.79,146.62s-.75-5.49-2.52-5.34c-1.32.12-4.47,1.11-4.18,3.53a29.12,29.12,0,0,0,2.76,8.26,2.57,2.57,0,0,0,4.69-.31C296.49,150.65,294.79,146.62,294.79,146.62Z"/><path class="cls-6" d="M304.57,150.82s-5.32,0-5.12,1.25-.4,4,1.77,4.4a24.66,24.66,0,0,0,7.88-.21,2.52,2.52,0,0,0,1-4.4C308.51,150.4,304.57,150.82,304.57,150.82Z"/><path class="cls-6" d="M304.82,155.6s-4.45,0-4.28,1.05-.33,3.33,1.48,3.68a20.7,20.7,0,0,0,6.59-.18,2.11,2.11,0,0,0,.82-3.68C308.11,155.25,304.82,155.6,304.82,155.6Z"/><path class="cls-6" d="M290.83,100.41a14.89,14.89,0,0,0-11.45,24.39c2.73,3.29,7.2,5.64,11.45,5.38,13.07-.8,47.31,17.53,47.31,17.53V82.88S304.39,100.68,290.83,100.41Z"/><path class="cls-7" d="M288.18,115.83a18.59,18.59,0,0,1,9.72-16.35,29.94,29.94,0,0,1-7.07.93,14.89,14.89,0,0,0-11.45,24.39c2.73,3.29,7.2,5.64,11.45,5.38a21.75,21.75,0,0,1,4.53.3A18.51,18.51,0,0,1,288.18,115.83Z"/><circle class="cls-6" cx="338.14" cy="115.29" r="32.42" transform="translate(146.13 416.56) rotate(-76.32)"/><path class="cls-11" d="M365.77,115.3a27.64,27.64,0,1,1-27.64-27.64A27.64,27.64,0,0,1,365.77,115.3Z"/><path class="cls-6" d="M338.13,108.54V122l-21.26,10.89a27.68,27.68,0,0,1-4.15-28.49Z"/><path class="cls-6" d="M344.88,115.29a6.75,6.75,0,1,1-6.74-6.74A6.75,6.75,0,0,1,344.88,115.29Z"/><polygon class="cls-12" points="299.56 171.13 298.49 166.6 312.5 164.87 312.19 171.16 299.56 171.13"/><polygon class="cls-12" points="125.72 150.42 122.49 145.25 137.37 137.7 138.62 144.04 125.72 150.42"/><path class="cls-12" d="M216.17,142.93s-23.92-2.66-26-1.59-32.42,36.93-32.42,36.93l-18.6-37.2L123.43,148s19.66,67,22.85,67.76,33.48-19.4,33.48-19.4l-1.86,26.57s5.58,22.32,30.3,26.58,39.32-14.89,42.51-21.26a129.65,129.65,0,0,0,6.11-15.68l11.43-33.75s32.15,26.31,39.33,29.5,13.81,6.11,14.61,4.52S315,168.71,315,168.71l-17,.79.8,6.65s-22.06-29-23.92-31.89-7.44-2.39-14.08-4.25S216.17,142.93,216.17,142.93Z"/><line class="cls-12" x1="179.76" y1="196.34" x2="197.57" y2="183.05"/><line class="cls-12" x1="191.19" y1="188.1" x2="200.22" y2="186.51"/><line class="cls-12" x1="268.25" y1="178.8" x2="274.36" y2="157.28"/><line class="cls-12" x1="270.64" y1="171.89" x2="277.28" y2="162.59"/><line class="cls-12" x1="299.6" y1="191.62" x2="299.87" y2="196.87"/><line class="cls-12" x1="298.81" y1="176.15" x2="299.29" y2="185.62"/><line class="cls-12" x1="157.71" y1="178.27" x2="163.29" y2="189.96"/><path class="cls-13" d="M225.2,140l-11.69,2.12s-4.25,3.46-6.64,11.43a96.69,96.69,0,0,0-3.19,14.88l10.1.53-8,8s2.4,3.46,7.44,10.9a158.78,158.78,0,0,0,13,15.94l-14.88,19.13s18.07-4,29.23-16.21,17.81-30.55,17.81-30.55l-8.77-6.91,9.3-1.86s1.86-15.15-8-25S225.2,140,225.2,140Z"/><path class="cls-6" d="M251.51,146.38s-3.1,6.14-3.72,17.54c-.48,8.9-5.15,20.24-9.27,28.26-3.27,6.38-6.2,10.67-6.41,10,0,0-1.72-2.76-4.48-10.79-.66-1.93-1.38-4.17-2.16-6.75-4-13.29-7.44-34.81-5.85-39.06a47.78,47.78,0,0,1,2.66-6.11C235,156.75,251.51,146.38,251.51,146.38Z"/><path class="cls-8" d="M235.3,182.79l3.22,9.39c-3.27,6.38-6.2,10.67-6.41,10,0,0-1.72-2.76-4.48-10.79l4.48-8.08L227.67,175l5.24-5.24,7.17,7.17Z"/><polyline class="cls-4" points="224.14 178.8 232.91 169.77 243.59 179.84"/><path class="cls-4" d="M222.28,139.48a54.9,54.9,0,0,0,3.19,15.67,86.43,86.43,0,0,0,7.44,14.62L245.4,152S231.85,153.29,222.28,139.48Z"/><path class="cls-6" d="M260.29,111.32s3.79-.6,3.79,4.59-2.19,11.58-2.19,11.58Z"/><path class="cls-6" d="M259,92.18s2.66,24.18,2.92,31.35-.53,13.55-2.92,16.74-12,15.95-17,16.48-10.63-2.13-12.75-4S217,135,217,135s-7.7-.53-9.56-10.63,8.5-7.71,8.5-7.71-5.58-8.77-6.11-17.27-2.13-11.69,20.73-12.22S259,92.18,259,92.18Z"/><polyline class="cls-4" points="246.99 109.18 253.37 131.24 243.54 128.31"/><line class="cls-4" x1="233.71" y1="125.66" x2="226" y2="127.25"/><path class="cls-4" d="M230,127a12.49,12.49,0,0,0,10.36,8.5c8.5,1.33,12.75-.27,12.75-.27"/><path class="cls-8" d="M232.11,131.24s-.26,13.28,4.52,13.82,3.72-9.57,3.72-9.57A21.87,21.87,0,0,1,232.11,131.24Z"/><path class="cls-6" d="M233.09,140.42c.65,2.43,1.74,4.44,3.54,4.64a2.53,2.53,0,0,0,2.39-1C238.1,142.43,234.89,141.07,233.09,140.42Z"/><path class="cls-3" d="M235.43,115.29c0,1.47-.65,2.66-1.46,2.66s-1.46-1.19-1.46-2.66.65-2.65,1.46-2.65S235.43,113.83,235.43,115.29Z"/><path class="cls-3" d="M253.24,112.9c0,1.47-.66,2.66-1.47,2.66s-1.46-1.19-1.46-2.66.66-2.65,1.46-2.65S253.24,111.44,253.24,112.9Z"/><path class="cls-4" d="M229.19,110.78a11.27,11.27,0,0,1,10.1-3.72"/><path class="cls-4" d="M247.79,106s3.45-6.37,9-3.18"/><path class="cls-8" d="M230.78,92.71s-8.24-1.33-6.38,1.06,6.12,5.32,4,7.18-7.44,5-7.17,6.64.79,8.24,0,9.83-2.66,1.86-4.52,1.59-4.52-5-5.58-6.37-10.63-10.9-8.77-18.6,21.79-13.82,21.79-13.82S236.89,65.87,245.4,65.6s5.31,7.71,5,8.51,12.22-.8,14.61,6.91,1.6,9.83-9.3,12.75S230.78,92.71,230.78,92.71Z"/><polygon class="cls-3" points="398.39 82.1 376.74 87.7 381.22 89.94 368.89 93.67 393.91 90.31 387.57 87.32 398.39 82.1"/><polygon class="cls-3" points="402.84 134.82 380.93 130.29 383.96 134.28 371.26 132.19 395.19 140.22 390.81 134.74 402.84 134.82"/><polygon class="cls-3" points="379.28 170.94 360.83 158.28 362.08 163.13 351.18 156.29 370.14 172.95 368.23 166.2 379.28 170.94"/></g><g id="Text"><path class="cls-14" d="M179.66,300.88V270.26H187a16.25,16.25,0,0,1,5.24.74,6,6,0,0,1,3.25,2.51,9.1,9.1,0,0,1,1.11,4.84,14.76,14.76,0,0,1-.34,3.33,6.24,6.24,0,0,1-1.15,2.51,5.22,5.22,0,0,1-2.25,1.61l4.27,15.08h-5.59l-3.7-14h-2.58v14Zm5.59-17.54H187a6,6,0,0,0,2.59-.47,2.72,2.72,0,0,0,1.38-1.52,7.16,7.16,0,0,0,.42-2.66,5.86,5.86,0,0,0-.85-3.46c-.57-.77-1.65-1.15-3.23-1.15h-2.05Z"/><path class="cls-14" d="M200.79,300.88V270.26h12.85v3.93h-7.26V283h5.71v3.89h-5.71V297h7.34v3.86Z"/><path class="cls-14" d="M217,300.88V270.26h12.59v3.86h-7V283h5.71v3.89h-5.71v13.95Z"/><path class="cls-14" d="M232.47,300.88V270.26h12.85v3.93h-7.26V283h5.71v3.89h-5.71V297h7.33v3.86Z"/><path class="cls-14" d="M248.65,300.88V270.26H256a16.18,16.18,0,0,1,5.23.74,6,6,0,0,1,3.25,2.51,9,9,0,0,1,1.12,4.84,14.76,14.76,0,0,1-.34,3.33,6.38,6.38,0,0,1-1.15,2.51,5.35,5.35,0,0,1-2.25,1.61l4.27,15.08h-5.6l-3.7-14h-2.57v14Zm5.59-17.54H256a6,6,0,0,0,2.59-.47,2.79,2.79,0,0,0,1.38-1.52,7.39,7.39,0,0,0,.41-2.66,5.79,5.79,0,0,0-.85-3.46c-.56-.77-1.64-1.15-3.23-1.15h-2Z"/><path class="cls-14" d="M156.36,340.24l6.12-30.62h6l6.13,30.62H169.4l-1.21-7.07h-5.33l-1.25,7.07Zm7.07-10.62h4.15l-2.08-12.85Z"/><path class="cls-14" d="M186.67,340.24V309.62h12.59v3.86h-7v8.92H198v3.89h-5.7v13.95Z"/><path class="cls-14" d="M202.17,340.24V309.62h7.33a16.25,16.25,0,0,1,5.24.74,6,6,0,0,1,3.25,2.51,9.1,9.1,0,0,1,1.11,4.84,14.76,14.76,0,0,1-.34,3.33,6.24,6.24,0,0,1-1.15,2.51,5.22,5.22,0,0,1-2.25,1.61l4.27,15.08H214l-3.71-14h-2.57v14Zm5.59-17.54h1.74a6,6,0,0,0,2.59-.47,2.77,2.77,0,0,0,1.38-1.51,7.26,7.26,0,0,0,.42-2.67,5.86,5.86,0,0,0-.85-3.46c-.57-.77-1.65-1.15-3.23-1.15h-2.05Z"/><path class="cls-14" d="M223.45,340.24V309.62H229v30.62Z"/><path class="cls-14" d="M233.7,340.24V309.62h12.85v3.93h-7.26v8.81H245v3.89h-5.71v10.13h7.33v3.86Z"/><path class="cls-14" d="M249.87,340.24V309.62h3.9l7.44,17.46V309.62h4.62v30.62h-3.71l-7.48-18.3v18.3Z"/><path class="cls-14" d="M270.47,340.24V309.62h7.22a13.65,13.65,0,0,1,5.85,1,6,6,0,0,1,3,3.14,14,14,0,0,1,.89,5.37v11.19a15,15,0,0,1-.89,5.53,6.15,6.15,0,0,1-2.95,3.29,12.26,12.26,0,0,1-5.65,1.08Zm5.6-3.89h1.7a4.34,4.34,0,0,0,2.76-.69,3,3,0,0,0,1-2,22.11,22.11,0,0,0,.19-3.19V318.77a13.37,13.37,0,0,0-.27-3,2.54,2.54,0,0,0-1.09-1.66,5.23,5.23,0,0,0-2.69-.53h-1.62Z"/></g></g></svg>